<svg viewBox="0 0 173 174" fill="none" xmlns="http://www.w3.org/2000/svg">
<circle cx="86.4791" cy="86.6652" r="86.4791" fill="#3D405B"/>
<path d="M37.7581 133.208L45.3248 57.3986H116.185L114.083 134.288L37.7581 133.208Z" stroke="white" stroke-width="5"/>
<path d="M61.8704 54.1162L65.2205 39.5073H102.358L105.416 54.1162H61.8704Z" stroke="white" stroke-width="6"/>
<path d="M118.147 57.4065H124.73C126.242 57.4065 127.518 58.5319 127.707 60.0323L136.621 130.941C136.846 132.732 135.45 134.315 133.645 134.315H116.829" stroke="white" stroke-width="5" stroke-linecap="round"/>
<path d="M122.107 63.2582L123.7 124.134M123.7 124.134L119.717 129.299M123.7 124.134L131.269 129.299" stroke="white" stroke-width="3" stroke-linecap="round"/>
<path d="M97.3641 86.9829C99.0762 89.0508 100.317 91.4327 100.95 94.0101L99.4929 94.3677C99.7765 95.523 99.9258 96.7213 99.9258 97.9508C99.9258 99.1803 99.7765 100.379 99.4929 101.534L100.95 101.892C100.317 104.469 99.0762 106.851 97.3641 108.919L96.2087 107.962C94.6888 109.798 92.7556 111.377 90.5151 112.594L91.2307 113.912C88.9746 115.137 86.44 116.011 83.7284 116.446L83.4906 114.965C82.2843 115.159 81.0391 115.26 79.7652 115.26C78.4912 115.26 77.2461 115.159 76.0398 114.965L75.802 116.446C73.0904 116.011 70.5558 115.137 68.2997 113.912L69.0153 112.594C66.7748 111.377 64.8416 109.798 63.3217 107.962L62.1663 108.919C60.4542 106.851 59.2135 104.469 58.5808 101.892L60.0375 101.534C59.7539 100.379 59.6046 99.1803 59.6046 97.9508C59.6046 96.7213 59.7539 95.523 60.0375 94.3677L58.5808 94.0101C59.2135 91.4327 60.4542 89.0508 62.1663 86.9829L63.3217 87.9395C64.8416 86.1038 66.7748 84.5242 69.0153 83.3081L68.2997 81.9898C70.5558 80.7651 73.0904 79.8911 75.802 79.4557L76.0398 80.9368C77.2461 80.7431 78.4912 80.6416 79.7652 80.6416C81.0391 80.6416 82.2843 80.7431 83.4906 80.9368L83.7284 79.4557C86.44 79.8911 88.9746 80.7651 91.2307 81.9898L90.5151 83.3081C92.7556 84.5242 94.6888 86.1038 96.2087 87.9395L97.3641 86.9829Z" stroke="white" stroke-width="3" stroke-dasharray="10 10"/>
</svg>
   