<svg width="406" height="532" viewBox="0 0 406 532" fill="none" xmlns="http://www.w3.org/2000/svg">
<circle cx="90" cy="262" r="90" fill="white"/>
<path d="M114.169 283.346L122.521 320.334C122.937 322.177 121.566 323.942 119.676 323.993L106.5 324.352M106.5 324.352L69.5487 325.359C67.7019 325.409 66.249 323.794 66.4934 321.963L71.138 287.167C71.3572 285.525 72.8657 284.372 74.5077 284.59L101.574 288.195C102.986 288.383 104.071 289.539 104.17 290.96L106.5 324.352Z" stroke="#3D405B" stroke-width="5" stroke-linecap="round"/>
<path fill-rule="evenodd" clip-rule="evenodd" d="M124.51 260.254C122.336 254.709 120.229 249.334 121.041 245.323C123.891 231.247 110.191 213.678 91.4492 215.133C72.7076 216.589 58.6526 232.226 60.0567 250.059C60.4059 254.496 58.9754 259.274 57.5981 263.875C53.4392 277.767 49.7662 290.036 97.057 286.363C135.844 289.159 129.967 274.17 124.51 260.254ZM72.9639 244.547L108.88 244.574C110.122 244.575 111.245 245.335 111.628 246.517C116.435 261.365 114.686 285.206 90.9626 284.106C67.7185 283.029 68.5626 261.189 69.9912 247.216C70.1467 245.695 71.4344 244.546 72.9639 244.547Z" fill="#3D405B"/>
<path d="M73.9617 194.771C71.3866 194.036 67.7512 193.858 66.7588 198.187C65.8236 202.267 67.8598 204.353 69.6832 205.377C70.9843 206.107 72.0773 207.393 72.0361 208.885L71.649 222.901C71.5849 225.219 74.0653 226.74 76.1643 225.754C83.3283 222.386 93.9368 218.864 102.659 222.835C105.096 223.944 108.644 222.477 108.718 219.801L109.057 207.521C109.094 206.162 110.057 205.008 111.26 204.375C113.618 203.135 116.676 200.335 113.462 194.781C111.089 190.68 107.679 191.248 104.843 192.864C102.578 194.155 98.7675 193.095 97.4488 190.845C95.8009 188.033 93.0079 185.521 88.3651 186.3C83.232 187.161 80.7676 189.419 78.1777 193.376C77.2915 194.73 75.5175 195.216 73.9617 194.771Z" stroke="#3D405B" stroke-width="5" stroke-linecap="round"/>
<path d="M127.944 299.32L138.901 265.679C139.28 264.515 138.915 263.237 137.971 262.458C136.11 260.921 133.49 258.793 131.581 257.349C129.287 255.614 133.744 242.24 136.993 233.838C137.556 232.382 139.156 231.631 140.646 232.097L164.855 239.682C166.475 240.19 167.353 241.936 166.784 243.535C164.473 250.031 160.809 260.123 159.02 264.305C157.42 268.046 152.342 267.7 148.37 266.592C146.632 266.107 144.713 266.985 144.196 268.714L134.428 301.402C133.927 303.08 132.1 303.974 130.467 303.339L129.71 303.045C128.226 302.469 127.451 300.834 127.944 299.32Z" stroke="#3D405B" stroke-width="5" stroke-linecap="round"/>
<path d="M38.6455 290.873L36.873 259.566C36.8627 259.383 36.8391 259.165 36.9849 259.053C37.3454 258.778 38.6914 259.32 43.5804 269.243C47.4159 277.028 45.6365 285.648 43.1655 291.863C42.1102 294.517 38.8069 293.725 38.6455 290.873Z" fill="#3D405B" stroke="#3D405B" stroke-width="3" stroke-linecap="round"/>
<path d="M38.0903 293.042L21.4882 266.44C21.3911 266.284 21.2846 266.092 21.1012 266.085C20.6478 266.068 19.8605 267.287 21.5873 278.214C22.9419 286.786 29.3656 292.803 34.9678 296.456C37.3604 298.017 39.6026 295.465 38.0903 293.042Z" fill="#3D405B" stroke="#3D405B" stroke-width="3" stroke-linecap="round"/>
<path d="M26.6385 313.474C20.4486 305.279 27.7875 298.548 34.3029 295.068C36.0195 294.15 38.0145 295.332 38.2631 297.262L40.8566 317.407C40.9553 318.174 40.7781 318.981 40.1783 319.469C37.8973 321.325 33.0484 321.96 26.6385 313.474Z" stroke="#3D405B" stroke-width="5" stroke-linecap="round"/>
<path d="M58.8826 302.616C59.7804 292.335 49.8758 290.786 42.4728 291.487C40.5543 291.669 39.5331 293.719 40.3498 295.465L48.8758 313.684C49.2105 314.4 49.8111 314.995 50.5974 315.069C53.526 315.345 57.9595 313.186 58.8826 302.616Z" stroke="#3D405B" stroke-width="5" stroke-linecap="round"/>
<circle cx="97" cy="296.018" r="2" fill="#3D405B"/>
<circle cx="97" cy="306.018" r="2" fill="#3D405B"/>
<circle cx="97" cy="316.018" r="2" fill="#3D405B"/>
<path d="M74 212.018H109" stroke="#3D405B" stroke-width="3" stroke-linecap="round"/>
<circle cx="316" cy="90" r="90" fill="white"/>
<path d="M350.694 106.197H326.523C324.866 106.197 323.523 104.857 323.523 103.2C323.523 100.095 323.523 94.6544 323.523 86.2297C323.523 70.3936 328.775 67.6082 330.168 65.1984C331.19 63.4318 329.147 53.0778 326.386 46.5896C325.943 45.5488 324.9 44.9181 323.769 44.9181H323.194C321.353 44.9181 319.952 43.277 320.325 41.4746C321.022 38.1137 322.138 33.7357 323.523 30.8033C325.196 27.2602 334.334 25.4897 340.564 24.8403C342.144 24.6757 343.379 23.3671 343.379 21.7792V19C343.379 17.3431 344.722 16 346.379 16H354.767" stroke="#3D405B" stroke-width="5" stroke-linecap="round"/>
<path d="M355.054 16V21.7846C355.054 23.3703 356.287 24.6776 357.863 24.8492C363.896 25.5059 372.675 27.2763 374.288 30.8033C375.631 33.7395 376.713 38.1249 377.388 41.4875C377.749 43.2867 376.349 44.9181 374.514 44.9181H374.134C372.989 44.9181 371.936 45.5645 371.503 46.6245C368.854 53.1148 366.99 63.435 367.978 65.1984C369.328 67.6082 374.288 70.3936 374.288 86.2297C374.288 94.6544 374.288 100.095 374.288 103.2C374.288 104.857 372.945 106.197 371.288 106.197H350.668" stroke="#3D405B" stroke-width="5" stroke-linecap="round"/>
<rect x="345.201" y="106.197" width="7.28865" height="38.2654" rx="3" fill="#3D405B"/>
<path d="M329.257 46.9766C335.635 43.1804 361.601 43.7879 369.8 46.9766" stroke="#3D405B" stroke-width="3" stroke-linecap="round"/>
<path d="M329.713 65.1983H366.156" stroke="#3D405B" stroke-width="3" stroke-linecap="round"/>
<path d="M325.157 85.2422H372.989" stroke="#3D405B" stroke-width="3" stroke-linecap="round"/>
<path d="M334.268 27.8441C336.09 31.4884 339.735 39.9614 339.735 44.6991C339.735 49.4367 339.735 87.9754 339.735 106.653" stroke="#3D405B" stroke-width="3" stroke-linecap="round"/>
<path d="M362.512 26.933C360.689 30.5773 357.045 39.0503 357.045 43.788C357.045 48.5256 357.045 87.0643 357.045 105.741" stroke="#3D405B" stroke-width="3" stroke-linecap="round"/>
<path d="M342.923 24.6552C344.442 26.1737 349.21 28.2995 356.134 24.6552" stroke="#3D405B" stroke-width="3" stroke-linecap="round"/>
<path d="M332.09 141.305C332.64 140.435 333.598 139.907 334.627 139.907L365.105 139.907C367.296 139.907 368.748 142.18 367.827 144.168L365.542 149.101C365.051 150.161 363.989 150.84 362.82 150.84H331.511C329.149 150.84 327.713 148.236 328.975 146.238L332.09 141.305Z" fill="#3D405B"/>
<path d="M331.536 82.2328L310.048 96.476C309.151 97.0708 308.641 98.1008 308.712 99.175L309.136 105.569C309.301 108.053 312.244 109.267 314.112 107.622L335.877 88.4587C336.883 87.573 337.18 86.1274 336.604 84.9173L335.902 83.4436C335.117 81.7963 333.057 81.2248 331.536 82.2328Z" fill="white" stroke="#3D405B" stroke-width="5" stroke-linecap="round"/>
<path d="M318.063 61.3215L300.072 79.7859C299.321 80.557 298.214 80.8664 297.172 80.5967L290.968 78.9911C288.558 78.3674 287.912 75.2499 289.876 73.7202L312.753 55.8978C313.81 55.074 315.285 55.0516 316.367 55.8429L317.685 56.8064C319.157 57.8835 319.336 60.0147 318.063 61.3215Z" fill="white" stroke="#3D405B" stroke-width="5" stroke-linecap="round"/>
<path d="M251.142 136.751L263.675 106.108C264.2 104.825 265.537 104.068 266.907 104.278L301.402 109.572C302.795 109.786 303.851 110.94 303.941 112.346L305.772 140.941C305.888 142.749 304.387 144.246 302.579 144.126L253.72 140.88C251.677 140.744 250.367 138.646 251.142 136.751Z" stroke="#3D405B" stroke-width="5" stroke-linecap="round"/>
<path d="M315.85 76.57C310.964 88.8635 336.026 122.208 287.355 109.869C229.333 104.09 258.009 87.3596 259.642 70.9717C261.274 54.5837 276.6 42.6934 293.874 44.4139C311.149 46.1343 320.737 64.2765 315.85 76.57Z" fill="#3D405B"/>
<circle cx="316" cy="442" r="90" fill="white"/>
<path d="M296.848 385.908L246.972 399.208C245.635 399.564 244.716 400.788 244.746 402.171L245.735 447.885C245.78 449.978 247.9 451.382 249.845 450.607L299.175 430.946C300.327 430.487 301.078 429.366 301.064 428.125L300.621 388.773C300.599 386.816 298.739 385.403 296.848 385.908Z" stroke="#3D405B" stroke-width="5" stroke-linecap="round"/>
<path d="M288.87 395.583L256.309 404.956C255.013 405.329 254.125 406.522 254.14 407.872L254.482 438.79C254.506 440.925 256.69 442.353 258.655 441.518L290.904 427.82C292.013 427.349 292.733 426.261 292.731 425.056L292.7 398.462C292.698 396.468 290.787 395.031 288.87 395.583Z" stroke="#3D405B" stroke-width="3" stroke-linecap="round"/>
<path d="M245.867 451.275L276.43 478.277C277.337 479.079 278.637 479.257 279.726 478.728L323.469 457.503C325.32 456.605 325.738 454.151 324.288 452.69L301.306 429.544" stroke="#3D405B" stroke-width="5" stroke-linecap="round"/>
<path d="M300.408 444.163L305.197 441.811" stroke="#3D405B" stroke-width="4" stroke-linecap="round"/>
<path d="M272.506 467.245L277.296 464.893" stroke="#3D405B" stroke-width="4" stroke-linecap="round"/>
<path d="M309.859 452.195L311.637 451.354" stroke="#3D405B" stroke-width="3" stroke-linecap="round"/>
<path d="M307.869 456.455L309.647 455.614" stroke="#3D405B" stroke-width="3" stroke-linecap="round"/>
<path d="M315.142 453.105L316.92 452.265" stroke="#3D405B" stroke-width="3" stroke-linecap="round"/>
<path d="M313.152 457.365L314.93 456.525" stroke="#3D405B" stroke-width="3" stroke-linecap="round"/>
<path d="M281.71 463.723L304.551 452.595" stroke="#3D405B" stroke-width="3" stroke-linecap="round"/>
<path d="M270.107 462.456L300.235 448.504" stroke="#3D405B" stroke-width="3" stroke-linecap="round"/>
<path d="M264.754 458.918L294.896 445.491" stroke="#3D405B" stroke-width="3" stroke-linecap="round"/>
<path d="M263.576 454.216L293.704 440.264" stroke="#3D405B" stroke-width="3" stroke-linecap="round"/>
<path d="M285.004 468.894L304.72 458.901" stroke="#3D405B" stroke-width="4" stroke-linecap="round"/>
<path d="M363.577 473.345L363.691 511.425L314.277 507.049L319.419 482.483L296.861 473.345L298.271 466.505L309.221 468.532L325.196 469.008L326.468 461.805M363.577 473.345L326.468 461.805M363.577 473.345L316.129 443.476L311.916 449.348L326.468 461.805" stroke="#3D405B" stroke-width="5" stroke-linejoin="round"/>
<path d="M371.657 416.617C359.511 400.8 321.432 409.801 320.976 426.195C319.871 465.938 312.809 467.803 312.809 467.803C328.447 471.18 385.824 481.241 377.936 469.088C367.616 453.189 386.838 436.388 371.657 416.617Z" fill="#3D405B" stroke="#3D405B"/>
<path d="M328.692 468.214C320.85 467.519 317.959 455.598 321.399 447.149C323.944 440.9 320.955 429.679 324.16 429.465C327.365 429.251 336.74 428.89 345.89 431.389C349.329 432.328 349.051 431.669 348.264 440.564C348.493 473.951 331.853 468.493 328.692 468.214Z" fill="white"/>
<path d="M150.641 214.978C151.756 214.163 152 212.599 151.186 211.484C150.372 210.369 148.808 210.125 147.693 210.939L150.641 214.978ZM156.026 204.856C154.911 205.67 154.667 207.234 155.481 208.349C156.295 209.464 157.859 209.708 158.974 208.894L156.026 204.856ZM167.307 202.811C168.423 201.997 168.667 200.433 167.853 199.318C167.038 198.202 165.474 197.958 164.359 198.772L167.307 202.811ZM172.693 192.689C171.577 193.503 171.333 195.067 172.147 196.182C172.962 197.298 174.526 197.542 175.641 196.728L172.693 192.689ZM183.974 190.644C185.089 189.83 185.333 188.266 184.519 187.151C183.705 186.036 182.141 185.792 181.026 186.606L183.974 190.644ZM189.359 180.522C188.244 181.337 188 182.901 188.814 184.016C189.628 185.131 191.192 185.375 192.307 184.561L189.359 180.522ZM200.641 178.478C201.756 177.663 202 176.099 201.186 174.984C200.372 173.869 198.808 173.625 197.693 174.439L200.641 178.478ZM206.026 168.356C204.911 169.17 204.667 170.734 205.481 171.849C206.295 172.964 207.859 173.208 208.974 172.394L206.026 168.356ZM217.307 166.311C218.423 165.497 218.667 163.933 217.853 162.818C217.038 161.702 215.474 161.458 214.359 162.272L217.307 166.311ZM222.693 156.189C221.577 157.003 221.333 158.567 222.147 159.682C222.962 160.798 224.526 161.042 225.641 160.228L222.693 156.189ZM233.974 154.144C235.089 153.33 235.333 151.766 234.519 150.651C233.705 149.536 232.141 149.292 231.026 150.106L233.974 154.144ZM239.359 144.022C238.244 144.837 238 146.401 238.814 147.516C239.628 148.631 241.192 148.875 242.307 148.061L239.359 144.022ZM146.474 218.019L150.641 214.978L147.693 210.939L143.526 213.981L146.474 218.019ZM158.974 208.894L167.307 202.811L164.359 198.772L156.026 204.856L158.974 208.894ZM175.641 196.728L183.974 190.644L181.026 186.606L172.693 192.689L175.641 196.728ZM192.307 184.561L200.641 178.478L197.693 174.439L189.359 180.522L192.307 184.561ZM208.974 172.394L217.307 166.311L214.359 162.272L206.026 168.356L208.974 172.394ZM225.641 160.228L233.974 154.144L231.026 150.106L222.693 156.189L225.641 160.228ZM242.307 148.061L246.474 145.019L243.526 140.981L239.359 144.022L242.307 148.061Z" fill="white"/>
<path d="M153.641 317.022C154.756 317.837 155 319.401 154.186 320.516C153.372 321.631 151.808 321.875 150.693 321.061L153.641 317.022ZM159.026 327.144C157.911 326.33 157.667 324.766 158.481 323.651C159.295 322.536 160.859 322.292 161.974 323.106L159.026 327.144ZM170.307 329.189C171.423 330.003 171.667 331.567 170.853 332.682C170.038 333.798 168.474 334.042 167.359 333.228L170.307 329.189ZM175.693 339.311C174.577 338.497 174.333 336.933 175.147 335.818C175.962 334.702 177.526 334.458 178.641 335.272L175.693 339.311ZM186.974 341.356C188.089 342.17 188.333 343.734 187.519 344.849C186.705 345.964 185.141 346.208 184.026 345.394L186.974 341.356ZM192.359 351.478C191.244 350.663 191 349.099 191.814 347.984C192.628 346.869 194.192 346.625 195.307 347.439L192.359 351.478ZM203.641 353.522C204.756 354.337 205 355.901 204.186 357.016C203.372 358.131 201.808 358.375 200.693 357.561L203.641 353.522ZM209.026 363.644C207.911 362.83 207.667 361.266 208.481 360.151C209.295 359.036 210.859 358.792 211.974 359.606L209.026 363.644ZM220.307 365.689C221.423 366.503 221.667 368.067 220.853 369.182C220.038 370.298 218.474 370.542 217.359 369.728L220.307 365.689ZM225.693 375.811C224.577 374.997 224.333 373.433 225.147 372.318C225.962 371.202 227.526 370.958 228.641 371.772L225.693 375.811ZM236.974 377.856C238.089 378.67 238.333 380.234 237.519 381.349C236.705 382.464 235.141 382.708 234.026 381.894L236.974 377.856ZM242.359 387.978C241.244 387.163 241 385.599 241.814 384.484C242.628 383.369 244.192 383.125 245.307 383.939L242.359 387.978ZM149.474 313.981L153.641 317.022L150.693 321.061L146.526 318.019L149.474 313.981ZM161.974 323.106L170.307 329.189L167.359 333.228L159.026 327.144L161.974 323.106ZM178.641 335.272L186.974 341.356L184.026 345.394L175.693 339.311L178.641 335.272ZM195.307 347.439L203.641 353.522L200.693 357.561L192.359 351.478L195.307 347.439ZM211.974 359.606L220.307 365.689L217.359 369.728L209.026 363.644L211.974 359.606ZM228.641 371.772L236.974 377.856L234.026 381.894L225.693 375.811L228.641 371.772ZM245.307 383.939L249.474 386.981L246.526 391.019L242.359 387.978L245.307 383.939Z" fill="white"/>
</svg>
