<svg  viewBox="0 0 80 79" fill="none" xmlns="http://www.w3.org/2000/svg">
<path fill-rule="evenodd" clip-rule="evenodd" d="M50.7616 78.5357C67.6261 73.8361 80 58.363 80 40C80 17.9086 62.0914 0 40 0C17.9086 0 0 17.9086 0 40C0 58.0742 11.9877 73.3486 28.4461 78.306C29.8455 77.2967 29.7961 72.5557 29.3516 69C23.3516 70 18.3516 69 16.3516 65C14.3516 61 13.8516 60.5 11.8514 58.5C10.6847 58 9.35159 56.9001 10.3517 56.5C12.8517 55.4998 16.3516 56.5 18.8516 61.5C21.8516 65.5 25.8516 65 29.8516 63.5C29.4407 61.4463 30.4922 59.955 31.3427 58.7488C31.5275 58.4867 31.7029 58.238 31.8516 58C28.3516 58 18.8514 56.5 15.3516 47.5C12.3516 40.5 13.8517 32.5 17.8517 27.5C16.4104 23.1763 17.4309 19.9296 18.2523 17.3164C18.2857 17.2099 18.3189 17.1044 18.3515 17C22.0904 17 24.7936 18.4957 27.6086 20.0532C28.1817 20.3702 28.7595 20.6899 29.3516 21C39.8515 18.5 49.3516 21 49.3516 21C49.7318 20.8099 50.1842 20.5475 50.7021 20.2472C52.9085 18.9678 56.3021 17 60.3517 17C62.496 23.4332 61.4585 25.8561 60.958 27.0248C60.7583 27.4912 60.6441 27.7579 60.8517 28C60.9518 28.1168 61.0504 28.2313 61.1474 28.3441C63.9591 31.6107 65.4708 33.3671 64.3516 44C63.3516 53.5 53.8516 58 46.8516 58C46.8516 58 46.3516 57.7 48.3516 60.5C49.5094 62.1209 49.3803 65.9938 49.2556 69.7349C49.1111 74.0718 48.9725 78.2316 50.8516 78.5C50.8216 78.512 50.7916 78.5239 50.7616 78.5357Z" fill="black"/>
</svg>
