<svg viewBox="0 0 173 174" fill="none" xmlns="http://www.w3.org/2000/svg">
<circle cx="86.4791" cy="86.6652" r="86.4791" fill="#3D405B"/>
<path d="M83.3248 99.9532C83.8629 101.77 83.918 103.151 83.7431 104.376C83.5611 105.651 83.1164 106.878 82.4642 108.449C82.3474 108.731 82.2256 109.019 82.1005 109.316C81.2787 111.263 80.3089 113.561 79.5975 116.565C77.1114 114.015 74.7995 112.523 72.8616 111.272C72.7448 111.197 72.6294 111.122 72.5154 111.048C71.0725 110.114 70.043 109.405 69.2028 108.501C68.4097 107.646 67.7126 106.532 67.1803 104.735C66.0392 100.882 66.0999 97.1864 66.9957 94.3651C67.8967 91.5277 69.5271 89.8367 71.3852 89.2864C73.2433 88.7361 75.5315 89.2664 77.8324 91.1555C80.1202 93.0339 82.1837 96.1006 83.3248 99.9532Z" stroke="white" stroke-width="5"/>
<rect x="52.5502" y="37.792" width="7.22243" height="53.7943" rx="2.5" transform="rotate(-16.4981 52.5502 37.792)" stroke="white" stroke-width="5"/>
<line x1="75.9119" y1="101.852" x2="79.4113" y2="113.667" stroke="white" stroke-width="4"/>
<ellipse cx="75.2301" cy="102.104" rx="2.44449" ry="2.34717" transform="rotate(-16.4981 75.2301 102.104)" fill="white"/>
<path d="M49.9266 82.1343L29.926 120.082C28.9755 121.886 30.0619 124.091 32.071 124.437L116.149 138.913C117.463 139.139 118.768 138.472 119.354 137.274L142.899 89.099C143.777 87.3018 142.684 85.1646 140.713 84.8252L88.7923 75.8861" stroke="white" stroke-width="5" stroke-linecap="round"/>
<path d="M84.2201 126.588C89.3006 117.237 98.1915 104.186 97.3448 123.238C98.1915 134.246 103.357 123.709 108.776 108.806C115.55 90.1775 126.134 88.0607 119.784 115.157" stroke="white" stroke-width="5" stroke-linecap="round"/>
</svg>
