<svg  viewBox="0 0 80 80" fill="none" xmlns="http://www.w3.org/2000/svg">
<circle cx="40" cy="40" r="40" fill="#3987CA"/>
<path d="M22.415 17.2C23.625 17.2 24.67 17.4933 25.55 18.08C26.43 18.63 26.87 19.675 26.87 21.215C26.87 22.7183 26.43 23.7633 25.55 24.35C24.67 24.9367 23.625 25.23 22.415 25.23C21.1683 25.23 20.105 24.9367 19.225 24.35C18.3816 23.7633 17.96 22.7183 17.96 21.215C17.96 19.675 18.3816 18.63 19.225 18.08C20.105 17.4933 21.1683 17.2 22.415 17.2ZM26.485 28.97V59H18.29V28.97H26.485Z" fill="white"/>
<path d="M52.0978 28.42C55.3244 28.42 57.9094 29.3 59.8528 31.06C61.7961 32.7833 62.7678 35.57 62.7678 39.42V59H54.5728V41.455C54.5728 39.2917 54.1878 37.6783 53.4178 36.615C52.6478 35.515 51.4194 34.965 49.7328 34.965C47.2394 34.965 45.5344 35.8267 44.6178 37.55C43.7011 39.2367 43.2428 41.675 43.2428 44.865V59H35.0478V28.97H41.3178L42.4178 32.82H42.8578C43.8111 31.28 45.1128 30.1617 46.7628 29.465C48.4494 28.7683 50.2278 28.42 52.0978 28.42Z" fill="white"/>
</svg>
