<svg width="55" height="87" viewBox="0 0 55 87" fill="none" xmlns="http://www.w3.org/2000/svg">
<rect x="1.5" y="1.5" width="52" height="49.9909" rx="1.5" stroke="#3D405B" stroke-width="3"/>
<path d="M17.5 53.6182C17.5 52.7897 18.1716 52.1182 19 52.1182H35C35.8284 52.1182 36.5 52.7897 36.5 53.6182V82C36.5 83.933 34.933 85.5 33 85.5H21C19.067 85.5 17.5 83.933 17.5 82V53.6182Z" stroke="#3D405B" stroke-width="3"/>
<rect x="6.5" y="7.82727" width="41" height="5.7" rx="1.5" stroke="#3D405B" stroke-width="3"/>
<rect x="13" y="31.0546" width="29" height="13.8182" rx="2" stroke="#3D405B" stroke-width="2"/>
<path d="M14 31.6364C17.24 34.3864 21.74 40.3364 27.68 40.3364C32.7488 40.3364 41 31.6364 41 31.6364" stroke="#3D405B" stroke-width="2" stroke-linecap="round"/>
<path d="M21 37.9636L14 44.2909" stroke="#3D405B" stroke-width="2" stroke-linecap="round"/>
<path d="M34 37.9636L41 44.2909" stroke="#3D405B" stroke-width="2" stroke-linecap="round"/>
</svg>
