<svg viewBox="0 0 689 180" fill="none" xmlns="http://www.w3.org/2000/svg">
<path d="M5.05882 98.5C6.43954 98.5 7.55882 97.3807 7.55882 96C7.55882 94.6193 6.43954 93.5 5.05882 93.5V98.5ZM15.1765 93.5C13.7958 93.5 12.6765 94.6193 12.6765 96C12.6765 97.3807 13.7958 98.5 15.1765 98.5V93.5ZM25.2941 98.5C26.6748 98.5 27.7941 97.3807 27.7941 96C27.7941 94.6193 26.6748 93.5 25.2941 93.5V98.5ZM35.4118 93.5C34.0311 93.5 32.9118 94.6193 32.9118 96C32.9118 97.3807 34.0311 98.5 35.4118 98.5V93.5ZM45.5294 98.5C46.9101 98.5 48.0294 97.3807 48.0294 96C48.0294 94.6193 46.9101 93.5 45.5294 93.5V98.5ZM55.6471 93.5C54.2663 93.5 53.1471 94.6193 53.1471 96C53.1471 97.3807 54.2663 98.5 55.6471 98.5V93.5ZM65.7647 98.5C67.1454 98.5 68.2647 97.3807 68.2647 96C68.2647 94.6193 67.1454 93.5 65.7647 93.5V98.5ZM75.8823 93.5C74.5016 93.5 73.3823 94.6193 73.3823 96C73.3823 97.3807 74.5016 98.5 75.8823 98.5V93.5ZM86 98.5C87.3807 98.5 88.5 97.3807 88.5 96C88.5 94.6193 87.3807 93.5 86 93.5V98.5ZM96.1176 93.5C94.7369 93.5 93.6176 94.6193 93.6176 96C93.6176 97.3807 94.7369 98.5 96.1176 98.5V93.5ZM106.235 98.5C107.616 98.5 108.735 97.3807 108.735 96C108.735 94.6193 107.616 93.5 106.235 93.5V98.5ZM116.353 93.5C114.972 93.5 113.853 94.6193 113.853 96C113.853 97.3807 114.972 98.5 116.353 98.5V93.5ZM126.471 98.5C127.851 98.5 128.971 97.3807 128.971 96C128.971 94.6193 127.851 93.5 126.471 93.5V98.5ZM136.588 93.5C135.208 93.5 134.088 94.6193 134.088 96C134.088 97.3807 135.208 98.5 136.588 98.5V93.5ZM146.706 98.5C148.087 98.5 149.206 97.3807 149.206 96C149.206 94.6193 148.087 93.5 146.706 93.5V98.5ZM156.824 93.5C155.443 93.5 154.324 94.6193 154.324 96C154.324 97.3807 155.443 98.5 156.824 98.5V93.5ZM166.941 98.5C168.322 98.5 169.441 97.3807 169.441 96C169.441 94.6193 168.322 93.5 166.941 93.5V98.5ZM177.059 93.5C175.678 93.5 174.559 94.6193 174.559 96C174.559 97.3807 175.678 98.5 177.059 98.5V93.5ZM187.176 98.5C188.557 98.5 189.676 97.3807 189.676 96C189.676 94.6193 188.557 93.5 187.176 93.5V98.5ZM197.294 93.5C195.913 93.5 194.794 94.6193 194.794 96C194.794 97.3807 195.913 98.5 197.294 98.5V93.5ZM207.412 98.5C208.792 98.5 209.912 97.3807 209.912 96C209.912 94.6193 208.792 93.5 207.412 93.5V98.5ZM217.529 93.5C216.149 93.5 215.029 94.6193 215.029 96C215.029 97.3807 216.149 98.5 217.529 98.5V93.5ZM227.647 98.5C229.028 98.5 230.147 97.3807 230.147 96C230.147 94.6193 229.028 93.5 227.647 93.5V98.5ZM237.765 93.5C236.384 93.5 235.265 94.6193 235.265 96C235.265 97.3807 236.384 98.5 237.765 98.5V93.5ZM247.882 98.5C249.263 98.5 250.382 97.3807 250.382 96C250.382 94.6193 249.263 93.5 247.882 93.5V98.5ZM258 93.5C256.619 93.5 255.5 94.6193 255.5 96C255.5 97.3807 256.619 98.5 258 98.5V93.5ZM268.118 98.5C269.498 98.5 270.618 97.3807 270.618 96C270.618 94.6193 269.498 93.5 268.118 93.5V98.5ZM278.235 93.5C276.855 93.5 275.735 94.6193 275.735 96C275.735 97.3807 276.855 98.5 278.235 98.5V93.5ZM288.353 98.5C289.734 98.5 290.853 97.3807 290.853 96C290.853 94.6193 289.734 93.5 288.353 93.5V98.5ZM298.471 93.5C297.09 93.5 295.971 94.6193 295.971 96C295.971 97.3807 297.09 98.5 298.471 98.5V93.5ZM308.588 98.5C309.969 98.5 311.088 97.3807 311.088 96C311.088 94.6193 309.969 93.5 308.588 93.5V98.5ZM318.706 93.5C317.325 93.5 316.206 94.6193 316.206 96C316.206 97.3807 317.325 98.5 318.706 98.5V93.5ZM328.823 98.5C330.204 98.5 331.323 97.3807 331.323 96C331.323 94.6193 330.204 93.5 328.823 93.5V98.5ZM338.941 93.5C337.56 93.5 336.441 94.6193 336.441 96C336.441 97.3807 337.56 98.5 338.941 98.5V93.5ZM349.059 98.5C350.439 98.5 351.559 97.3807 351.559 96C351.559 94.6193 350.439 93.5 349.059 93.5V98.5ZM359.176 93.5C357.796 93.5 356.676 94.6193 356.676 96C356.676 97.3807 357.796 98.5 359.176 98.5V93.5ZM369.294 98.5C370.675 98.5 371.794 97.3807 371.794 96C371.794 94.6193 370.675 93.5 369.294 93.5V98.5ZM379.412 93.5C378.031 93.5 376.912 94.6193 376.912 96C376.912 97.3807 378.031 98.5 379.412 98.5V93.5ZM389.529 98.5C390.91 98.5 392.029 97.3807 392.029 96C392.029 94.6193 390.91 93.5 389.529 93.5V98.5ZM399.647 93.5C398.266 93.5 397.147 94.6193 397.147 96C397.147 97.3807 398.266 98.5 399.647 98.5V93.5ZM409.765 98.5C411.145 98.5 412.265 97.3807 412.265 96C412.265 94.6193 411.145 93.5 409.765 93.5V98.5ZM419.882 93.5C418.502 93.5 417.382 94.6193 417.382 96C417.382 97.3807 418.502 98.5 419.882 98.5V93.5ZM430 98.5C431.381 98.5 432.5 97.3807 432.5 96C432.5 94.6193 431.381 93.5 430 93.5V98.5ZM440.118 93.5C438.737 93.5 437.618 94.6193 437.618 96C437.618 97.3807 438.737 98.5 440.118 98.5V93.5ZM450.235 98.5C451.616 98.5 452.735 97.3807 452.735 96C452.735 94.6193 451.616 93.5 450.235 93.5V98.5ZM460.353 93.5C458.972 93.5 457.853 94.6193 457.853 96C457.853 97.3807 458.972 98.5 460.353 98.5V93.5ZM470.471 98.5C471.851 98.5 472.971 97.3807 472.971 96C472.971 94.6193 471.851 93.5 470.471 93.5V98.5ZM480.588 93.5C479.207 93.5 478.088 94.6193 478.088 96C478.088 97.3807 479.207 98.5 480.588 98.5V93.5ZM490.706 98.5C492.087 98.5 493.206 97.3807 493.206 96C493.206 94.6193 492.087 93.5 490.706 93.5V98.5ZM500.823 93.5C499.443 93.5 498.323 94.6193 498.323 96C498.323 97.3807 499.443 98.5 500.823 98.5V93.5ZM510.941 98.5C512.322 98.5 513.441 97.3807 513.441 96C513.441 94.6193 512.322 93.5 510.941 93.5V98.5ZM521.059 93.5C519.678 93.5 518.559 94.6193 518.559 96C518.559 97.3807 519.678 98.5 521.059 98.5V93.5ZM531.176 98.5C532.557 98.5 533.676 97.3807 533.676 96C533.676 94.6193 532.557 93.5 531.176 93.5V98.5ZM541.294 93.5C539.913 93.5 538.794 94.6193 538.794 96C538.794 97.3807 539.913 98.5 541.294 98.5V93.5ZM551.412 98.5C552.793 98.5 553.912 97.3807 553.912 96C553.912 94.6193 552.793 93.5 551.412 93.5V98.5ZM561.529 93.5C560.149 93.5 559.029 94.6193 559.029 96C559.029 97.3807 560.149 98.5 561.529 98.5V93.5ZM571.647 98.5C573.028 98.5 574.147 97.3807 574.147 96C574.147 94.6193 573.028 93.5 571.647 93.5V98.5ZM581.765 93.5C580.384 93.5 579.265 94.6193 579.265 96C579.265 97.3807 580.384 98.5 581.765 98.5V93.5ZM591.883 98.5C593.263 98.5 594.383 97.3807 594.383 96C594.383 94.6193 593.263 93.5 591.883 93.5V98.5ZM602 93.5C600.619 93.5 599.5 94.6193 599.5 96C599.5 97.3807 600.619 98.5 602 98.5V93.5ZM612.118 98.5C613.499 98.5 614.618 97.3807 614.618 96C614.618 94.6193 613.499 93.5 612.118 93.5V98.5ZM622.236 93.5C620.855 93.5 619.736 94.6193 619.736 96C619.736 97.3807 620.855 98.5 622.236 98.5V93.5ZM632.353 98.5C633.734 98.5 634.853 97.3807 634.853 96C634.853 94.6193 633.734 93.5 632.353 93.5V98.5ZM642.471 93.5C641.09 93.5 639.971 94.6193 639.971 96C639.971 97.3807 641.09 98.5 642.471 98.5V93.5ZM652.589 98.5C653.969 98.5 655.089 97.3807 655.089 96C655.089 94.6193 653.969 93.5 652.589 93.5V98.5ZM662.706 93.5C661.326 93.5 660.206 94.6193 660.206 96C660.206 97.3807 661.326 98.5 662.706 98.5V93.5ZM672.824 98.5C674.205 98.5 675.324 97.3807 675.324 96C675.324 94.6193 674.205 93.5 672.824 93.5V98.5ZM682.942 93.5C681.561 93.5 680.442 94.6193 680.442 96C680.442 97.3807 681.561 98.5 682.942 98.5V93.5ZM0 98.5H5.05882V93.5H0V98.5ZM15.1765 98.5H25.2941V93.5H15.1765V98.5ZM35.4118 98.5H45.5294V93.5H35.4118V98.5ZM55.6471 98.5H65.7647V93.5H55.6471V98.5ZM75.8823 98.5H86V93.5H75.8823V98.5ZM96.1176 98.5H106.235V93.5H96.1176V98.5ZM116.353 98.5H126.471V93.5H116.353V98.5ZM136.588 98.5H146.706V93.5H136.588V98.5ZM156.824 98.5H166.941V93.5H156.824V98.5ZM177.059 98.5H187.176V93.5H177.059V98.5ZM197.294 98.5H207.412V93.5H197.294V98.5ZM217.529 98.5H227.647V93.5H217.529V98.5ZM237.765 98.5H247.882V93.5H237.765V98.5ZM258 98.5H268.118V93.5H258V98.5ZM278.235 98.5H288.353V93.5H278.235V98.5ZM298.471 98.5H308.588V93.5H298.471V98.5ZM318.706 98.5H328.823V93.5H318.706V98.5ZM338.941 98.5H349.059V93.5H338.941V98.5ZM359.176 98.5H369.294V93.5H359.176V98.5ZM379.412 98.5H389.529V93.5H379.412V98.5ZM399.647 98.5H409.765V93.5H399.647V98.5ZM419.882 98.5H430V93.5H419.882V98.5ZM440.118 98.5H450.235V93.5H440.118V98.5ZM460.353 98.5H470.471V93.5H460.353V98.5ZM480.588 98.5H490.706V93.5H480.588V98.5ZM500.823 98.5H510.941V93.5H500.823V98.5ZM521.059 98.5H531.176V93.5H521.059V98.5ZM541.294 98.5H551.412V93.5H541.294V98.5ZM561.529 98.5H571.647V93.5H561.529V98.5ZM581.765 98.5H591.883V93.5H581.765V98.5ZM602 98.5H612.118V93.5H602V98.5ZM622.236 98.5H632.353V93.5H622.236V98.5ZM642.471 98.5H652.589V93.5H642.471V98.5ZM662.706 98.5H672.824V93.5H662.706V98.5ZM682.942 98.5H688V93.5H682.942V98.5Z" fill="white"/>
<circle cx="345" cy="90" r="90" fill="white"/>
<path d="M369.169 111.346L377.521 148.334C377.937 150.177 376.566 151.942 374.676 151.993L361.5 152.352M361.5 152.352L324.549 153.358C322.702 153.409 321.249 151.794 321.493 149.963L326.138 115.167C326.357 113.525 327.866 112.372 329.508 112.59L356.574 116.195C357.986 116.383 359.071 117.539 359.17 118.96L361.5 152.352Z" stroke="#3D405B" stroke-width="5" stroke-linecap="round"/>
<path fill-rule="evenodd" clip-rule="evenodd" d="M379.51 88.254C377.336 82.7089 375.229 77.3342 376.041 73.3232C378.891 59.2465 365.191 41.6775 346.449 43.133C327.708 44.5885 313.653 60.2255 315.057 78.0592C315.406 82.4958 313.975 87.2743 312.598 91.8747C308.439 105.767 304.766 118.035 352.057 114.363C390.844 117.158 384.967 102.17 379.51 88.254ZM327.964 72.5468L363.88 72.5743C365.122 72.5753 366.245 73.3347 366.628 74.5174C371.435 89.3645 369.686 113.206 345.963 112.106C322.719 111.029 323.563 89.1888 324.991 75.2162C325.147 73.6948 326.434 72.5457 327.964 72.5468Z" fill="#3D405B"/>
<path d="M328.962 22.7714C326.387 22.0358 322.751 21.858 321.759 26.1873C320.824 30.2672 322.86 32.3528 324.683 33.3766C325.984 34.1071 327.077 35.393 327.036 36.8846L326.649 50.9007C326.585 53.2191 329.065 54.7404 331.164 53.7536C338.328 50.3859 348.937 46.8639 357.659 50.835C360.096 51.9441 363.644 50.4768 363.718 47.801L364.057 35.5207C364.094 34.1616 365.057 33.0082 366.26 32.3751C368.618 31.1348 371.676 28.3351 368.462 22.781C366.089 18.6802 362.679 19.2482 359.843 20.864C357.578 22.1552 353.767 21.0946 352.449 18.8447C350.801 16.0331 348.008 13.5213 343.365 14.3C338.232 15.161 335.768 17.4195 333.178 21.3759C332.292 22.7297 330.517 23.2159 328.962 22.7714Z" stroke="#3D405B" stroke-width="5" stroke-linecap="round"/>
<path d="M382.944 127.32L393.901 93.6788C394.28 92.5152 393.915 91.2375 392.971 90.4583C391.11 88.9215 388.49 86.7927 386.581 85.3494C384.287 83.6143 388.744 70.2405 391.993 61.8384C392.556 60.382 394.156 59.6307 395.646 60.0976L419.855 67.6824C421.475 68.1899 422.353 69.9359 421.784 71.5353C419.473 78.0314 415.809 88.1233 414.02 92.3048C412.42 96.0459 407.342 95.7005 403.37 94.5921C401.632 94.107 399.713 94.9852 399.196 96.7144L389.428 129.402C388.927 131.081 387.1 131.974 385.467 131.34L384.71 131.045C383.226 130.469 382.451 128.834 382.944 127.32Z" stroke="#3D405B" stroke-width="5" stroke-linecap="round"/>
<path d="M293.645 118.873L291.873 87.5657C291.863 87.3825 291.839 87.1643 291.985 87.0529C292.345 86.7775 293.691 87.3194 298.58 97.2429C302.416 105.028 300.637 113.648 298.166 119.863C297.11 122.517 293.807 121.725 293.645 118.873Z" fill="#3D405B" stroke="#3D405B" stroke-width="3" stroke-linecap="round"/>
<path d="M293.09 121.042L276.488 94.4397C276.391 94.284 276.285 94.0922 276.101 94.0852C275.648 94.068 274.861 95.2868 276.587 106.214C277.942 114.786 284.366 120.803 289.968 124.456C292.36 126.017 294.603 123.465 293.09 121.042Z" fill="#3D405B" stroke="#3D405B" stroke-width="3" stroke-linecap="round"/>
<path d="M281.638 141.474C275.449 133.279 282.787 126.548 289.303 123.067C291.02 122.15 293.015 123.332 293.263 125.262L295.857 145.407C295.955 146.174 295.778 146.981 295.178 147.469C292.897 149.325 288.048 149.96 281.638 141.474Z" stroke="#3D405B" stroke-width="5" stroke-linecap="round"/>
<path d="M313.883 130.616C314.78 120.335 304.876 118.786 297.473 119.487C295.554 119.668 294.533 121.719 295.35 123.465L303.876 141.684C304.211 142.4 304.811 142.995 305.597 143.069C308.526 143.345 312.959 141.186 313.883 130.616Z" stroke="#3D405B" stroke-width="5" stroke-linecap="round"/>
<circle cx="352" cy="124.018" r="2" fill="#3D405B"/>
<circle cx="352" cy="134.018" r="2" fill="#3D405B"/>
<circle cx="352" cy="144.018" r="2" fill="#3D405B"/>
<path d="M329 40.0186H364" stroke="#3D405B" stroke-width="3" stroke-linecap="round"/>
<circle cx="91" cy="90" r="90" fill="white"/>
<path d="M125.694 106.197H101.523C99.8659 106.197 98.5228 104.857 98.5228 103.2C98.5228 100.095 98.5228 94.6544 98.5228 86.2297C98.5228 70.3936 103.775 67.6082 105.168 65.1984C106.19 63.4318 104.147 53.0778 101.386 46.5896C100.943 45.5488 99.8998 44.9181 98.7686 44.9181H98.194C96.3532 44.9181 94.9517 43.277 95.3255 41.4746C96.0224 38.1137 97.138 33.7357 98.5228 30.8033C100.196 27.2602 109.334 25.4897 115.564 24.8403C117.144 24.6757 118.379 23.3671 118.379 21.7792V19C118.379 17.3431 119.722 16 121.379 16H129.767" stroke="#3D405B" stroke-width="5" stroke-linecap="round"/>
<path d="M130.054 16V21.7846C130.054 23.3703 131.287 24.6776 132.863 24.8492C138.896 25.5059 147.675 27.2763 149.288 30.8033C150.631 33.7395 151.713 38.1249 152.388 41.4875C152.749 43.2867 151.349 44.9181 149.514 44.9181H149.134C147.989 44.9181 146.936 45.5645 146.503 46.6245C143.854 53.1148 141.99 63.435 142.978 65.1984C144.328 67.6082 149.288 70.3936 149.288 86.2297C149.288 94.6544 149.288 100.095 149.288 103.2C149.288 104.857 147.945 106.197 146.288 106.197H125.668" stroke="#3D405B" stroke-width="5" stroke-linecap="round"/>
<rect x="120.201" y="106.197" width="7.28865" height="38.2654" rx="3" fill="#3D405B"/>
<path d="M104.257 46.9766C110.635 43.1804 136.601 43.7879 144.8 46.9765" stroke="#3D405B" stroke-width="3" stroke-linecap="round"/>
<path d="M104.713 65.1982H141.156" stroke="#3D405B" stroke-width="3" stroke-linecap="round"/>
<path d="M100.157 85.2422H147.989" stroke="#3D405B" stroke-width="3" stroke-linecap="round"/>
<path d="M109.268 27.844C111.09 31.4883 114.735 39.9614 114.735 44.699C114.735 49.4366 114.735 87.9753 114.735 106.652" stroke="#3D405B" stroke-width="3" stroke-linecap="round"/>
<path d="M137.512 26.9329C135.689 30.5772 132.045 39.0502 132.045 43.7879C132.045 48.5255 132.045 87.0642 132.045 105.741" stroke="#3D405B" stroke-width="3" stroke-linecap="round"/>
<path d="M117.923 24.6553C119.442 26.1737 124.21 28.2996 131.134 24.6553" stroke="#3D405B" stroke-width="3" stroke-linecap="round"/>
<path d="M107.09 141.305C107.64 140.435 108.598 139.907 109.627 139.907L140.105 139.907C142.296 139.907 143.748 142.18 142.827 144.168L140.542 149.101C140.051 150.161 138.989 150.84 137.82 150.84H106.511C104.149 150.84 102.713 148.236 103.975 146.238L107.09 141.305Z" fill="#3D405B"/>
<path d="M106.536 82.2328L85.0479 96.476C84.1505 97.0708 83.6407 98.1008 83.7119 99.175L84.1359 105.569C84.3006 108.053 87.2436 109.267 89.1118 107.622L110.877 88.4587C111.883 87.573 112.18 86.1274 111.604 84.9173L110.902 83.4436C110.117 81.7963 108.056 81.2248 106.536 82.2328Z" fill="white" stroke="#3D405B" stroke-width="5" stroke-linecap="round"/>
<path d="M93.0625 61.3214L75.072 79.7859C74.3207 80.557 73.2138 80.8664 72.1716 80.5966L65.9679 78.991C63.5583 78.3674 62.9124 75.2498 64.8759 73.7201L87.7526 55.8977C88.81 55.074 90.2854 55.0516 91.3673 55.8428L92.6848 56.8064C94.1575 57.8834 94.3358 60.0147 93.0625 61.3214Z" fill="white" stroke="#3D405B" stroke-width="5" stroke-linecap="round"/>
<path d="M26.1421 136.751L38.6754 106.108C39.2004 104.824 40.5366 104.068 41.9072 104.278L76.4024 109.572C77.7949 109.786 78.8512 110.939 78.9412 112.345L80.7722 140.941C80.888 142.749 79.3871 144.246 77.5794 144.126L28.72 140.88C26.6766 140.744 25.3669 138.646 26.1421 136.751Z" stroke="#3D405B" stroke-width="5" stroke-linecap="round"/>
<path d="M90.8504 76.5698C85.9637 88.8633 111.026 122.208 62.3552 109.869C4.33312 104.09 33.0093 87.3594 34.6415 70.9715C36.2738 54.5835 51.6004 42.6932 68.8745 44.4136C86.1486 46.1341 95.7372 64.2763 90.8504 76.5698Z" fill="#3D405B"/>
<circle cx="599" cy="90" r="90" fill="white"/>
<path d="M587.848 33.9078L537.972 47.2077C536.635 47.5641 535.716 48.7883 535.746 50.1713L536.735 95.8855C536.78 97.9782 538.9 99.3824 540.845 98.6075L590.175 78.946C591.327 78.4867 592.078 77.3657 592.064 76.1254L591.621 36.7727C591.599 34.8157 589.739 33.4035 587.848 33.9078Z" stroke="#3D405B" stroke-width="5" stroke-linecap="round"/>
<path d="M579.87 43.5825L547.309 52.9558C546.013 53.3291 545.125 54.5225 545.14 55.8719L545.482 86.7901C545.506 88.9253 547.69 90.3529 549.655 89.5181L581.904 75.8205C583.013 75.3494 583.733 74.2606 583.731 73.0557L583.7 46.462C583.698 44.4678 581.787 43.0309 579.87 43.5825Z" stroke="#3D405B" stroke-width="3" stroke-linecap="round"/>
<path d="M536.867 99.2753L567.43 126.277C568.337 127.079 569.637 127.256 570.726 126.728L614.469 105.503C616.32 104.605 616.738 102.151 615.288 100.69L592.306 77.5434" stroke="#3D405B" stroke-width="5" stroke-linecap="round"/>
<path d="M591.408 92.1629L596.197 89.8111" stroke="#3D405B" stroke-width="4" stroke-linecap="round"/>
<path d="M563.506 115.245L568.296 112.893" stroke="#3D405B" stroke-width="4" stroke-linecap="round"/>
<path d="M600.859 100.195L602.637 99.3542" stroke="#3D405B" stroke-width="3" stroke-linecap="round"/>
<path d="M598.869 104.455L600.647 103.614" stroke="#3D405B" stroke-width="3" stroke-linecap="round"/>
<path d="M606.142 101.105L607.92 100.265" stroke="#3D405B" stroke-width="3" stroke-linecap="round"/>
<path d="M604.152 105.365L605.93 104.525" stroke="#3D405B" stroke-width="3" stroke-linecap="round"/>
<path d="M572.71 111.723L595.551 100.595" stroke="#3D405B" stroke-width="3" stroke-linecap="round"/>
<path d="M561.107 110.456L591.235 96.5037" stroke="#3D405B" stroke-width="3" stroke-linecap="round"/>
<path d="M555.754 106.917L585.896 93.491" stroke="#3D405B" stroke-width="3" stroke-linecap="round"/>
<path d="M554.576 102.216L584.704 88.2642" stroke="#3D405B" stroke-width="3" stroke-linecap="round"/>
<path d="M576.004 116.894L595.72 106.901" stroke="#3D405B" stroke-width="4" stroke-linecap="round"/>
<path d="M654.577 121.345L654.691 159.425L605.277 155.049L610.419 130.483L587.861 121.345L589.271 114.505L600.221 116.532L616.196 117.008L617.468 109.805M654.577 121.345L617.468 109.805M654.577 121.345L607.129 91.4765L602.916 97.3479L617.468 109.805" stroke="#3D405B" stroke-width="5" stroke-linejoin="round"/>
<path d="M662.657 64.6169C650.511 48.8001 612.432 57.8006 611.976 74.1949C610.871 113.938 603.809 115.803 603.809 115.803C619.447 119.18 676.824 129.241 668.936 117.088C658.616 101.189 677.838 84.388 662.657 64.6169Z" fill="#3D405B" stroke="#3D405B"/>
<path d="M619.692 116.214C611.85 115.519 608.959 103.598 612.399 95.1492C614.944 88.9003 611.955 77.6792 615.16 77.4651C618.365 77.2509 627.74 76.8903 636.89 79.3894C640.329 80.3286 640.051 79.6694 639.264 88.5639C639.493 121.951 622.853 116.494 619.692 116.214Z" fill="white"/>
</svg>
