<svg  viewBox="0 0 222 222" fill="none" xmlns="http://www.w3.org/2000/svg">
<circle cx="111" cy="111" r="111" fill="white"/>
<path d="M135.478 63.1894C134.932 61.3535 134.875 59.957 135.051 58.7169C135.234 57.4271 135.683 56.1869 136.339 54.6004C136.457 54.3161 136.58 54.025 136.706 53.7256C137.537 51.7514 138.518 49.4212 139.234 46.3716C141.754 48.9585 144.097 50.4681 146.06 51.7333C146.178 51.8092 146.295 51.8843 146.41 51.9586C147.867 52.8998 148.908 53.6159 149.759 54.5304C150.563 55.3944 151.269 56.5216 151.808 58.3376C152.964 62.2281 152.906 65.9622 152.003 68.8148C151.095 71.6835 149.447 73.3986 147.563 73.9583C145.679 74.518 143.362 73.981 141.035 72.0735C138.721 70.1768 136.633 67.0799 135.478 63.1894Z" stroke="#3d405b" stroke-width="5"/>
<rect x="166.635" y="125.898" width="7.33354" height="54.3288" rx="2.5" transform="rotate(163.453 166.635 125.898)" stroke="#3d405b" stroke-width="5"/>
<line x1="142.996" y1="61.2553" x2="139.454" y2="49.3355" stroke="#3d405b" stroke-width="4"/>
<ellipse cx="143.666" cy="61.0054" rx="2.46671" ry="2.3685" transform="rotate(163.453 143.666 61.0054)" fill="white"/>
<path d="M158.182 78.7599L178.644 36.4254C179.549 34.5522 178.318 32.3464 176.248 32.1326L72.8637 21.4563C71.5719 21.3229 70.3419 22.0359 69.8161 23.223L45.9763 77.0502C45.1507 78.9141 46.3859 81.043 48.4143 81.2524L112.186 87.8381" stroke="#3d405b" stroke-width="5" stroke-linecap="round"/>
<path d="M128.866 48.6379C117.813 54.1972 100.535 60.9091 113.281 44.0572C119.27 33.5438 107.391 40.1331 92.5298 50.5495C73.9528 63.57 61.7483 59.3435 85.1672 38.3684" stroke="#3d405b" stroke-width="5" stroke-linecap="round"/>
<path d="M161.262 105.425L134.555 126.953C133.717 127.628 133.305 128.701 133.475 129.764L135.113 139.96C135.508 142.418 138.551 143.354 140.259 141.542L167.199 112.958C168.119 111.983 168.279 110.516 167.593 109.365L165.722 106.225C164.787 104.658 162.682 104.28 161.262 105.425Z" fill="white" stroke="#3d405b" stroke-width="5" stroke-linecap="round"/>
<path d="M51.0626 117.058L72.6142 143.746C73.2906 144.584 74.3639 144.995 75.4267 144.823L85.6214 143.176C88.0785 142.779 89.0114 139.735 87.1986 138.029L58.5906 111.114C57.6144 110.196 56.1474 110.036 54.9967 110.723L51.8583 112.598C50.2919 113.533 49.9163 115.639 51.0626 117.058Z" fill="white" stroke="#3d405b" stroke-width="5" stroke-linecap="round"/>
<path d="M64.5781 185.864L77.3817 143.755C77.7851 142.428 79.0452 141.551 80.4294 141.633L126.165 144.343C127.572 144.427 128.731 145.477 128.951 146.869L134.916 184.543C135.199 186.332 133.844 187.962 132.033 188.011L67.5285 189.736C65.4814 189.79 63.9823 187.823 64.5781 185.864Z" stroke="#3d405b" stroke-width="5" stroke-linecap="round"/>
<path d="M139.936 100.691C135.188 116.878 170.96 156.244 107.703 146.346C33.351 145.885 67.7767 121.245 67.9068 100.245C68.0369 79.2444 86.087 62.3314 108.223 62.4685C130.359 62.6057 144.683 84.5034 139.936 100.691Z" fill="#3d405b"/>
</svg>
