<svg width="180" height="180" viewBox="0 0 180 180" fill="none" xmlns="http://www.w3.org/2000/svg">
<circle cx="90" cy="90" r="90" fill="white"/>
<path d="M70.848 33.9077L20.972 47.2076C19.6354 47.5641 18.7158 48.7882 18.7457 50.1712L19.7348 95.8855C19.78 97.9782 21.9004 99.3824 23.8448 98.6074L73.175 78.9459C74.3273 78.4867 75.0781 77.3656 75.0641 76.1253L74.6208 36.7727C74.5987 34.8157 72.739 33.4035 70.848 33.9077Z" stroke="#3D405B" stroke-width="5" stroke-linecap="round"/>
<path d="M62.8703 43.5825L30.3094 52.9558C29.0125 53.3291 28.1245 54.5225 28.1395 55.8719L28.4824 86.7901C28.506 88.9253 30.6896 90.3529 32.655 89.5181L64.9039 75.8205C66.0129 75.3494 66.7325 74.2606 66.7311 73.0557L66.7001 46.462C66.6978 44.4678 64.7866 43.0309 62.8703 43.5825Z" stroke="#3D405B" stroke-width="3" stroke-linecap="round"/>
<path d="M19.8676 99.2755L50.4298 126.277C51.3369 127.079 52.6368 127.257 53.7258 126.728L97.4686 105.503C99.3204 104.605 99.738 102.151 98.2879 100.69L75.3062 77.5436" stroke="#3D405B" stroke-width="5" stroke-linecap="round"/>
<path d="M74.4077 92.1629L79.1971 89.8111" stroke="#3D405B" stroke-width="4" stroke-linecap="round"/>
<path d="M46.5063 115.245L51.2958 112.893" stroke="#3D405B" stroke-width="4" stroke-linecap="round"/>
<path d="M83.8587 100.195L85.637 99.3542" stroke="#3D405B" stroke-width="3" stroke-linecap="round"/>
<path d="M81.8689 104.455L83.6472 103.614" stroke="#3D405B" stroke-width="3" stroke-linecap="round"/>
<path d="M89.1419 101.105L90.9202 100.265" stroke="#3D405B" stroke-width="3" stroke-linecap="round"/>
<path d="M87.1522 105.365L88.9304 104.525" stroke="#3D405B" stroke-width="3" stroke-linecap="round"/>
<path d="M55.7103 111.723L78.5515 100.595" stroke="#3D405B" stroke-width="3" stroke-linecap="round"/>
<path d="M44.1072 110.456L74.2351 96.5037" stroke="#3D405B" stroke-width="3" stroke-linecap="round"/>
<path d="M38.7538 106.918L68.8958 93.4911" stroke="#3D405B" stroke-width="3" stroke-linecap="round"/>
<path d="M37.5764 102.216L67.7044 88.2642" stroke="#3D405B" stroke-width="3" stroke-linecap="round"/>
<path d="M59.0037 116.894L78.72 106.901" stroke="#3D405B" stroke-width="4" stroke-linecap="round"/>
<path d="M137.577 121.345L137.691 159.425L88.2767 155.049L93.419 130.483L70.8608 121.345L72.2707 114.505L83.2213 116.532L99.1961 117.008L100.468 109.805M137.577 121.345L100.468 109.805M137.577 121.345L90.1293 91.4765L85.9162 97.3479L100.468 109.805" stroke="#3D405B" stroke-width="5" stroke-linejoin="round"/>
<path d="M145.657 64.617C133.511 48.8001 95.4318 57.8007 94.976 74.1949C93.8711 113.938 86.8091 115.803 86.8091 115.803C102.447 119.18 159.824 129.241 151.936 117.088C141.616 101.189 160.838 84.3881 145.657 64.617Z" fill="#3D405B" stroke="#3D405B"/>
<path d="M102.692 116.214C94.8503 115.519 91.9589 103.598 95.3992 95.1491C97.9436 88.9001 94.9553 77.679 98.1599 77.4649C101.364 77.2507 110.74 76.8902 119.89 79.3892C123.329 80.3284 123.051 79.6692 122.264 88.5638C122.492 121.951 105.853 116.493 102.692 116.214Z" fill="white"/>
</svg>
