<svg width="552" height="460" viewBox="0 0 552 460" fill="none" xmlns="http://www.w3.org/2000/svg">
<rect width="552" height="460" rx="20" fill="#C4C4C4"/>
<g filter="url(#filter0_d_514_2)">
<circle cx="498.214" cy="82.6429" r="24.6429" fill="white"/>
</g>
<path d="M503.495 70.3214C502.908 73.744 494.107 73.744 492.934 70.3214L485.893 74.4286L487.066 81.2738L490.587 79.8768V94.9643H505.842V79.8768L509.362 81.2738L510.536 74.4286L503.495 70.3214Z" fill="black"/>
<g filter="url(#filter1_d_514_2)">
<circle cx="54.6429" cy="82.6429" r="24.6429" fill="white"/>
</g>
<path fill-rule="evenodd" clip-rule="evenodd" d="M46.0178 78.3304L55.2589 72.1697L64.5 78.3304V93.7322H58.3393C58.3393 89.4197 57.7232 86.9554 55.2589 86.9554C52.1786 86.9554 52.1786 89.4197 52.1786 93.7322H46.0178V78.3304ZM59.2802 83.2589C58.2945 82.2732 59.7705 79.3571 60.7973 78.3304C61.6187 79.3571 62.8535 81.6571 62.3606 82.6429C61.7445 83.875 60.5124 84.4911 59.2802 83.2589ZM50.3303 78.3304L47.866 82.0268H50.3303L49.0982 85.7232L52.1785 81.4107L49.7142 80.7946L50.3303 78.3304Z" fill="black"/>
<path d="M43.5536 78.3303L55.2589 70.3214L66.9643 78.3303" stroke="black"/>
<g filter="url(#filter2_d_514_2)">
<circle cx="202.5" cy="279.786" r="24.6429" fill="white"/>
</g>
<path fill-rule="evenodd" clip-rule="evenodd" d="M191.179 273.401C190.626 273.401 190.179 273.849 190.179 274.401V288.083C190.179 288.635 190.626 289.083 191.179 289.083H213.821C214.374 289.083 214.821 288.635 214.821 288.083V274.401C214.821 273.849 214.374 273.401 213.821 273.401H191.179ZM202.5 287.179C205.902 287.179 208.661 284.42 208.661 281.018C208.661 277.615 205.902 274.857 202.5 274.857C199.098 274.857 196.339 277.615 196.339 281.018C196.339 284.42 199.098 287.179 202.5 287.179Z" fill="black"/>
<circle cx="202.5" cy="281.018" r="4.92857" fill="black"/>
<mask id="path-10-inside-1_514_2" fill="white">
<path fill-rule="evenodd" clip-rule="evenodd" d="M212.357 271.161H206.196V274.857H212.357V271.161ZM211.125 272.393H207.429V273.625H211.125V272.393Z"/>
</mask>
<path fill-rule="evenodd" clip-rule="evenodd" d="M212.357 271.161H206.196V274.857H212.357V271.161ZM211.125 272.393H207.429V273.625H211.125V272.393Z" fill="white"/>
<path d="M206.196 271.161V270.161H205.196V271.161H206.196ZM212.357 271.161H213.357V270.161H212.357V271.161ZM206.196 274.857H205.196V275.857H206.196V274.857ZM212.357 274.857V275.857H213.357V274.857H212.357ZM207.429 272.393V271.393H206.429V272.393H207.429ZM211.125 272.393H212.125V271.393H211.125V272.393ZM207.429 273.625H206.429V274.625H207.429V273.625ZM211.125 273.625V274.625H212.125V273.625H211.125ZM206.196 272.161H212.357V270.161H206.196V272.161ZM207.196 274.857V271.161H205.196V274.857H207.196ZM212.357 273.857H206.196V275.857H212.357V273.857ZM211.357 271.161V274.857H213.357V271.161H211.357ZM207.429 273.393H211.125V271.393H207.429V273.393ZM208.429 273.625V272.393H206.429V273.625H208.429ZM211.125 272.625H207.429V274.625H211.125V272.625ZM210.125 272.393V273.625H212.125V272.393H210.125Z" fill="black" mask="url(#path-10-inside-1_514_2)"/>
<g filter="url(#filter3_d_514_2)">
<circle cx="276.429" cy="279.786" r="24.6429" fill="white"/>
</g>
<circle cx="275.812" cy="276.705" r="1.84821" fill="black"/>
<path d="M275.812 276.089L278.893 289.643H272.732L275.812 276.089Z" fill="black"/>
<path d="M273.964 273.625C271.054 274.241 271.054 277.321 273.237 278.554M271.782 271.777C267.416 272.393 267.416 278.554 271.054 280.402M269.599 269.929C265.233 270.545 263.051 278.554 268.871 282.25" stroke="black" stroke-linecap="round"/>
<path d="M277.661 273.625C280.571 274.241 280.571 277.321 278.388 278.554M279.843 271.777C284.209 272.393 284.209 278.554 280.571 280.402M282.026 269.929C286.392 270.545 288.574 278.554 282.754 282.25" stroke="black" stroke-linecap="round"/>
<g filter="url(#filter4_d_514_2)">
<circle cx="424.286" cy="82.6429" r="24.6429" fill="white"/>
</g>
<rect x="413.759" y="72.1161" width="21.0536" height="21.0536" rx="5.0625" stroke="black" stroke-width="1.125"/>
<rect x="421.513" y="74.3259" width="5.54464" height="16.6339" rx="1.125" fill="black"/>
<rect x="415.969" y="85.4152" width="5.54464" height="16.6339" rx="1.125" transform="rotate(-90 415.969 85.4152)" fill="black"/>
<g filter="url(#filter5_d_514_2)">
<circle cx="128.571" cy="378.357" r="24.6429" fill="white"/>
</g>
<rect x="117.547" y="374.661" width="22.0489" height="1.23214" fill="black"/>
<rect x="117.547" y="379.589" width="22.0489" height="1.36277" fill="black"/>
<ellipse cx="128.571" cy="377.741" rx="12.3214" ry="0.616071" fill="black"/>
<path fill-rule="evenodd" clip-rule="evenodd" d="M116.25 373.429C116.25 370.026 121.767 367.268 128.571 367.268C135.376 367.268 140.893 370.026 140.893 373.429H116.25ZM121.773 369.846C122.008 369.846 122.198 369.604 122.198 369.305C122.198 369.007 122.008 368.764 121.773 368.764C121.539 368.764 121.349 369.007 121.349 369.305C121.349 369.604 121.539 369.846 121.773 369.846ZM136.644 369.305C136.644 369.604 136.454 369.846 136.219 369.846C135.985 369.846 135.794 369.604 135.794 369.305C135.794 369.007 135.985 368.764 136.219 368.764C136.454 368.764 136.644 369.007 136.644 369.305ZM131.97 370.927C132.205 370.927 132.395 370.685 132.395 370.387C132.395 370.088 132.205 369.846 131.97 369.846C131.736 369.846 131.546 370.088 131.546 370.387C131.546 370.685 131.736 370.927 131.97 370.927ZM125.597 370.387C125.597 370.685 125.407 370.927 125.172 370.927C124.938 370.927 124.748 370.685 124.748 370.387C124.748 370.088 124.938 369.846 125.172 369.846C125.407 369.846 125.597 370.088 125.597 370.387ZM128.571 369.846C128.806 369.846 128.996 369.604 128.996 369.305C128.996 369.007 128.806 368.764 128.571 368.764C128.337 368.764 128.147 369.007 128.147 369.305C128.147 369.604 128.337 369.846 128.571 369.846Z" fill="black"/>
<path fill-rule="evenodd" clip-rule="evenodd" d="M116.25 382.054C116.25 385.456 121.767 388.214 128.571 388.214C135.376 388.214 140.893 385.456 140.893 382.054H116.25ZM121.773 385.636C122.008 385.636 122.198 385.878 122.198 386.177C122.198 386.476 122.008 386.718 121.773 386.718C121.539 386.718 121.349 386.476 121.349 386.177C121.349 385.878 121.539 385.636 121.773 385.636ZM136.644 386.177C136.644 385.878 136.454 385.636 136.219 385.636C135.985 385.636 135.794 385.878 135.794 386.177C135.794 386.476 135.985 386.718 136.219 386.718C136.454 386.718 136.644 386.476 136.644 386.177ZM131.97 384.555C132.205 384.555 132.395 384.797 132.395 385.096C132.395 385.394 132.205 385.636 131.97 385.636C131.736 385.636 131.546 385.394 131.546 385.096C131.546 384.797 131.736 384.555 131.97 384.555ZM125.597 385.096C125.597 384.797 125.407 384.555 125.172 384.555C124.938 384.555 124.748 384.797 124.748 385.096C124.748 385.394 124.938 385.636 125.172 385.636C125.407 385.636 125.597 385.394 125.597 385.096ZM128.571 385.636C128.806 385.636 128.996 385.878 128.996 386.177C128.996 386.476 128.806 386.718 128.571 386.718C128.337 386.718 128.147 386.476 128.147 386.177C128.147 385.878 128.337 385.636 128.571 385.636Z" fill="black"/>
<g filter="url(#filter6_d_514_2)">
<circle cx="202.5" cy="378.357" r="24.6429" fill="white"/>
</g>
<circle cx="201.862" cy="385.971" r="2.58036" transform="rotate(-32.4626 201.862 385.971)" stroke="black"/>
<circle cx="208.1" cy="382.003" r="2.58036" transform="rotate(-32.4626 208.1 382.003)" stroke="black"/>
<path d="M210.651 382.57L213.589 383.286" stroke="black"/>
<path fill-rule="evenodd" clip-rule="evenodd" d="M201.591 367.319L199.448 367.72L199.731 368.922L200.731 368.709L200.971 369.68L199.96 369.895L200.23 371.045L201.254 370.828L201.494 371.799L200.459 372.018L200.729 373.169L201.777 372.947L202.017 373.917L200.958 374.142L201.228 375.292L202.3 375.065L202.54 376.036L201.457 376.266L201.727 377.416L202.823 377.184L203.063 378.154L201.956 378.389L202.704 381.575L204.99 381.09L201.591 367.319Z" fill="black"/>
<path d="M190.413 373.785L191.508 372.344L203.888 381.907L202.224 383.438L190.413 373.785Z" fill="black"/>
<circle cx="203.658" cy="381.908" r="1.84821" transform="rotate(-32.4626 203.658 381.908)" fill="black"/>
<g filter="url(#filter7_d_514_2)">
<circle cx="498.214" cy="181.214" r="24.6429" fill="white"/>
</g>
<path fill-rule="evenodd" clip-rule="evenodd" d="M500.343 179.052L500.928 175.821L503.095 171.357L499.653 172.154L496.321 176.391L492.727 174.012C489.785 173.124 485.335 175.39 485.951 179.702L494.518 183.337V188.295L497.598 191.071V186.143L498.142 184.874L506.281 188.327L510.593 181.771L505.049 182.167L500.343 179.052Z" fill="black"/>
<g filter="url(#filter8_d_514_2)">
<circle cx="350.357" cy="82.6429" r="24.6429" fill="white"/>
</g>
<path d="M341.638 89.9879C338.186 86.3011 343.355 75.3941 346.952 71.5536C349.829 75.3941 354.153 83.9968 352.427 87.6837C350.269 92.2922 345.953 94.5965 341.638 89.9879Z" fill="black"/>
<path d="M354.509 80.3764C353.128 78.8583 355.196 74.3671 356.634 72.7858C357.785 74.3671 359.515 77.9094 358.824 79.4276C357.961 81.3252 356.235 82.274 354.509 80.3764Z" fill="black"/>
<g filter="url(#filter9_d_514_2)">
<circle cx="498.214" cy="378.357" r="24.6429" fill="white"/>
</g>
<rect x="493.648" y="375.221" width="14.3508" height="3.36039" rx="1" fill="black"/>
<rect x="488.234" y="374.661" width="4.43571" height="3.69643" rx="1" fill="black"/>
<rect x="487.125" y="376.901" width="22.1786" height="6.72078" rx="1" fill="black"/>
<rect x="487.125" y="381.942" width="2.60924" height="5.04058" fill="black"/>
<rect x="506.694" y="381.942" width="2.60924" height="5.04058" fill="black"/>
<line x1="487.625" y1="368.5" x2="487.625" y2="378.581" stroke="black"/>
<g filter="url(#filter10_d_514_2)">
<path d="M522.857 279.786C522.857 293.396 511.824 304.429 498.214 304.429C484.604 304.429 473.571 293.396 473.571 279.786C473.571 266.176 484.604 255.143 498.214 255.143C511.824 255.143 522.857 266.176 522.857 279.786Z" fill="white"/>
</g>
<path d="M488.234 276.283C488.234 275.818 488.611 275.441 489.076 275.441H507.353C507.818 275.441 508.195 275.818 508.195 276.283V289.772H488.234V276.283Z" fill="black"/>
<rect x="489.764" y="270.35" width="7.50747" height="4.08988" rx="0.421053" stroke="black" stroke-width="0.842105"/>
<path fill-rule="evenodd" clip-rule="evenodd" d="M498.736 272.133H497.692V272.976H498.736V272.133ZM507.086 272.976H508.461L508.461 290.033L487.967 290.033L487.967 272.976L487.967 272.976H489.343V272.133H487.967C487.502 272.133 487.125 272.51 487.125 272.976V290.033C487.125 290.498 487.502 290.875 487.967 290.875H508.461C508.927 290.875 509.304 290.498 509.304 290.033V272.976C509.304 272.51 508.927 272.133 508.461 272.133H507.086V272.976Z" fill="black"/>
<rect x="499.157" y="270.35" width="7.50747" height="4.08988" rx="0.421053" stroke="black" stroke-width="0.842105"/>
<g filter="url(#filter11_d_514_2)">
<circle cx="276.429" cy="378.357" r="24.6429" fill="white"/>
</g>
<rect x="278.267" y="378.357" width="1.06221" height="12.3214" fill="black"/>
<rect x="276.14" y="389.652" width="5.31595" height="1.02679" fill="black"/>
<path fill-rule="evenodd" clip-rule="evenodd" d="M273.705 378.293L275.185 380.675L275.332 380.911H275.61H281.989H282.267L282.413 380.675L285.603 375.541L286.078 374.777H285.178H277.169C277.122 375.126 277.031 375.461 276.9 375.777H284.279L281.711 379.911H275.888L274.698 377.996C274.385 378.132 274.052 378.233 273.705 378.293Z" fill="black"/>
<path fill-rule="evenodd" clip-rule="evenodd" d="M274.014 377.426L275.447 380.411H281.477L283.582 377.33H274.151C274.106 377.363 274.06 377.395 274.014 377.426Z" fill="black"/>
<path d="M276.703 374.25C276.703 376.226 275.04 377.857 272.951 377.857C270.861 377.857 269.198 376.226 269.198 374.25C269.198 372.274 270.861 370.643 272.951 370.643C275.04 370.643 276.703 372.274 276.703 374.25Z" stroke="black"/>
<path d="M266.571 369.116L270.824 366.036L272.419 370.656" stroke="black"/>
<g filter="url(#filter12_d_514_2)">
<circle cx="54.6429" cy="181.214" r="24.6429" fill="white"/>
</g>
<path d="M47.602 191.071C49.3622 191.071 49.3622 189.306 49.3622 187.129H45.8418C45.8418 189.306 45.8418 191.071 47.602 191.071Z" fill="black"/>
<path d="M61.6837 191.071C63.4439 191.071 63.4439 189.306 63.4439 187.129H59.9235C59.9235 189.306 59.9235 191.071 61.6837 191.071Z" fill="black"/>
<path fill-rule="evenodd" clip-rule="evenodd" d="M48.3466 171.357C46.9204 171.357 45.7221 172.429 45.5639 173.847L44.7808 180.864C44.5956 182.523 45.8941 183.974 47.5635 183.974H61.9863C63.6865 183.974 64.9943 182.471 64.7594 180.788L63.7805 173.77C63.5874 172.387 62.4042 171.357 61.0073 171.357H48.3466ZM61.3315 173.723H48.306L47.6019 180.032H62.0356L61.3315 173.723Z" fill="black"/>
<path d="M53.2348 177.666L47.6021 180.82" stroke="black" stroke-width="0.56"/>
<path d="M60.6276 177.666L54.9949 180.82" stroke="black" stroke-width="0.56"/>
<path fill-rule="evenodd" clip-rule="evenodd" d="M42.3214 181.94C42.3214 181.321 42.8229 180.82 43.4414 180.82H65.8443C66.4629 180.82 66.9643 181.321 66.9643 181.94V186.797C66.9643 187.416 66.4629 187.917 65.8443 187.917H43.4414C42.8229 187.917 42.3214 187.416 42.3214 186.797V181.94ZM49.3622 184.369C49.3622 185.457 48.5742 186.34 47.602 186.34C46.6299 186.34 45.8418 185.457 45.8418 184.369C45.8418 183.28 46.6299 182.397 47.602 182.397C48.5742 182.397 49.3622 183.28 49.3622 184.369ZM61.6837 186.34C62.6558 186.34 63.4439 185.457 63.4439 184.369C63.4439 183.28 62.6558 182.397 61.6837 182.397C60.7116 182.397 59.9235 183.28 59.9235 184.369C59.9235 185.457 60.7116 186.34 61.6837 186.34Z" fill="black"/>
<rect x="43.0255" y="178.454" width="2.11224" height="1.57715" rx="0.56" fill="black"/>
<rect x="64.1479" y="178.454" width="2.11224" height="1.57715" rx="0.56" fill="black"/>
<g filter="url(#filter13_d_514_2)">
<circle cx="202.5" cy="82.6429" r="24.6429" fill="white"/>
</g>
<path d="M194.491 82.6428L204.938 70.3214L202.848 80.5893L210.509 82.6428L200.262 94.9643L202.848 84.6964L194.491 82.6428Z" fill="black"/>
<path d="M202.5 70.9375L191.411 83.2589L201.268 85.7232L198.804 94.3482" stroke="black" stroke-linecap="round"/>
<path d="M206.196 70.9375L204.348 79.5625L212.973 82.0268L202.5 94.3482" stroke="black" stroke-linecap="round"/>
<g filter="url(#filter14_d_514_2)">
<circle cx="276.429" cy="82.6429" r="24.6429" fill="white"/>
</g>
<path d="M266.571 78.3304L275.812 72.1697L285.054 78.3304V93.7322H278.893C278.893 89.4197 278.277 86.9554 275.812 86.9554C272.732 86.9554 272.732 89.4197 272.732 93.7322H266.571V78.3304Z" fill="black"/>
<path d="M264.107 78.3303L275.812 70.3214L287.518 78.3303" stroke="black"/>
<g filter="url(#filter15_d_514_2)">
<circle cx="54.6429" cy="279.786" r="24.6429" fill="white"/>
</g>
<line y1="-0.5" x2="3.20866" y2="-0.5" transform="matrix(-0.999959 0.0090423 0.0090423 0.999959 66.0776 274.518)" stroke="black"/>
<line y1="-0.5" x2="3.20866" y2="-0.5" transform="matrix(-0.999959 0.0090423 0.0090423 0.999959 66.0486 271.309)" stroke="black"/>
<path d="M63.1433 274.25C63.4195 274.248 63.6413 274.022 63.6388 273.746L63.6133 270.933C63.6108 270.657 63.385 270.435 63.1088 270.438L59.3437 270.472C59.0676 270.474 58.8458 270.7 58.8483 270.976L58.8737 273.789C58.8762 274.065 59.1021 274.287 59.3782 274.284L63.1433 274.25Z" fill="black" stroke="black"/>
<path d="M58.3393 272.393H47.0178C46.4656 272.393 46.0178 272.841 46.0178 273.393V279.17" stroke="black"/>
<rect x="44.0536" y="279.054" width="5.16071" height="10.0893" rx="0.5" stroke="black"/>
<circle cx="46.6339" cy="287.795" r="0.616071" fill="black"/>
<rect x="44.7857" y="285.946" width="3.69643" height="1.23214" fill="black"/>
<rect x="50.9464" y="277.321" width="14.7857" height="9.85714" rx="1" fill="black"/>
<rect x="50.9464" y="288.411" width="14.7857" height="1.23214" fill="black"/>
<g filter="url(#filter16_d_514_2)">
<circle cx="128.571" cy="82.6429" r="24.6429" fill="white"/>
</g>
<path d="M116.526 76.7732C116.385 76.1477 116.86 75.5526 117.501 75.5526H133.96C134.537 75.5526 134.995 76.04 134.958 76.6161L134.381 85.6838C134.348 86.2103 133.911 86.6203 133.383 86.6203H119.552C119.085 86.6203 118.68 86.2967 118.577 85.8409L116.526 76.7732Z" fill="black"/>
<path d="M140.028 72.7858H137.138C136.61 72.7858 136.173 73.196 136.14 73.7228L136.09 74.5151H140.028C140.506 74.5151 140.893 74.128 140.893 73.6504C140.893 73.1729 140.506 72.7858 140.028 72.7858Z" fill="black"/>
<path d="M118.362 87.6579H134.321C134.849 87.6579 135.286 87.2477 135.319 86.7209L136.09 74.5151M136.09 74.5151L136.14 73.7228C136.173 73.196 136.61 72.7858 137.138 72.7858H140.028C140.506 72.7858 140.893 73.1729 140.893 73.6504V73.6504C140.893 74.128 140.506 74.5151 140.028 74.5151H136.09Z" stroke="black" stroke-linecap="round"/>
<ellipse cx="121.804" cy="90.079" rx="2.19048" ry="2.42105" fill="black"/>
<ellipse cx="131.192" cy="90.079" rx="2.19048" ry="2.42105" fill="black"/>
<g filter="url(#filter17_d_514_2)">
<circle cx="128.571" cy="279.786" r="24.6429" fill="white"/>
</g>
<mask id="path-91-inside-2_514_2" fill="white">
<path fill-rule="evenodd" clip-rule="evenodd" d="M127.406 283.589C126.251 285.029 124.503 285.946 122.548 285.946C119.07 285.946 116.25 283.044 116.25 279.464C116.25 275.884 119.07 272.982 122.548 272.982C122.639 272.982 122.731 272.984 122.821 272.988V272.982H134.321V272.988C134.412 272.984 134.503 272.982 134.595 272.982C138.073 272.982 140.893 275.884 140.893 279.464C140.893 283.044 138.073 285.946 134.595 285.946C132.64 285.946 130.892 285.029 129.737 283.589H127.406ZM123.222 277.696L122.274 275.928L121.325 277.696H123.222ZM118.988 279.464L120.631 278.443V280.485L118.988 279.464ZM123.917 280.485L125.56 279.464L123.917 278.444V280.485ZM122.274 283L123.222 281.232H121.325L122.274 283ZM122.804 279.464C122.804 279.843 122.528 280.078 122.274 280.078C122.019 280.078 121.744 279.843 121.744 279.464C121.744 279.086 122.019 278.851 122.274 278.851C122.528 278.851 122.804 279.086 122.804 279.464ZM123.369 279.464C123.369 280.115 122.879 280.643 122.274 280.643C121.669 280.643 121.179 280.115 121.179 279.464C121.179 278.813 121.669 278.286 122.274 278.286C122.879 278.286 123.369 278.813 123.369 279.464ZM134.869 277.875C135.005 277.875 135.238 277.733 135.238 277.402C135.238 277.07 135.005 276.928 134.869 276.928C134.733 276.928 134.5 277.07 134.5 277.402C134.5 277.733 134.733 277.875 134.869 277.875ZM134.869 278.875C135.625 278.875 136.238 278.215 136.238 277.402C136.238 276.588 135.625 275.928 134.869 275.928C134.113 275.928 133.5 276.588 133.5 277.402C133.5 278.215 134.113 278.875 134.869 278.875ZM135.238 282.491C135.238 282.823 135.005 282.964 134.869 282.964C134.733 282.964 134.5 282.823 134.5 282.491C134.5 282.159 134.733 282.018 134.869 282.018C135.005 282.018 135.238 282.159 135.238 282.491ZM136.238 282.491C136.238 283.305 135.625 283.964 134.869 283.964C134.113 283.964 133.5 283.305 133.5 282.491C133.5 281.677 134.113 281.018 134.869 281.018C135.625 281.018 136.238 281.677 136.238 282.491ZM137.333 280.667C137.739 280.667 138.137 280.3 138.137 279.759C138.137 279.218 137.739 278.851 137.333 278.851C136.928 278.851 136.53 279.218 136.53 279.759C136.53 280.3 136.928 280.667 137.333 280.667ZM137.333 281.232C138.089 281.232 138.702 280.572 138.702 279.759C138.702 278.945 138.089 278.286 137.333 278.286C136.577 278.286 135.964 278.945 135.964 279.759C135.964 280.572 136.577 281.232 137.333 281.232ZM133.209 279.759C133.209 280.3 132.81 280.667 132.405 280.667C131.999 280.667 131.601 280.3 131.601 279.759C131.601 279.218 131.999 278.851 132.405 278.851C132.81 278.851 133.209 279.218 133.209 279.759ZM133.774 279.759C133.774 280.572 133.161 281.232 132.405 281.232C131.649 281.232 131.036 280.572 131.036 279.759C131.036 278.945 131.649 278.286 132.405 278.286C133.161 278.286 133.774 278.945 133.774 279.759Z"/>
</mask>
<path fill-rule="evenodd" clip-rule="evenodd" d="M127.406 283.589C126.251 285.029 124.503 285.946 122.548 285.946C119.07 285.946 116.25 283.044 116.25 279.464C116.25 275.884 119.07 272.982 122.548 272.982C122.639 272.982 122.731 272.984 122.821 272.988V272.982H134.321V272.988C134.412 272.984 134.503 272.982 134.595 272.982C138.073 272.982 140.893 275.884 140.893 279.464C140.893 283.044 138.073 285.946 134.595 285.946C132.64 285.946 130.892 285.029 129.737 283.589H127.406ZM123.222 277.696L122.274 275.928L121.325 277.696H123.222ZM118.988 279.464L120.631 278.443V280.485L118.988 279.464ZM123.917 280.485L125.56 279.464L123.917 278.444V280.485ZM122.274 283L123.222 281.232H121.325L122.274 283ZM122.804 279.464C122.804 279.843 122.528 280.078 122.274 280.078C122.019 280.078 121.744 279.843 121.744 279.464C121.744 279.086 122.019 278.851 122.274 278.851C122.528 278.851 122.804 279.086 122.804 279.464ZM123.369 279.464C123.369 280.115 122.879 280.643 122.274 280.643C121.669 280.643 121.179 280.115 121.179 279.464C121.179 278.813 121.669 278.286 122.274 278.286C122.879 278.286 123.369 278.813 123.369 279.464ZM134.869 277.875C135.005 277.875 135.238 277.733 135.238 277.402C135.238 277.07 135.005 276.928 134.869 276.928C134.733 276.928 134.5 277.07 134.5 277.402C134.5 277.733 134.733 277.875 134.869 277.875ZM134.869 278.875C135.625 278.875 136.238 278.215 136.238 277.402C136.238 276.588 135.625 275.928 134.869 275.928C134.113 275.928 133.5 276.588 133.5 277.402C133.5 278.215 134.113 278.875 134.869 278.875ZM135.238 282.491C135.238 282.823 135.005 282.964 134.869 282.964C134.733 282.964 134.5 282.823 134.5 282.491C134.5 282.159 134.733 282.018 134.869 282.018C135.005 282.018 135.238 282.159 135.238 282.491ZM136.238 282.491C136.238 283.305 135.625 283.964 134.869 283.964C134.113 283.964 133.5 283.305 133.5 282.491C133.5 281.677 134.113 281.018 134.869 281.018C135.625 281.018 136.238 281.677 136.238 282.491ZM137.333 280.667C137.739 280.667 138.137 280.3 138.137 279.759C138.137 279.218 137.739 278.851 137.333 278.851C136.928 278.851 136.53 279.218 136.53 279.759C136.53 280.3 136.928 280.667 137.333 280.667ZM137.333 281.232C138.089 281.232 138.702 280.572 138.702 279.759C138.702 278.945 138.089 278.286 137.333 278.286C136.577 278.286 135.964 278.945 135.964 279.759C135.964 280.572 136.577 281.232 137.333 281.232ZM133.209 279.759C133.209 280.3 132.81 280.667 132.405 280.667C131.999 280.667 131.601 280.3 131.601 279.759C131.601 279.218 131.999 278.851 132.405 278.851C132.81 278.851 133.209 279.218 133.209 279.759ZM133.774 279.759C133.774 280.572 133.161 281.232 132.405 281.232C131.649 281.232 131.036 280.572 131.036 279.759C131.036 278.945 131.649 278.286 132.405 278.286C133.161 278.286 133.774 278.945 133.774 279.759Z" fill="black"/>
<path d="M127.406 283.589V282.459H126.863L126.524 282.882L127.406 283.589ZM122.821 272.988L122.772 274.117L123.952 274.169V272.988H122.821ZM122.821 272.982V271.852H121.691V272.982H122.821ZM134.321 272.982H135.452V271.852H134.321V272.982ZM134.321 272.988H133.191V274.169L134.371 274.117L134.321 272.988ZM129.737 283.589L130.619 282.882L130.279 282.459H129.737V283.589ZM122.274 275.928L123.27 275.394L122.274 273.537L121.278 275.394L122.274 275.928ZM123.222 277.696V278.827H125.112L124.218 277.162L123.222 277.696ZM121.325 277.696L120.329 277.162L119.436 278.827H121.325V277.696ZM120.631 278.443H121.761V276.41L120.034 277.483L120.631 278.443ZM118.988 279.464L118.392 278.504L116.846 279.464L118.392 280.424L118.988 279.464ZM120.631 280.485L120.034 281.445L121.761 282.518V280.485H120.631ZM125.56 279.464L126.156 280.424L127.702 279.464L126.156 278.504L125.56 279.464ZM123.917 280.485H122.786V282.518L124.513 281.445L123.917 280.485ZM123.917 278.444L124.513 277.483L122.786 276.41V278.444H123.917ZM123.222 281.232L124.218 281.766L125.112 280.102H123.222V281.232ZM122.274 283L121.278 283.534L122.274 285.391L123.27 283.534L122.274 283ZM121.325 281.232V280.102H119.436L120.329 281.766L121.325 281.232ZM122.548 287.077C124.867 287.077 126.932 285.987 128.287 284.297L126.524 282.882C125.57 284.071 124.139 284.816 122.548 284.816V287.077ZM115.12 279.464C115.12 283.637 118.415 287.077 122.548 287.077V284.816C119.724 284.816 117.38 282.451 117.38 279.464H115.12ZM122.548 271.851C118.415 271.851 115.12 275.291 115.12 279.464H117.38C117.38 276.477 119.724 274.112 122.548 274.112V271.851ZM122.871 271.859C122.764 271.854 122.656 271.851 122.548 271.851V274.112C122.623 274.112 122.697 274.114 122.772 274.117L122.871 271.859ZM121.691 272.982V272.988H123.952V272.982H121.691ZM134.321 271.852H122.821V274.112H134.321V271.852ZM135.452 272.988V272.982H133.191V272.988H135.452ZM134.595 271.852C134.487 271.852 134.379 271.854 134.272 271.859L134.371 274.117C134.445 274.114 134.52 274.112 134.595 274.112V271.852ZM142.023 279.464C142.023 275.291 138.728 271.852 134.595 271.852V274.112C137.418 274.112 139.762 276.477 139.762 279.464H142.023ZM134.595 287.077C138.728 287.077 142.023 283.637 142.023 279.464H139.762C139.762 282.451 137.418 284.816 134.595 284.816V287.077ZM128.855 284.297C130.211 285.987 132.275 287.077 134.595 287.077V284.816C133.004 284.816 131.573 284.071 130.619 282.882L128.855 284.297ZM127.406 284.72H129.737V282.459H127.406V284.72ZM121.278 276.463L122.226 278.231L124.218 277.162L123.27 275.394L121.278 276.463ZM122.321 278.231L123.27 276.463L121.278 275.394L120.329 277.162L122.321 278.231ZM123.222 276.566H121.325V278.827H123.222V276.566ZM120.034 277.483L118.392 278.504L119.585 280.424L121.228 279.404L120.034 277.483ZM121.761 280.485V278.443H119.501V280.485H121.761ZM118.392 280.424L120.034 281.445L121.228 279.525L119.585 278.504L118.392 280.424ZM124.963 278.504L123.32 279.525L124.513 281.445L126.156 280.424L124.963 278.504ZM123.32 279.404L124.963 280.424L126.156 278.504L124.513 277.483L123.32 279.404ZM125.047 280.485V278.444H122.786V280.485H125.047ZM122.226 280.698L121.278 282.465L123.27 283.534L124.218 281.766L122.226 280.698ZM121.325 282.362H123.222V280.102H121.325V282.362ZM123.27 282.465L122.321 280.698L120.329 281.766L121.278 283.534L123.27 282.465ZM122.274 281.208C123.207 281.208 123.934 280.411 123.934 279.464H121.673C121.673 279.274 121.85 278.947 122.274 278.947V281.208ZM120.613 279.464C120.613 280.411 121.341 281.208 122.274 281.208V278.947C122.698 278.947 122.874 279.274 122.874 279.464H120.613ZM122.274 277.72C121.341 277.72 120.613 278.517 120.613 279.464H122.874C122.874 279.654 122.698 279.981 122.274 279.981V277.72ZM123.934 279.464C123.934 278.517 123.207 277.72 122.274 277.72V279.981C121.85 279.981 121.673 279.654 121.673 279.464H123.934ZM122.274 281.773C123.58 281.773 124.5 280.66 124.5 279.464H122.239C122.239 279.504 122.224 279.524 122.22 279.528C122.218 279.53 122.221 279.526 122.232 279.521C122.243 279.516 122.259 279.512 122.274 279.512V281.773ZM120.048 279.464C120.048 280.66 120.968 281.773 122.274 281.773V279.512C122.289 279.512 122.304 279.516 122.316 279.521C122.326 279.526 122.329 279.53 122.327 279.528C122.323 279.524 122.309 279.504 122.309 279.464H120.048ZM122.274 277.155C120.968 277.155 120.048 278.268 120.048 279.464H122.309C122.309 279.424 122.323 279.405 122.327 279.4C122.329 279.398 122.326 279.402 122.316 279.407C122.304 279.412 122.289 279.416 122.274 279.416V277.155ZM124.5 279.464C124.5 278.268 123.58 277.155 122.274 277.155V279.416C122.259 279.416 122.243 279.412 122.232 279.407C122.221 279.402 122.218 279.398 122.22 279.4C122.224 279.405 122.239 279.424 122.239 279.464H124.5ZM134.108 277.402C134.108 277.283 134.158 277.114 134.297 276.972C134.405 276.862 134.593 276.744 134.869 276.744V279.005C135.652 279.005 136.369 278.335 136.369 277.402H134.108ZM134.869 278.059C134.593 278.059 134.405 277.942 134.297 277.832C134.158 277.689 134.108 277.52 134.108 277.402H136.369C136.369 276.468 135.652 275.798 134.869 275.798V278.059ZM135.63 277.402C135.63 277.52 135.581 277.689 135.441 277.832C135.333 277.942 135.145 278.059 134.869 278.059V275.798C134.087 275.798 133.37 276.468 133.37 277.402H135.63ZM134.869 276.744C135.145 276.744 135.333 276.862 135.441 276.972C135.581 277.114 135.63 277.283 135.63 277.402H133.37C133.37 278.335 134.087 279.005 134.869 279.005V276.744ZM135.108 277.402C135.108 277.523 135.063 277.616 135.009 277.674C134.957 277.73 134.907 277.744 134.869 277.744V280.005C136.326 280.005 137.369 278.76 137.369 277.402H135.108ZM134.869 277.059C134.907 277.059 134.957 277.073 135.009 277.129C135.063 277.187 135.108 277.281 135.108 277.402H137.369C137.369 276.043 136.326 274.798 134.869 274.798V277.059ZM134.63 277.402C134.63 277.281 134.676 277.187 134.729 277.129C134.781 277.073 134.831 277.059 134.869 277.059V274.798C133.412 274.798 132.37 276.043 132.37 277.402H134.63ZM134.869 277.744C134.831 277.744 134.781 277.73 134.729 277.674C134.676 277.616 134.63 277.523 134.63 277.402H132.37C132.37 278.76 133.412 280.005 134.869 280.005V277.744ZM134.869 284.095C135.652 284.095 136.369 283.425 136.369 282.491H134.108C134.108 282.372 134.158 282.203 134.297 282.061C134.405 281.951 134.593 281.834 134.869 281.834V284.095ZM133.37 282.491C133.37 283.425 134.087 284.095 134.869 284.095V281.834C135.145 281.834 135.333 281.951 135.441 282.061C135.581 282.203 135.63 282.372 135.63 282.491H133.37ZM134.869 280.887C134.087 280.887 133.37 281.557 133.37 282.491H135.63C135.63 282.61 135.581 282.779 135.441 282.921C135.333 283.031 135.145 283.148 134.869 283.148V280.887ZM136.369 282.491C136.369 281.557 135.652 280.887 134.869 280.887V283.148C134.593 283.148 134.405 283.031 134.297 282.921C134.158 282.779 134.108 282.61 134.108 282.491H136.369ZM134.869 285.095C136.326 285.095 137.369 283.849 137.369 282.491H135.108C135.108 282.612 135.063 282.706 135.009 282.763C134.957 282.819 134.907 282.834 134.869 282.834V285.095ZM132.37 282.491C132.37 283.849 133.412 285.095 134.869 285.095V282.834C134.831 282.834 134.781 282.819 134.729 282.763C134.676 282.706 134.63 282.612 134.63 282.491H132.37ZM134.869 279.887C133.412 279.887 132.37 281.133 132.37 282.491H134.63C134.63 282.37 134.676 282.276 134.729 282.219C134.781 282.163 134.831 282.148 134.869 282.148V279.887ZM137.369 282.491C137.369 281.133 136.326 279.887 134.869 279.887V282.148C134.907 282.148 134.957 282.163 135.009 282.219C135.063 282.276 135.108 282.37 135.108 282.491H137.369ZM137.007 279.759C137.007 279.739 137.053 279.536 137.333 279.536V281.797C138.425 281.797 139.268 280.861 139.268 279.759H137.007ZM137.333 279.981C137.053 279.981 137.007 279.778 137.007 279.759H139.268C139.268 278.657 138.425 277.72 137.333 277.72V279.981ZM137.66 279.759C137.66 279.778 137.614 279.981 137.333 279.981V277.72C136.242 277.72 135.399 278.657 135.399 279.759H137.66ZM137.333 279.536C137.614 279.536 137.66 279.739 137.66 279.759H135.399C135.399 280.861 136.242 281.797 137.333 281.797V279.536ZM137.572 279.759C137.572 279.88 137.527 279.973 137.473 280.031C137.421 280.087 137.371 280.102 137.333 280.102V282.363C138.79 282.363 139.833 281.117 139.833 279.759H137.572ZM137.333 279.416C137.371 279.416 137.421 279.43 137.473 279.487C137.527 279.544 137.572 279.638 137.572 279.759H139.833C139.833 278.4 138.79 277.155 137.333 277.155V279.416ZM137.095 279.759C137.095 279.638 137.14 279.544 137.193 279.487C137.246 279.43 137.295 279.416 137.333 279.416V277.155C135.876 277.155 134.834 278.4 134.834 279.759H137.095ZM137.333 280.102C137.295 280.102 137.246 280.087 137.193 280.031C137.14 279.973 137.095 279.88 137.095 279.759H134.834C134.834 281.117 135.876 282.363 137.333 282.363V280.102ZM132.405 281.797C133.496 281.797 134.339 280.861 134.339 279.759H132.078C132.078 279.739 132.124 279.536 132.405 279.536V281.797ZM130.471 279.759C130.471 280.861 131.313 281.797 132.405 281.797V279.536C132.685 279.536 132.731 279.739 132.731 279.759H130.471ZM132.405 277.72C131.313 277.72 130.471 278.657 130.471 279.759H132.731C132.731 279.778 132.685 279.981 132.405 279.981V277.72ZM134.339 279.759C134.339 278.657 133.496 277.72 132.405 277.72V279.981C132.124 279.981 132.078 279.778 132.078 279.759H134.339ZM132.405 282.363C133.862 282.363 134.904 281.117 134.904 279.759H132.643C132.643 279.88 132.598 279.973 132.545 280.031C132.493 280.087 132.443 280.102 132.405 280.102V282.363ZM129.905 279.759C129.905 281.117 130.948 282.363 132.405 282.363V280.102C132.367 280.102 132.317 280.087 132.265 280.031C132.211 279.973 132.166 279.88 132.166 279.759H129.905ZM132.405 277.155C130.948 277.155 129.905 278.4 129.905 279.759H132.166C132.166 279.638 132.211 279.544 132.265 279.487C132.317 279.43 132.367 279.416 132.405 279.416V277.155ZM134.904 279.759C134.904 278.4 133.862 277.155 132.405 277.155V279.416C132.443 279.416 132.493 279.43 132.545 279.487C132.598 279.544 132.643 279.638 132.643 279.759H134.904Z" fill="black" mask="url(#path-91-inside-2_514_2)"/>
<rect x="121.726" y="272.393" width="13.1429" height="2.35716" rx="0.56522" fill="black"/>
<g filter="url(#filter18_d_514_2)">
<circle cx="276.429" cy="181.214" r="24.6429" fill="white"/>
</g>
<rect x="265.339" y="182.522" width="8.625" height="1.23214" fill="black"/>
<path d="M269.652 184.37L264.107 188.067L266.186 192.379H273.117L275.196 188.067L269.652 184.37Z" fill="black"/>
<path d="M273.117 186.835H266.186V182.522H273.117V186.835Z" stroke="black"/>
<path d="M266.186 179.442L269.652 176.362V179.442H266.186Z" fill="black" stroke="black"/>
<path d="M275.979 171.839C274.727 173.641 275.353 187.451 275.353 187.451H287.872C287.872 183.754 288.134 175.745 287.246 172.44C286.291 168.883 277.231 170.038 275.979 171.839Z" stroke="black"/>
<path fill-rule="evenodd" clip-rule="evenodd" d="M287.664 179.442H275.343V187.451L287.664 186.835V179.442ZM278.423 184.987C278.423 185.667 277.872 186.219 277.191 186.219C276.511 186.219 275.959 185.667 275.959 184.987C275.959 184.306 276.511 183.754 277.191 183.754C277.872 183.754 278.423 184.306 278.423 184.987ZM285.816 186.219C286.497 186.219 287.048 185.667 287.048 184.987C287.048 184.306 286.497 183.754 285.816 183.754C285.136 183.754 284.584 184.306 284.584 184.987C284.584 185.667 285.136 186.219 285.816 186.219Z" fill="black"/>
<ellipse cx="277.191" cy="188.067" rx="1.23214" ry="1.84821" fill="black"/>
<ellipse cx="285.816" cy="188.067" rx="1.23214" ry="1.84821" fill="black"/>
<path d="M287.664 172.665C287.048 168.969 278.423 170.201 275.959 171.433L275.343 173.897L284.584 173.897C287.664 173.897 287.867 173.88 287.664 172.665Z" fill="black"/>
<g filter="url(#filter19_d_514_2)">
<circle cx="54.6429" cy="378.357" r="24.6429" fill="white"/>
</g>
<path d="M64.7395 378.973L61.043 386.149H46.3848L45.0252 390.063" stroke="black" stroke-width="2"/>
<path d="M61.043 386.366L62.8912 390.063" stroke="black" stroke-width="2"/>
<path d="M51.1859 378.357C46.8734 377.125 46.2573 378.973 45.0252 380.205C43.5466 376.755 49.3327 370.964 50.9756 369.732C57.7524 368.5 65.4742 371.235 64.1234 370.964C61.043 370.348 60.427 375.717 57.3466 375.277C53.0341 374.661 53.0591 378.892 51.1859 378.357Z" stroke="black"/>
<path d="M50.9755 369.732C50.7702 371.991 50.8162 377.864 51.802 378.357" stroke="black"/>
<path d="M51.5917 369.732C54.056 370.759 58.8613 373.675 58.3685 374.661" stroke="black"/>
<path d="M51.7608 377.741L51.1859 369.732C54.0606 369.732 61.5058 376.448 58.5787 375.277C55.4984 374.045 53.6502 376.509 51.7608 377.741Z" fill="black"/>
<path d="M50.5698 367.268L58.5787 386.366" stroke="black" stroke-width="2"/>
<circle cx="61.043" cy="381.438" r="2.46429" fill="black"/>
<rect x="48.7216" y="382.67" width="12.3214" height="3.69643" fill="black"/>
<g filter="url(#filter20_d_514_2)">
<circle cx="202.5" cy="181.214" r="24.6429" fill="white"/>
</g>
<rect x="190.179" y="189.839" width="17.25" height="2.46429" rx="1" fill="black"/>
<mask id="path-116-inside-3_514_2" fill="white">
<path fill-rule="evenodd" clip-rule="evenodd" d="M194.411 168.893C192.754 168.893 191.411 170.236 191.411 171.893V189.304C191.411 190.96 192.754 192.304 194.411 192.304H203.196C204.853 192.304 206.196 190.96 206.196 189.304V171.893C206.196 170.236 204.853 168.893 203.196 168.893H194.411ZM195.875 171.357C194.77 171.357 193.875 172.253 193.875 173.357V177.982C193.875 179.087 194.77 179.982 195.875 179.982H201.732C202.837 179.982 203.732 179.087 203.732 177.982V173.357C203.732 172.253 202.837 171.357 201.732 171.357H195.875Z"/>
</mask>
<path fill-rule="evenodd" clip-rule="evenodd" d="M194.411 168.893C192.754 168.893 191.411 170.236 191.411 171.893V189.304C191.411 190.96 192.754 192.304 194.411 192.304H203.196C204.853 192.304 206.196 190.96 206.196 189.304V171.893C206.196 170.236 204.853 168.893 203.196 168.893H194.411ZM195.875 171.357C194.77 171.357 193.875 172.253 193.875 173.357V177.982C193.875 179.087 194.77 179.982 195.875 179.982H201.732C202.837 179.982 203.732 179.087 203.732 177.982V173.357C203.732 172.253 202.837 171.357 201.732 171.357H195.875Z" fill="black"/>
<path d="M192.411 171.893C192.411 170.788 193.306 169.893 194.411 169.893V167.893C192.202 167.893 190.411 169.684 190.411 171.893H192.411ZM192.411 189.304V171.893H190.411V189.304H192.411ZM194.411 191.304C193.306 191.304 192.411 190.408 192.411 189.304H190.411C190.411 191.513 192.202 193.304 194.411 193.304V191.304ZM203.196 191.304H194.411V193.304H203.196V191.304ZM205.196 189.304C205.196 190.408 204.301 191.304 203.196 191.304V193.304C205.406 193.304 207.196 191.513 207.196 189.304H205.196ZM205.196 171.893V189.304H207.196V171.893H205.196ZM203.196 169.893C204.301 169.893 205.196 170.788 205.196 171.893H207.196C207.196 169.684 205.406 167.893 203.196 167.893V169.893ZM194.411 169.893H203.196V167.893H194.411V169.893ZM194.875 173.357C194.875 172.805 195.323 172.357 195.875 172.357V170.357C194.218 170.357 192.875 171.7 192.875 173.357H194.875ZM194.875 177.982V173.357H192.875V177.982H194.875ZM195.875 178.982C195.323 178.982 194.875 178.534 194.875 177.982H192.875C192.875 179.639 194.218 180.982 195.875 180.982V178.982ZM201.732 178.982H195.875V180.982H201.732V178.982ZM202.732 177.982C202.732 178.534 202.284 178.982 201.732 178.982V180.982C203.389 180.982 204.732 179.639 204.732 177.982H202.732ZM202.732 173.357V177.982H204.732V173.357H202.732ZM201.732 172.357C202.284 172.357 202.732 172.805 202.732 173.357H204.732C204.732 171.7 203.389 170.357 201.732 170.357V172.357ZM195.875 172.357H201.732V170.357H195.875V172.357Z" fill="black" mask="url(#path-116-inside-3_514_2)"/>
<path d="M205.58 178.134C205.916 177.352 208.208 177.413 208.208 179.806C208.208 182.74 207.705 188.607 210.22 188.607C212.735 188.607 212.735 177.459 211.729 176.286" stroke="black" stroke-linecap="round" stroke-linejoin="round"/>
<path d="M208.248 173.156C208.123 172.807 208.201 172.418 208.45 172.144L209.496 170.997C209.972 170.475 210.825 170.597 211.134 171.233L212.869 174.796C212.992 175.05 213.003 175.345 212.897 175.607L212.269 177.17C212.038 177.747 211.342 177.975 210.815 177.647L209.884 177.071C209.692 176.952 209.546 176.771 209.47 176.559L208.248 173.156Z" fill="black"/>
<path d="M208.202 169.432C208.387 169.342 209.835 169.972 210.153 170.625C210.715 171.779 211.277 172.933 211.277 172.933" stroke="black" stroke-linecap="round" stroke-linejoin="round"/>
<g filter="url(#filter21_d_514_2)">
<circle cx="424.286" cy="279.786" r="24.6429" fill="white"/>
</g>
<path d="M419.526 279.145C419.666 278.443 420.282 277.939 420.997 277.939H430.221C430.991 277.939 431.636 278.523 431.713 279.289L432.127 283.43C432.157 283.724 431.925 283.98 431.63 283.98L419.169 283.979C418.853 283.979 418.617 283.691 418.678 283.381L419.526 279.145Z" stroke="black"/>
<path d="M414.929 284.954C414.929 284.126 415.6 283.454 416.429 283.454H432.143C432.971 283.454 433.643 284.126 433.643 284.954V287.587C433.643 287.863 433.419 288.087 433.143 288.087H415.429C415.152 288.087 414.929 287.863 414.929 287.587V284.954Z" fill="black" stroke="black"/>
<circle cx="420.765" cy="289.291" r="1.61224" stroke="black"/>
<circle cx="429.214" cy="289.291" r="1.61224" stroke="black"/>
<circle r="3.22449" transform="matrix(1 0 0 -1 420.061 271.689)" stroke="black" stroke-width="2"/>
<rect x="423.378" y="270.78" width="7.44898" height="1.81633" fill="black" stroke="black"/>
<path d="M427.806 275.209V272.393" stroke="black"/>
<path d="M429.918 275.913V273.097" stroke="black"/>
<path d="M425.694 278.729V284.362" stroke="black"/>
<g filter="url(#filter22_d_514_2)">
<circle cx="350.357" cy="181.214" r="24.6429" fill="white"/>
</g>
<rect x="337.304" y="168.161" width="26.7792" height="26.7792" rx="2.5" stroke="black"/>
<path d="M348.858 177.931V182.286C348.858 182.38 348.92 182.44 349.043 182.466C349.508 182.52 349.878 182.546 350.152 182.546C351.138 182.546 351.897 182.326 352.431 181.887C352.979 181.434 353.253 180.808 353.253 180.009C353.253 178.424 352.219 177.631 350.152 177.631C349.81 177.631 349.433 177.664 349.022 177.731C348.913 177.758 348.858 177.824 348.858 177.931ZM346.599 189.839C346.284 189.839 346.01 189.726 345.778 189.5C345.545 189.273 345.429 189.007 345.429 188.7V176.492C345.429 176.172 345.538 175.886 345.757 175.633C345.976 175.38 346.25 175.24 346.579 175.213C347.742 175.107 348.865 175.053 349.946 175.053C354.327 175.053 356.518 176.639 356.518 179.809C356.518 181.527 356.004 182.833 354.978 183.725C353.965 184.604 352.472 185.044 350.501 185.044C349.981 185.044 349.495 185.024 349.043 184.984C348.92 184.984 348.858 185.037 348.858 185.144V188.7C348.858 189.007 348.742 189.273 348.509 189.5C348.276 189.726 348.002 189.839 347.688 189.839H346.599Z" fill="black"/>
<g filter="url(#filter23_d_514_2)">
<circle cx="350.357" cy="279.786" r="24.6429" fill="white"/>
</g>
<path d="M356.018 272.393C356.018 274.74 353.593 276.821 350.357 276.821C347.121 276.821 344.696 274.74 344.696 272.393C344.696 270.045 347.121 267.964 350.357 267.964C353.593 267.964 356.018 270.045 356.018 272.393Z" fill="black" stroke="black"/>
<path fill-rule="evenodd" clip-rule="evenodd" d="M357.75 278.899L350.357 279.786L342.964 278.899C344.535 277.208 347.259 276.089 350.357 276.089C353.455 276.089 356.18 277.208 357.75 278.899Z" fill="black"/>
<path fill-rule="evenodd" clip-rule="evenodd" d="M341.405 278.176C341.514 278.081 341.659 278.038 341.803 278.058L350.357 279.281L358.911 278.058C359.055 278.038 359.2 278.081 359.31 278.176C359.419 278.271 359.482 278.409 359.482 278.553V281.023C359.108 281.053 358.763 281.233 358.482 281.518V279.13L350.857 280.219V290.298L358.482 289.209V285.446C358.763 285.731 359.108 285.911 359.482 285.942V289.643C359.482 289.892 359.299 290.103 359.053 290.138L350.428 291.37C350.381 291.377 350.333 291.377 350.286 291.37L341.661 290.138C341.415 290.103 341.232 289.892 341.232 289.643V285.942C341.607 285.911 341.951 285.731 342.232 285.446V289.209L349.857 290.298V280.219L342.232 279.13V281.518C341.951 281.233 341.607 281.053 341.232 281.023V278.553C341.232 278.409 341.295 278.271 341.405 278.176Z" fill="black"/>
<path d="M342.464 283.482C342.464 284.065 342.287 284.573 342.023 284.925C341.76 285.276 341.434 285.446 341.116 285.446C340.798 285.446 340.473 285.276 340.209 284.925C339.946 284.573 339.768 284.065 339.768 283.482C339.768 282.899 339.946 282.391 340.209 282.04C340.473 281.688 340.798 281.518 341.116 281.518C341.434 281.518 341.76 281.688 342.023 282.04C342.287 282.391 342.464 282.899 342.464 283.482Z" fill="black" stroke="black"/>
<path d="M360.946 283.482C360.946 284.065 360.769 284.573 360.505 284.925C360.242 285.276 359.916 285.446 359.598 285.446C359.281 285.446 358.955 285.276 358.691 284.925C358.428 284.573 358.25 284.065 358.25 283.482C358.25 282.899 358.428 282.391 358.691 282.04C358.955 281.688 359.281 281.518 359.598 281.518C359.916 281.518 360.242 281.688 360.505 282.04C360.769 282.391 360.946 282.899 360.946 283.482Z" fill="black" stroke="black"/>
<g filter="url(#filter24_d_514_2)">
<circle cx="424.286" cy="378.357" r="24.6429" fill="white"/>
</g>
<path d="M434.143 372.197H414.429V376.304C415.25 376.304 416.893 376.714 416.893 378.357C416.893 380 415.25 380.411 414.429 380.411V384.518H429.214H434.143V380.411C433.321 380.411 431.679 380 431.679 378.357C431.679 376.714 433.321 376.304 434.143 376.304V372.197Z" stroke="black" stroke-width="2" stroke-linecap="round" stroke-linejoin="round"/>
<path d="M419.357 372.197V384.518" stroke="black" stroke-linecap="round" stroke-linejoin="round" stroke-dasharray="2 2"/>
<path d="M421.821 375.893H429.214" stroke="black"/>
<path d="M421.821 378.357H429.214" stroke="black"/>
<path d="M421.821 380.822H429.214" stroke="black"/>
<g filter="url(#filter25_d_514_2)">
<circle cx="128.571" cy="181.214" r="24.6429" fill="white"/>
</g>
<path fill-rule="evenodd" clip-rule="evenodd" d="M123.515 169.744C123.589 169.255 124.009 168.893 124.504 168.893H126.339C126.892 168.893 127.339 169.341 127.339 169.893V176.107H122.561L123.515 169.744ZM122.261 178.107L120.119 192.387C120.028 192.992 120.496 193.536 121.108 193.536H126.339C126.892 193.536 127.339 193.088 127.339 192.536V178.107H122.261Z" fill="black"/>
<path fill-rule="evenodd" clip-rule="evenodd" d="M132.396 169.744C132.322 169.255 131.902 168.893 131.407 168.893H129.572C129.019 168.893 128.572 169.341 128.572 169.893V176.107H133.35L132.396 169.744ZM133.65 178.107L135.792 192.387C135.883 192.992 135.415 193.536 134.803 193.536H129.572C129.019 193.536 128.572 193.088 128.572 192.536V178.107H133.65Z" fill="black"/>
<path d="M117.482 177.286V180.214C117.482 180.767 117.93 181.214 118.482 181.214H119.275C119.827 181.214 120.275 180.767 120.275 180.214V179.75C120.275 179.198 120.723 178.75 121.275 178.75H134.636C135.188 178.75 135.636 179.198 135.636 179.75V180.214C135.636 180.767 136.083 181.214 136.636 181.214H137.429C137.981 181.214 138.429 180.767 138.429 180.214V177.286C138.429 176.733 137.981 176.286 137.429 176.286H118.482C117.93 176.286 117.482 176.733 117.482 177.286Z" stroke="black"/>
<g filter="url(#filter26_d_514_2)">
<circle cx="424.286" cy="181.214" r="24.6429" fill="white"/>
</g>
<path d="M413.196 189.839V171.125C413.196 170.573 413.644 170.125 414.196 170.125H431.911C432.463 170.125 432.911 170.573 432.911 171.125V177.87M413.832 174.349H432.275" stroke="black"/>
<path d="M429.714 178.018H434.875V190.571H429.714V178.018Z" stroke="black"/>
<path d="M430.446 183.679H434.143" stroke="black"/>
<path d="M432.911 181.214V183.679" stroke="black"/>
<path d="M418.301 191.071C419.181 191.071 419.181 190.071 419.181 188.837H417.421C417.421 190.071 417.421 191.071 418.301 191.071Z" fill="black"/>
<path d="M425.342 191.071C426.222 191.071 426.222 190.071 426.222 188.837H424.462C424.462 190.071 424.462 191.071 425.342 191.071Z" fill="black"/>
<path fill-rule="evenodd" clip-rule="evenodd" d="M419.959 179.9C418.519 179.9 417.313 180.992 417.172 182.426L417.02 183.975C416.857 185.622 418.151 187.05 419.806 187.05H423.936C425.618 187.05 426.921 185.577 426.715 183.908L426.524 182.358C426.352 180.954 425.159 179.9 423.745 179.9H419.959ZM425.166 181.241H418.653L418.301 184.815H425.518L425.166 181.241Z" fill="black"/>
<path d="M421.117 183.475L418.301 185.262" stroke="black" stroke-width="0.56"/>
<path d="M424.814 183.475L421.997 185.262" stroke="black" stroke-width="0.56"/>
<path fill-rule="evenodd" clip-rule="evenodd" d="M415.661 186.382C415.661 185.764 416.162 185.262 416.781 185.262H426.862C427.481 185.262 427.982 185.764 427.982 186.382V188.164C427.982 188.783 427.481 189.284 426.862 189.284H416.781C416.162 189.284 415.661 188.783 415.661 188.164V186.382ZM419.181 187.273C419.181 187.89 418.787 188.39 418.301 188.39C417.815 188.39 417.421 187.89 417.421 187.273C417.421 186.656 417.815 186.156 418.301 186.156C418.787 186.156 419.181 186.656 419.181 187.273ZM425.342 188.39C425.828 188.39 426.222 187.89 426.222 187.273C426.222 186.656 425.828 186.156 425.342 186.156C424.856 186.156 424.462 186.656 424.462 187.273C424.462 187.89 424.856 188.39 425.342 188.39Z" fill="black"/>
<rect x="416.013" y="183.922" width="1.05612" height="0.893721" rx="0.44686" fill="black"/>
<rect x="426.574" y="183.922" width="1.05612" height="0.893721" rx="0.44686" fill="black"/>
<g filter="url(#filter27_d_514_2)">
<circle cx="350.357" cy="378.357" r="24.6429" fill="white"/>
</g>
<path d="M341.434 380.321L345.696 373.929H358.048L353.786 380.321H341.434Z" stroke="black"/>
<path d="M341 388.947V381.322H353.554V388.947H341Z" stroke="black"/>
<path d="M354.554 387.795V380.368L358.482 374.966V381.902L354.554 387.795Z" stroke="black"/>
<path d="M349.903 375.384C348.054 375.384 341.894 373.536 343.126 370.456C344.358 367.375 350.519 374.768 349.903 375.384ZM349.903 375.384C349.287 376 354.831 364.295 357.912 367.991C360.376 370.948 353.188 373.741 349.903 375.384Z" stroke="black" stroke-width="2"/>
<path d="M347.277 388.83V381.438L351.589 374.045" stroke="black" stroke-width="2"/>
<path d="M343.58 377.125H356.518V384.518" stroke="black"/>
<defs>
<filter id="filter0_d_514_2" x="469.571" y="58" width="57.2857" height="57.2858" filterUnits="userSpaceOnUse" color-interpolation-filters="sRGB">
<feFlood flood-opacity="0" result="BackgroundImageFix"/>
<feColorMatrix in="SourceAlpha" type="matrix" values="0 0 0 0 0 0 0 0 0 0 0 0 0 0 0 0 0 0 127 0" result="hardAlpha"/>
<feOffset dy="4"/>
<feGaussianBlur stdDeviation="2"/>
<feComposite in2="hardAlpha" operator="out"/>
<feColorMatrix type="matrix" values="0 0 0 0 0 0 0 0 0 0 0 0 0 0 0 0 0 0 0.25 0"/>
<feBlend mode="normal" in2="BackgroundImageFix" result="effect1_dropShadow_514_2"/>
<feBlend mode="normal" in="SourceGraphic" in2="effect1_dropShadow_514_2" result="shape"/>
</filter>
<filter id="filter1_d_514_2" x="26" y="58" width="57.2857" height="57.2858" filterUnits="userSpaceOnUse" color-interpolation-filters="sRGB">
<feFlood flood-opacity="0" result="BackgroundImageFix"/>
<feColorMatrix in="SourceAlpha" type="matrix" values="0 0 0 0 0 0 0 0 0 0 0 0 0 0 0 0 0 0 127 0" result="hardAlpha"/>
<feOffset dy="4"/>
<feGaussianBlur stdDeviation="2"/>
<feComposite in2="hardAlpha" operator="out"/>
<feColorMatrix type="matrix" values="0 0 0 0 0 0 0 0 0 0 0 0 0 0 0 0 0 0 0.25 0"/>
<feBlend mode="normal" in2="BackgroundImageFix" result="effect1_dropShadow_514_2"/>
<feBlend mode="normal" in="SourceGraphic" in2="effect1_dropShadow_514_2" result="shape"/>
</filter>
<filter id="filter2_d_514_2" x="173.857" y="255.143" width="57.2857" height="57.2858" filterUnits="userSpaceOnUse" color-interpolation-filters="sRGB">
<feFlood flood-opacity="0" result="BackgroundImageFix"/>
<feColorMatrix in="SourceAlpha" type="matrix" values="0 0 0 0 0 0 0 0 0 0 0 0 0 0 0 0 0 0 127 0" result="hardAlpha"/>
<feOffset dy="4"/>
<feGaussianBlur stdDeviation="2"/>
<feComposite in2="hardAlpha" operator="out"/>
<feColorMatrix type="matrix" values="0 0 0 0 0 0 0 0 0 0 0 0 0 0 0 0 0 0 0.25 0"/>
<feBlend mode="normal" in2="BackgroundImageFix" result="effect1_dropShadow_514_2"/>
<feBlend mode="normal" in="SourceGraphic" in2="effect1_dropShadow_514_2" result="shape"/>
</filter>
<filter id="filter3_d_514_2" x="247.786" y="255.143" width="57.2857" height="57.2858" filterUnits="userSpaceOnUse" color-interpolation-filters="sRGB">
<feFlood flood-opacity="0" result="BackgroundImageFix"/>
<feColorMatrix in="SourceAlpha" type="matrix" values="0 0 0 0 0 0 0 0 0 0 0 0 0 0 0 0 0 0 127 0" result="hardAlpha"/>
<feOffset dy="4"/>
<feGaussianBlur stdDeviation="2"/>
<feComposite in2="hardAlpha" operator="out"/>
<feColorMatrix type="matrix" values="0 0 0 0 0 0 0 0 0 0 0 0 0 0 0 0 0 0 0.25 0"/>
<feBlend mode="normal" in2="BackgroundImageFix" result="effect1_dropShadow_514_2"/>
<feBlend mode="normal" in="SourceGraphic" in2="effect1_dropShadow_514_2" result="shape"/>
</filter>
<filter id="filter4_d_514_2" x="395.643" y="58" width="57.2857" height="57.2858" filterUnits="userSpaceOnUse" color-interpolation-filters="sRGB">
<feFlood flood-opacity="0" result="BackgroundImageFix"/>
<feColorMatrix in="SourceAlpha" type="matrix" values="0 0 0 0 0 0 0 0 0 0 0 0 0 0 0 0 0 0 127 0" result="hardAlpha"/>
<feOffset dy="4"/>
<feGaussianBlur stdDeviation="2"/>
<feComposite in2="hardAlpha" operator="out"/>
<feColorMatrix type="matrix" values="0 0 0 0 0 0 0 0 0 0 0 0 0 0 0 0 0 0 0.25 0"/>
<feBlend mode="normal" in2="BackgroundImageFix" result="effect1_dropShadow_514_2"/>
<feBlend mode="normal" in="SourceGraphic" in2="effect1_dropShadow_514_2" result="shape"/>
</filter>
<filter id="filter5_d_514_2" x="99.9286" y="353.714" width="57.2857" height="57.2858" filterUnits="userSpaceOnUse" color-interpolation-filters="sRGB">
<feFlood flood-opacity="0" result="BackgroundImageFix"/>
<feColorMatrix in="SourceAlpha" type="matrix" values="0 0 0 0 0 0 0 0 0 0 0 0 0 0 0 0 0 0 127 0" result="hardAlpha"/>
<feOffset dy="4"/>
<feGaussianBlur stdDeviation="2"/>
<feComposite in2="hardAlpha" operator="out"/>
<feColorMatrix type="matrix" values="0 0 0 0 0 0 0 0 0 0 0 0 0 0 0 0 0 0 0.25 0"/>
<feBlend mode="normal" in2="BackgroundImageFix" result="effect1_dropShadow_514_2"/>
<feBlend mode="normal" in="SourceGraphic" in2="effect1_dropShadow_514_2" result="shape"/>
</filter>
<filter id="filter6_d_514_2" x="173.857" y="353.714" width="57.2857" height="57.2858" filterUnits="userSpaceOnUse" color-interpolation-filters="sRGB">
<feFlood flood-opacity="0" result="BackgroundImageFix"/>
<feColorMatrix in="SourceAlpha" type="matrix" values="0 0 0 0 0 0 0 0 0 0 0 0 0 0 0 0 0 0 127 0" result="hardAlpha"/>
<feOffset dy="4"/>
<feGaussianBlur stdDeviation="2"/>
<feComposite in2="hardAlpha" operator="out"/>
<feColorMatrix type="matrix" values="0 0 0 0 0 0 0 0 0 0 0 0 0 0 0 0 0 0 0.25 0"/>
<feBlend mode="normal" in2="BackgroundImageFix" result="effect1_dropShadow_514_2"/>
<feBlend mode="normal" in="SourceGraphic" in2="effect1_dropShadow_514_2" result="shape"/>
</filter>
<filter id="filter7_d_514_2" x="469.571" y="156.571" width="57.2857" height="57.2858" filterUnits="userSpaceOnUse" color-interpolation-filters="sRGB">
<feFlood flood-opacity="0" result="BackgroundImageFix"/>
<feColorMatrix in="SourceAlpha" type="matrix" values="0 0 0 0 0 0 0 0 0 0 0 0 0 0 0 0 0 0 127 0" result="hardAlpha"/>
<feOffset dy="4"/>
<feGaussianBlur stdDeviation="2"/>
<feComposite in2="hardAlpha" operator="out"/>
<feColorMatrix type="matrix" values="0 0 0 0 0 0 0 0 0 0 0 0 0 0 0 0 0 0 0.25 0"/>
<feBlend mode="normal" in2="BackgroundImageFix" result="effect1_dropShadow_514_2"/>
<feBlend mode="normal" in="SourceGraphic" in2="effect1_dropShadow_514_2" result="shape"/>
</filter>
<filter id="filter8_d_514_2" x="321.714" y="58" width="57.2857" height="57.2858" filterUnits="userSpaceOnUse" color-interpolation-filters="sRGB">
<feFlood flood-opacity="0" result="BackgroundImageFix"/>
<feColorMatrix in="SourceAlpha" type="matrix" values="0 0 0 0 0 0 0 0 0 0 0 0 0 0 0 0 0 0 127 0" result="hardAlpha"/>
<feOffset dy="4"/>
<feGaussianBlur stdDeviation="2"/>
<feComposite in2="hardAlpha" operator="out"/>
<feColorMatrix type="matrix" values="0 0 0 0 0 0 0 0 0 0 0 0 0 0 0 0 0 0 0.25 0"/>
<feBlend mode="normal" in2="BackgroundImageFix" result="effect1_dropShadow_514_2"/>
<feBlend mode="normal" in="SourceGraphic" in2="effect1_dropShadow_514_2" result="shape"/>
</filter>
<filter id="filter9_d_514_2" x="469.571" y="353.714" width="57.2857" height="57.2858" filterUnits="userSpaceOnUse" color-interpolation-filters="sRGB">
<feFlood flood-opacity="0" result="BackgroundImageFix"/>
<feColorMatrix in="SourceAlpha" type="matrix" values="0 0 0 0 0 0 0 0 0 0 0 0 0 0 0 0 0 0 127 0" result="hardAlpha"/>
<feOffset dy="4"/>
<feGaussianBlur stdDeviation="2"/>
<feComposite in2="hardAlpha" operator="out"/>
<feColorMatrix type="matrix" values="0 0 0 0 0 0 0 0 0 0 0 0 0 0 0 0 0 0 0.25 0"/>
<feBlend mode="normal" in2="BackgroundImageFix" result="effect1_dropShadow_514_2"/>
<feBlend mode="normal" in="SourceGraphic" in2="effect1_dropShadow_514_2" result="shape"/>
</filter>
<filter id="filter10_d_514_2" x="469.571" y="255.143" width="57.2857" height="57.2858" filterUnits="userSpaceOnUse" color-interpolation-filters="sRGB">
<feFlood flood-opacity="0" result="BackgroundImageFix"/>
<feColorMatrix in="SourceAlpha" type="matrix" values="0 0 0 0 0 0 0 0 0 0 0 0 0 0 0 0 0 0 127 0" result="hardAlpha"/>
<feOffset dy="4"/>
<feGaussianBlur stdDeviation="2"/>
<feComposite in2="hardAlpha" operator="out"/>
<feColorMatrix type="matrix" values="0 0 0 0 0 0 0 0 0 0 0 0 0 0 0 0 0 0 0.25 0"/>
<feBlend mode="normal" in2="BackgroundImageFix" result="effect1_dropShadow_514_2"/>
<feBlend mode="normal" in="SourceGraphic" in2="effect1_dropShadow_514_2" result="shape"/>
</filter>
<filter id="filter11_d_514_2" x="247.786" y="353.714" width="57.2857" height="57.2858" filterUnits="userSpaceOnUse" color-interpolation-filters="sRGB">
<feFlood flood-opacity="0" result="BackgroundImageFix"/>
<feColorMatrix in="SourceAlpha" type="matrix" values="0 0 0 0 0 0 0 0 0 0 0 0 0 0 0 0 0 0 127 0" result="hardAlpha"/>
<feOffset dy="4"/>
<feGaussianBlur stdDeviation="2"/>
<feComposite in2="hardAlpha" operator="out"/>
<feColorMatrix type="matrix" values="0 0 0 0 0 0 0 0 0 0 0 0 0 0 0 0 0 0 0.25 0"/>
<feBlend mode="normal" in2="BackgroundImageFix" result="effect1_dropShadow_514_2"/>
<feBlend mode="normal" in="SourceGraphic" in2="effect1_dropShadow_514_2" result="shape"/>
</filter>
<filter id="filter12_d_514_2" x="26" y="156.571" width="57.2857" height="57.2858" filterUnits="userSpaceOnUse" color-interpolation-filters="sRGB">
<feFlood flood-opacity="0" result="BackgroundImageFix"/>
<feColorMatrix in="SourceAlpha" type="matrix" values="0 0 0 0 0 0 0 0 0 0 0 0 0 0 0 0 0 0 127 0" result="hardAlpha"/>
<feOffset dy="4"/>
<feGaussianBlur stdDeviation="2"/>
<feComposite in2="hardAlpha" operator="out"/>
<feColorMatrix type="matrix" values="0 0 0 0 0 0 0 0 0 0 0 0 0 0 0 0 0 0 0.25 0"/>
<feBlend mode="normal" in2="BackgroundImageFix" result="effect1_dropShadow_514_2"/>
<feBlend mode="normal" in="SourceGraphic" in2="effect1_dropShadow_514_2" result="shape"/>
</filter>
<filter id="filter13_d_514_2" x="173.857" y="58" width="57.2857" height="57.2858" filterUnits="userSpaceOnUse" color-interpolation-filters="sRGB">
<feFlood flood-opacity="0" result="BackgroundImageFix"/>
<feColorMatrix in="SourceAlpha" type="matrix" values="0 0 0 0 0 0 0 0 0 0 0 0 0 0 0 0 0 0 127 0" result="hardAlpha"/>
<feOffset dy="4"/>
<feGaussianBlur stdDeviation="2"/>
<feComposite in2="hardAlpha" operator="out"/>
<feColorMatrix type="matrix" values="0 0 0 0 0 0 0 0 0 0 0 0 0 0 0 0 0 0 0.25 0"/>
<feBlend mode="normal" in2="BackgroundImageFix" result="effect1_dropShadow_514_2"/>
<feBlend mode="normal" in="SourceGraphic" in2="effect1_dropShadow_514_2" result="shape"/>
</filter>
<filter id="filter14_d_514_2" x="247.786" y="58" width="57.2857" height="57.2858" filterUnits="userSpaceOnUse" color-interpolation-filters="sRGB">
<feFlood flood-opacity="0" result="BackgroundImageFix"/>
<feColorMatrix in="SourceAlpha" type="matrix" values="0 0 0 0 0 0 0 0 0 0 0 0 0 0 0 0 0 0 127 0" result="hardAlpha"/>
<feOffset dy="4"/>
<feGaussianBlur stdDeviation="2"/>
<feComposite in2="hardAlpha" operator="out"/>
<feColorMatrix type="matrix" values="0 0 0 0 0 0 0 0 0 0 0 0 0 0 0 0 0 0 0.25 0"/>
<feBlend mode="normal" in2="BackgroundImageFix" result="effect1_dropShadow_514_2"/>
<feBlend mode="normal" in="SourceGraphic" in2="effect1_dropShadow_514_2" result="shape"/>
</filter>
<filter id="filter15_d_514_2" x="26" y="255.143" width="57.2857" height="57.2858" filterUnits="userSpaceOnUse" color-interpolation-filters="sRGB">
<feFlood flood-opacity="0" result="BackgroundImageFix"/>
<feColorMatrix in="SourceAlpha" type="matrix" values="0 0 0 0 0 0 0 0 0 0 0 0 0 0 0 0 0 0 127 0" result="hardAlpha"/>
<feOffset dy="4"/>
<feGaussianBlur stdDeviation="2"/>
<feComposite in2="hardAlpha" operator="out"/>
<feColorMatrix type="matrix" values="0 0 0 0 0 0 0 0 0 0 0 0 0 0 0 0 0 0 0.25 0"/>
<feBlend mode="normal" in2="BackgroundImageFix" result="effect1_dropShadow_514_2"/>
<feBlend mode="normal" in="SourceGraphic" in2="effect1_dropShadow_514_2" result="shape"/>
</filter>
<filter id="filter16_d_514_2" x="99.9286" y="58" width="57.2857" height="57.2858" filterUnits="userSpaceOnUse" color-interpolation-filters="sRGB">
<feFlood flood-opacity="0" result="BackgroundImageFix"/>
<feColorMatrix in="SourceAlpha" type="matrix" values="0 0 0 0 0 0 0 0 0 0 0 0 0 0 0 0 0 0 127 0" result="hardAlpha"/>
<feOffset dy="4"/>
<feGaussianBlur stdDeviation="2"/>
<feComposite in2="hardAlpha" operator="out"/>
<feColorMatrix type="matrix" values="0 0 0 0 0 0 0 0 0 0 0 0 0 0 0 0 0 0 0.25 0"/>
<feBlend mode="normal" in2="BackgroundImageFix" result="effect1_dropShadow_514_2"/>
<feBlend mode="normal" in="SourceGraphic" in2="effect1_dropShadow_514_2" result="shape"/>
</filter>
<filter id="filter17_d_514_2" x="99.9286" y="255.143" width="57.2857" height="57.2858" filterUnits="userSpaceOnUse" color-interpolation-filters="sRGB">
<feFlood flood-opacity="0" result="BackgroundImageFix"/>
<feColorMatrix in="SourceAlpha" type="matrix" values="0 0 0 0 0 0 0 0 0 0 0 0 0 0 0 0 0 0 127 0" result="hardAlpha"/>
<feOffset dy="4"/>
<feGaussianBlur stdDeviation="2"/>
<feComposite in2="hardAlpha" operator="out"/>
<feColorMatrix type="matrix" values="0 0 0 0 0 0 0 0 0 0 0 0 0 0 0 0 0 0 0.25 0"/>
<feBlend mode="normal" in2="BackgroundImageFix" result="effect1_dropShadow_514_2"/>
<feBlend mode="normal" in="SourceGraphic" in2="effect1_dropShadow_514_2" result="shape"/>
</filter>
<filter id="filter18_d_514_2" x="247.786" y="156.571" width="57.2857" height="57.2858" filterUnits="userSpaceOnUse" color-interpolation-filters="sRGB">
<feFlood flood-opacity="0" result="BackgroundImageFix"/>
<feColorMatrix in="SourceAlpha" type="matrix" values="0 0 0 0 0 0 0 0 0 0 0 0 0 0 0 0 0 0 127 0" result="hardAlpha"/>
<feOffset dy="4"/>
<feGaussianBlur stdDeviation="2"/>
<feComposite in2="hardAlpha" operator="out"/>
<feColorMatrix type="matrix" values="0 0 0 0 0 0 0 0 0 0 0 0 0 0 0 0 0 0 0.25 0"/>
<feBlend mode="normal" in2="BackgroundImageFix" result="effect1_dropShadow_514_2"/>
<feBlend mode="normal" in="SourceGraphic" in2="effect1_dropShadow_514_2" result="shape"/>
</filter>
<filter id="filter19_d_514_2" x="26" y="353.714" width="57.2857" height="57.2858" filterUnits="userSpaceOnUse" color-interpolation-filters="sRGB">
<feFlood flood-opacity="0" result="BackgroundImageFix"/>
<feColorMatrix in="SourceAlpha" type="matrix" values="0 0 0 0 0 0 0 0 0 0 0 0 0 0 0 0 0 0 127 0" result="hardAlpha"/>
<feOffset dy="4"/>
<feGaussianBlur stdDeviation="2"/>
<feComposite in2="hardAlpha" operator="out"/>
<feColorMatrix type="matrix" values="0 0 0 0 0 0 0 0 0 0 0 0 0 0 0 0 0 0 0.25 0"/>
<feBlend mode="normal" in2="BackgroundImageFix" result="effect1_dropShadow_514_2"/>
<feBlend mode="normal" in="SourceGraphic" in2="effect1_dropShadow_514_2" result="shape"/>
</filter>
<filter id="filter20_d_514_2" x="173.857" y="156.571" width="57.2857" height="57.2858" filterUnits="userSpaceOnUse" color-interpolation-filters="sRGB">
<feFlood flood-opacity="0" result="BackgroundImageFix"/>
<feColorMatrix in="SourceAlpha" type="matrix" values="0 0 0 0 0 0 0 0 0 0 0 0 0 0 0 0 0 0 127 0" result="hardAlpha"/>
<feOffset dy="4"/>
<feGaussianBlur stdDeviation="2"/>
<feComposite in2="hardAlpha" operator="out"/>
<feColorMatrix type="matrix" values="0 0 0 0 0 0 0 0 0 0 0 0 0 0 0 0 0 0 0.25 0"/>
<feBlend mode="normal" in2="BackgroundImageFix" result="effect1_dropShadow_514_2"/>
<feBlend mode="normal" in="SourceGraphic" in2="effect1_dropShadow_514_2" result="shape"/>
</filter>
<filter id="filter21_d_514_2" x="395.643" y="255.143" width="57.2857" height="57.2858" filterUnits="userSpaceOnUse" color-interpolation-filters="sRGB">
<feFlood flood-opacity="0" result="BackgroundImageFix"/>
<feColorMatrix in="SourceAlpha" type="matrix" values="0 0 0 0 0 0 0 0 0 0 0 0 0 0 0 0 0 0 127 0" result="hardAlpha"/>
<feOffset dy="4"/>
<feGaussianBlur stdDeviation="2"/>
<feComposite in2="hardAlpha" operator="out"/>
<feColorMatrix type="matrix" values="0 0 0 0 0 0 0 0 0 0 0 0 0 0 0 0 0 0 0.25 0"/>
<feBlend mode="normal" in2="BackgroundImageFix" result="effect1_dropShadow_514_2"/>
<feBlend mode="normal" in="SourceGraphic" in2="effect1_dropShadow_514_2" result="shape"/>
</filter>
<filter id="filter22_d_514_2" x="321.714" y="156.571" width="57.2857" height="57.2858" filterUnits="userSpaceOnUse" color-interpolation-filters="sRGB">
<feFlood flood-opacity="0" result="BackgroundImageFix"/>
<feColorMatrix in="SourceAlpha" type="matrix" values="0 0 0 0 0 0 0 0 0 0 0 0 0 0 0 0 0 0 127 0" result="hardAlpha"/>
<feOffset dy="4"/>
<feGaussianBlur stdDeviation="2"/>
<feComposite in2="hardAlpha" operator="out"/>
<feColorMatrix type="matrix" values="0 0 0 0 0 0 0 0 0 0 0 0 0 0 0 0 0 0 0.25 0"/>
<feBlend mode="normal" in2="BackgroundImageFix" result="effect1_dropShadow_514_2"/>
<feBlend mode="normal" in="SourceGraphic" in2="effect1_dropShadow_514_2" result="shape"/>
</filter>
<filter id="filter23_d_514_2" x="321.714" y="255.143" width="57.2857" height="57.2858" filterUnits="userSpaceOnUse" color-interpolation-filters="sRGB">
<feFlood flood-opacity="0" result="BackgroundImageFix"/>
<feColorMatrix in="SourceAlpha" type="matrix" values="0 0 0 0 0 0 0 0 0 0 0 0 0 0 0 0 0 0 127 0" result="hardAlpha"/>
<feOffset dy="4"/>
<feGaussianBlur stdDeviation="2"/>
<feComposite in2="hardAlpha" operator="out"/>
<feColorMatrix type="matrix" values="0 0 0 0 0 0 0 0 0 0 0 0 0 0 0 0 0 0 0.25 0"/>
<feBlend mode="normal" in2="BackgroundImageFix" result="effect1_dropShadow_514_2"/>
<feBlend mode="normal" in="SourceGraphic" in2="effect1_dropShadow_514_2" result="shape"/>
</filter>
<filter id="filter24_d_514_2" x="395.643" y="353.714" width="57.2857" height="57.2858" filterUnits="userSpaceOnUse" color-interpolation-filters="sRGB">
<feFlood flood-opacity="0" result="BackgroundImageFix"/>
<feColorMatrix in="SourceAlpha" type="matrix" values="0 0 0 0 0 0 0 0 0 0 0 0 0 0 0 0 0 0 127 0" result="hardAlpha"/>
<feOffset dy="4"/>
<feGaussianBlur stdDeviation="2"/>
<feComposite in2="hardAlpha" operator="out"/>
<feColorMatrix type="matrix" values="0 0 0 0 0 0 0 0 0 0 0 0 0 0 0 0 0 0 0.25 0"/>
<feBlend mode="normal" in2="BackgroundImageFix" result="effect1_dropShadow_514_2"/>
<feBlend mode="normal" in="SourceGraphic" in2="effect1_dropShadow_514_2" result="shape"/>
</filter>
<filter id="filter25_d_514_2" x="99.9286" y="156.571" width="57.2857" height="57.2858" filterUnits="userSpaceOnUse" color-interpolation-filters="sRGB">
<feFlood flood-opacity="0" result="BackgroundImageFix"/>
<feColorMatrix in="SourceAlpha" type="matrix" values="0 0 0 0 0 0 0 0 0 0 0 0 0 0 0 0 0 0 127 0" result="hardAlpha"/>
<feOffset dy="4"/>
<feGaussianBlur stdDeviation="2"/>
<feComposite in2="hardAlpha" operator="out"/>
<feColorMatrix type="matrix" values="0 0 0 0 0 0 0 0 0 0 0 0 0 0 0 0 0 0 0.25 0"/>
<feBlend mode="normal" in2="BackgroundImageFix" result="effect1_dropShadow_514_2"/>
<feBlend mode="normal" in="SourceGraphic" in2="effect1_dropShadow_514_2" result="shape"/>
</filter>
<filter id="filter26_d_514_2" x="395.643" y="156.571" width="57.2857" height="57.2858" filterUnits="userSpaceOnUse" color-interpolation-filters="sRGB">
<feFlood flood-opacity="0" result="BackgroundImageFix"/>
<feColorMatrix in="SourceAlpha" type="matrix" values="0 0 0 0 0 0 0 0 0 0 0 0 0 0 0 0 0 0 127 0" result="hardAlpha"/>
<feOffset dy="4"/>
<feGaussianBlur stdDeviation="2"/>
<feComposite in2="hardAlpha" operator="out"/>
<feColorMatrix type="matrix" values="0 0 0 0 0 0 0 0 0 0 0 0 0 0 0 0 0 0 0.25 0"/>
<feBlend mode="normal" in2="BackgroundImageFix" result="effect1_dropShadow_514_2"/>
<feBlend mode="normal" in="SourceGraphic" in2="effect1_dropShadow_514_2" result="shape"/>
</filter>
<filter id="filter27_d_514_2" x="321.714" y="353.714" width="57.2857" height="57.2858" filterUnits="userSpaceOnUse" color-interpolation-filters="sRGB">
<feFlood flood-opacity="0" result="BackgroundImageFix"/>
<feColorMatrix in="SourceAlpha" type="matrix" values="0 0 0 0 0 0 0 0 0 0 0 0 0 0 0 0 0 0 127 0" result="hardAlpha"/>
<feOffset dy="4"/>
<feGaussianBlur stdDeviation="2"/>
<feComposite in2="hardAlpha" operator="out"/>
<feColorMatrix type="matrix" values="0 0 0 0 0 0 0 0 0 0 0 0 0 0 0 0 0 0 0.25 0"/>
<feBlend mode="normal" in2="BackgroundImageFix" result="effect1_dropShadow_514_2"/>
<feBlend mode="normal" in="SourceGraphic" in2="effect1_dropShadow_514_2" result="shape"/>
</filter>
</defs>
</svg>
