<svg  viewBox="0 0 656 469" fill="none" xmlns="http://www.w3.org/2000/svg">
<rect  width="656" height="469" rx="20" fill="#81B29A"/>
<g filter="url(#filter0_f_159_82)">
<path d="M100 100H558L574 344L569 422H516L118 412L100 100Z" fill="white" fill-opacity="0.4"/>
</g>
<path d="M154.566 104C153.613 109.554 139.331 109.554 137.426 104L126 110.665L127.904 121.774L133.617 119.507V143.992H158.374V119.507L164.087 121.774L165.992 110.665L154.566 104Z" fill="#4A5952"/>
<rect x="252.558" y="118.417" width="36.3711" height="2.0325" fill="#4A5952"/>
<rect x="252.558" y="126.547" width="36.3711" height="2.24799" fill="#4A5952"/>
<ellipse cx="270.744" cy="123.498" rx="20.325" ry="1.01625" fill="#4A5952"/>
<path fill-rule="evenodd" clip-rule="evenodd" d="M250.419 116.384C250.419 110.772 259.519 106.222 270.744 106.222C281.969 106.222 291.069 110.772 291.069 116.384H250.419ZM259.53 110.475C259.917 110.475 260.231 110.075 260.231 109.583C260.231 109.09 259.917 108.69 259.53 108.69C259.143 108.69 258.829 109.09 258.829 109.583C258.829 110.075 259.143 110.475 259.53 110.475ZM284.06 109.583C284.06 110.075 283.746 110.475 283.359 110.475C282.972 110.475 282.658 110.075 282.658 109.583C282.658 109.09 282.972 108.69 283.359 108.69C283.746 108.69 284.06 109.09 284.06 109.583ZM276.35 112.258C276.737 112.258 277.051 111.859 277.051 111.366C277.051 110.874 276.737 110.474 276.35 110.474C275.963 110.474 275.649 110.874 275.649 111.366C275.649 111.859 275.963 112.258 276.35 112.258ZM265.837 111.366C265.837 111.859 265.524 112.258 265.137 112.258C264.749 112.258 264.436 111.859 264.436 111.366C264.436 110.874 264.749 110.474 265.137 110.474C265.524 110.474 265.837 110.874 265.837 111.366ZM270.743 110.475C271.13 110.475 271.444 110.075 271.444 109.583C271.444 109.09 271.13 108.69 270.743 108.69C270.356 108.69 270.042 109.09 270.042 109.583C270.042 110.075 270.356 110.475 270.743 110.475Z" fill="#4A5952"/>
<path fill-rule="evenodd" clip-rule="evenodd" d="M250.419 130.612C250.419 136.224 259.519 140.774 270.744 140.774C281.969 140.774 291.069 136.224 291.069 130.612H250.419ZM259.53 136.521C259.917 136.521 260.231 136.921 260.231 137.413C260.231 137.906 259.917 138.305 259.53 138.305C259.143 138.305 258.829 137.906 258.829 137.413C258.829 136.921 259.143 136.521 259.53 136.521ZM284.06 137.413C284.06 136.921 283.746 136.521 283.359 136.521C282.972 136.521 282.658 136.921 282.658 137.413C282.658 137.906 282.972 138.305 283.359 138.305C283.746 138.305 284.06 137.906 284.06 137.413ZM276.35 134.737C276.737 134.737 277.051 135.137 277.051 135.63C277.051 136.122 276.737 136.522 276.35 136.522C275.963 136.522 275.649 136.122 275.649 135.63C275.649 135.137 275.963 134.737 276.35 134.737ZM265.837 135.63C265.837 135.137 265.524 134.737 265.137 134.737C264.749 134.737 264.436 135.137 264.436 135.63C264.436 136.122 264.749 136.522 265.137 136.522C265.524 136.522 265.837 136.122 265.837 135.63ZM270.743 136.521C271.13 136.521 271.444 136.921 271.444 137.413C271.444 137.906 271.13 138.305 270.743 138.305C270.356 138.305 270.042 137.906 270.042 137.413C270.042 136.921 270.356 136.521 270.743 136.521Z" fill="#4A5952"/>
<path fill-rule="evenodd" clip-rule="evenodd" d="M337.574 120.026L338.54 114.696L342.115 107.333L336.438 108.647L330.941 115.636L325.013 111.713C320.159 110.247 312.818 113.985 313.834 121.099L327.966 127.094V135.272L333.048 139.853V131.723L333.944 129.63L347.37 135.326L354.484 124.511L345.338 125.164L337.574 120.026Z" fill="#648E7A"/>
<rect x="385.597" y="119.53" width="23.6727" height="5.54319" rx="1" fill="#4A5952"/>
<rect x="376.666" y="118.606" width="7.31752" height="6.09793" rx="1" fill="#4A5952"/>
<rect x="374.837" y="122.302" width="36.5851" height="11.0864" rx="1" fill="#4A5952"/>
<rect x="374.837" y="130.616" width="4.30442" height="8.31536" fill="#4A5952"/>
<rect x="407.119" y="130.616" width="4.30442" height="8.31536" fill="#4A5952"/>
<line x1="375.337" y1="108.444" x2="375.337" y2="125.073" stroke="#4A5952"/>
<path d="M437.765 116.157C437.765 115.692 438.142 115.315 438.607 115.315H469.849C470.314 115.315 470.691 115.692 470.691 116.157V138.956H437.765V116.157Z" fill="#648E7A"/>
<rect x="440.015" y="106.643" width="12.932" height="7.2941" rx="0.421053" stroke="#648E7A" stroke-width="0.842105"/>
<path fill-rule="evenodd" clip-rule="evenodd" d="M455.089 109.859H453.368V110.701L455.089 110.701V109.859ZM468.863 110.701L471.679 110.701V139.932L436.778 139.932V110.701L439.594 110.701V109.859H436.778C436.313 109.859 435.936 110.236 435.936 110.701V139.932C435.936 140.397 436.313 140.774 436.778 140.774H471.679C472.144 140.774 472.521 140.397 472.521 139.932V110.701C472.521 110.236 472.144 109.859 471.679 109.859H468.863V110.701Z" fill="#648E7A"/>
<rect x="455.51" y="106.643" width="12.932" height="7.2941" rx="0.421053" stroke="#648E7A" stroke-width="0.842105"/>
<rect x="517.437" y="197.643" width="1.75219" height="20.325" fill="#4A5952"/>
<rect x="513.929" y="216.274" width="8.76962" height="1.69387" fill="#4A5952"/>
<path fill-rule="evenodd" clip-rule="evenodd" d="M510.254 197.47L512.63 201.294L512.776 201.53H513.054H523.577H523.855L524.002 201.294L529.263 192.826L529.738 192.062H528.839H515.575C515.512 192.405 515.422 192.739 515.308 193.062H527.939L523.299 200.53H513.332L511.246 197.172C510.926 197.294 510.595 197.394 510.254 197.47Z" fill="#4A5952"/>
<path fill-rule="evenodd" clip-rule="evenodd" d="M510.422 196.107L512.787 201.031H522.735L526.208 195.949H510.648C510.574 196.003 510.499 196.055 510.422 196.107Z" fill="#4A5952"/>
<path d="M515.184 190.869C515.184 194.318 512.284 197.144 508.669 197.144C505.053 197.144 502.153 194.318 502.153 190.869C502.153 187.419 505.053 184.593 508.669 184.593C512.284 184.593 515.184 187.419 515.184 190.869Z" stroke="#4A5952"/>
<path d="M498.145 182.4L505.161 177.318L507.792 184.941" stroke="#4A5952"/>
<path fill-rule="evenodd" clip-rule="evenodd" d="M189.209 113.25C188.657 113.25 188.209 113.698 188.209 114.25V138.118C188.209 138.67 188.657 139.118 189.209 139.118H227.859C228.412 139.118 228.859 138.67 228.859 138.118V114.25C228.859 113.698 228.412 113.25 227.859 113.25H189.209ZM208.534 135.977C214.147 135.977 218.697 131.427 218.697 125.814C218.697 120.202 214.147 115.652 208.534 115.652C202.922 115.652 198.372 120.202 198.372 125.814C198.372 131.427 202.922 135.977 208.534 135.977Z" fill="#648E7A"/>
<circle cx="208.534" cy="125.814" r="8.13001" fill="#648E7A"/>
<mask id="path-28-inside-1_159_82" fill="white">
<path fill-rule="evenodd" clip-rule="evenodd" d="M224.795 109.554H214.632V115.652H224.795V109.554ZM222.763 111.587H216.665V113.62H222.763V111.587Z"/>
</mask>
<path fill-rule="evenodd" clip-rule="evenodd" d="M224.795 109.554H214.632V115.652H224.795V109.554ZM222.763 111.587H216.665V113.62H222.763V111.587Z" fill="white"/>
<path d="M214.632 109.554V108.554H213.632V109.554H214.632ZM224.795 109.554H225.795V108.554H224.795V109.554ZM214.632 115.652H213.632V116.652H214.632V115.652ZM224.795 115.652V116.652H225.795V115.652H224.795ZM216.665 111.587V110.587H215.665V111.587H216.665ZM222.763 111.587H223.763V110.587H222.763V111.587ZM216.665 113.62H215.665V114.62H216.665V113.62ZM222.763 113.62V114.62H223.763V113.62H222.763ZM214.632 110.554H224.795V108.554H214.632V110.554ZM215.632 115.652V109.554H213.632V115.652H215.632ZM224.795 114.652H214.632V116.652H224.795V114.652ZM223.795 109.554V115.652H225.795V109.554H223.795ZM216.665 112.587H222.763V110.587H216.665V112.587ZM217.665 113.62V111.587H215.665V113.62H217.665ZM222.763 112.62H216.665V114.62H222.763V112.62ZM221.763 111.587V113.62H223.763V111.587H221.763Z" fill="#648E7A" mask="url(#path-28-inside-1_159_82)"/>
<path d="M134.711 294.265C137.615 294.265 137.615 291.353 137.615 287.761H131.807C131.807 291.353 131.807 294.265 134.711 294.265Z" fill="#4A5952"/>
<path d="M157.94 294.265C160.843 294.265 160.843 291.353 160.843 287.761H155.036C155.036 291.353 155.036 294.265 157.94 294.265Z" fill="#4A5952"/>
<path fill-rule="evenodd" clip-rule="evenodd" d="M134.312 261.745C132.885 261.745 131.687 262.817 131.529 264.235L129.831 279.448C129.646 281.107 130.944 282.558 132.614 282.558H160.528C162.229 282.558 163.536 281.055 163.302 279.371L161.179 264.158C160.986 262.775 159.803 261.745 158.406 261.745H134.312ZM157.358 265.648H135.872L134.71 276.054H158.52L157.358 265.648Z" fill="#4A5952"/>
<path d="M144.003 272.151L134.711 277.355" stroke="#4A5952" stroke-width="0.56"/>
<path d="M156.198 272.151L146.906 277.355" stroke="#4A5952" stroke-width="0.56"/>
<path fill-rule="evenodd" clip-rule="evenodd" d="M126 278.474C126 277.856 126.501 277.354 127.12 277.354H165.53C166.149 277.354 166.65 277.856 166.65 278.474V287.942C166.65 288.56 166.149 289.062 165.53 289.062H127.12C126.501 289.062 126 288.56 126 287.942V278.474ZM137.615 283.208C137.615 285.005 136.315 286.461 134.711 286.461C133.107 286.461 131.807 285.005 131.807 283.208C131.807 281.412 133.107 279.956 134.711 279.956C136.315 279.956 137.615 281.412 137.615 283.208ZM157.939 286.461C159.543 286.461 160.843 285.005 160.843 283.208C160.843 281.412 159.543 279.956 157.939 279.956C156.336 279.956 155.036 281.412 155.036 283.208C155.036 285.005 156.336 286.461 157.939 286.461Z" fill="#4A5952"/>
<rect x="127.161" y="273.452" width="3.48453" height="2.6018" rx="0.56" fill="#4A5952"/>
<rect x="162.004" y="273.452" width="3.48453" height="2.6018" rx="0.56" fill="#4A5952"/>
<path d="M188.485 267.53C188.344 266.905 188.819 266.309 189.461 266.309H218.115C218.692 266.309 219.15 266.797 219.113 267.373L218.079 283.63C218.045 284.156 217.609 284.566 217.081 284.566H193.138C192.671 284.566 192.266 284.243 192.162 283.787L188.485 267.53Z" fill="#648E7A"/>
<path d="M227.859 261.745H222.055C221.527 261.745 221.09 262.155 221.057 262.682L220.936 264.598H227.859C228.411 264.598 228.859 264.15 228.859 263.598V262.745C228.859 262.193 228.411 261.745 227.859 261.745Z" fill="#648E7A"/>
<path d="M191.693 286.278H218.629C219.157 286.278 219.594 285.867 219.627 285.341L220.936 264.598M220.936 264.598L221.057 262.682C221.09 262.155 221.527 261.745 222.055 261.745H227.859C228.411 261.745 228.859 262.193 228.859 262.745V263.598C228.859 264.15 228.411 264.598 227.859 264.598H220.936Z" stroke="#648E7A" stroke-linecap="round"/>
<ellipse cx="197.372" cy="290.272" rx="3.61359" ry="3.99397" fill="#648E7A"/>
<ellipse cx="212.858" cy="290.272" rx="3.61359" ry="3.99397" fill="#648E7A"/>
<mask id="path-43-inside-2_159_82" fill="white">
<path fill-rule="evenodd" clip-rule="evenodd" d="M206.611 366.863C204.706 369.238 201.823 370.751 198.598 370.751C192.86 370.751 188.209 365.964 188.209 360.059C188.209 354.153 192.86 349.366 198.598 349.366C198.749 349.366 198.9 349.369 199.049 349.376V349.366H218.019V349.376C218.169 349.369 218.32 349.366 218.471 349.366C224.209 349.366 228.86 354.153 228.86 360.059C228.86 365.964 224.209 370.751 218.471 370.751C215.245 370.751 212.363 369.238 210.457 366.863H206.611ZM199.711 357.143L198.146 354.227L196.581 357.143H199.711ZM192.726 360.059L195.436 358.375V361.742L192.726 360.059ZM200.856 361.743L203.566 360.059L200.856 358.375V361.743ZM198.146 365.891L199.711 362.975H196.581L198.146 365.891ZM199.388 360.059C199.388 360.86 198.794 361.438 198.146 361.438C197.499 361.438 196.905 360.86 196.905 360.059C196.905 359.258 197.499 358.68 198.146 358.68C198.794 358.68 199.388 359.258 199.388 360.059ZM199.953 360.059C199.953 361.133 199.144 362.003 198.146 362.003C197.148 362.003 196.339 361.133 196.339 360.059C196.339 358.985 197.148 358.115 198.146 358.115C199.144 358.115 199.953 358.985 199.953 360.059ZM218.923 358.087C219.55 358.087 220.181 357.517 220.181 356.657C220.181 355.797 219.55 355.227 218.923 355.227C218.296 355.227 217.665 355.797 217.665 356.657C217.665 357.517 218.296 358.087 218.923 358.087ZM218.923 359.087C220.17 359.087 221.181 357.999 221.181 356.657C221.181 355.315 220.17 354.227 218.923 354.227C217.676 354.227 216.665 355.315 216.665 356.657C216.665 357.999 217.676 359.087 218.923 359.087ZM220.181 365.052C220.181 365.912 219.55 366.482 218.923 366.482C218.296 366.482 217.665 365.912 217.665 365.052C217.665 364.192 218.296 363.621 218.923 363.621C219.55 363.621 220.181 364.192 220.181 365.052ZM221.181 365.052C221.181 366.394 220.17 367.482 218.923 367.482C217.676 367.482 216.665 366.394 216.665 365.052C216.665 363.71 217.676 362.621 218.923 362.621C220.17 362.621 221.181 363.71 221.181 365.052ZM222.988 362.41C223.885 362.41 224.681 361.615 224.681 360.545C224.681 359.475 223.885 358.68 222.988 358.68C222.091 358.68 221.295 359.475 221.295 360.545C221.295 361.615 222.091 362.41 222.988 362.41ZM222.988 362.975C224.235 362.975 225.246 361.887 225.246 360.545C225.246 359.203 224.235 358.115 222.988 358.115C221.741 358.115 220.729 359.203 220.729 360.545C220.729 361.887 221.741 362.975 222.988 362.975ZM216.551 360.545C216.551 361.615 215.755 362.41 214.858 362.41C213.961 362.41 213.165 361.615 213.165 360.545C213.165 359.475 213.961 358.68 214.858 358.68C215.755 358.68 216.551 359.475 216.551 360.545ZM217.116 360.545C217.116 361.887 216.105 362.975 214.858 362.975C213.61 362.975 212.599 361.887 212.599 360.545C212.599 359.203 213.61 358.115 214.858 358.115C216.105 358.115 217.116 359.203 217.116 360.545Z"/>
</mask>
<path fill-rule="evenodd" clip-rule="evenodd" d="M206.611 366.863C204.706 369.238 201.823 370.751 198.598 370.751C192.86 370.751 188.209 365.964 188.209 360.059C188.209 354.153 192.86 349.366 198.598 349.366C198.749 349.366 198.9 349.369 199.049 349.376V349.366H218.019V349.376C218.169 349.369 218.32 349.366 218.471 349.366C224.209 349.366 228.86 354.153 228.86 360.059C228.86 365.964 224.209 370.751 218.471 370.751C215.245 370.751 212.363 369.238 210.457 366.863H206.611ZM199.711 357.143L198.146 354.227L196.581 357.143H199.711ZM192.726 360.059L195.436 358.375V361.742L192.726 360.059ZM200.856 361.743L203.566 360.059L200.856 358.375V361.743ZM198.146 365.891L199.711 362.975H196.581L198.146 365.891ZM199.388 360.059C199.388 360.86 198.794 361.438 198.146 361.438C197.499 361.438 196.905 360.86 196.905 360.059C196.905 359.258 197.499 358.68 198.146 358.68C198.794 358.68 199.388 359.258 199.388 360.059ZM199.953 360.059C199.953 361.133 199.144 362.003 198.146 362.003C197.148 362.003 196.339 361.133 196.339 360.059C196.339 358.985 197.148 358.115 198.146 358.115C199.144 358.115 199.953 358.985 199.953 360.059ZM218.923 358.087C219.55 358.087 220.181 357.517 220.181 356.657C220.181 355.797 219.55 355.227 218.923 355.227C218.296 355.227 217.665 355.797 217.665 356.657C217.665 357.517 218.296 358.087 218.923 358.087ZM218.923 359.087C220.17 359.087 221.181 357.999 221.181 356.657C221.181 355.315 220.17 354.227 218.923 354.227C217.676 354.227 216.665 355.315 216.665 356.657C216.665 357.999 217.676 359.087 218.923 359.087ZM220.181 365.052C220.181 365.912 219.55 366.482 218.923 366.482C218.296 366.482 217.665 365.912 217.665 365.052C217.665 364.192 218.296 363.621 218.923 363.621C219.55 363.621 220.181 364.192 220.181 365.052ZM221.181 365.052C221.181 366.394 220.17 367.482 218.923 367.482C217.676 367.482 216.665 366.394 216.665 365.052C216.665 363.71 217.676 362.621 218.923 362.621C220.17 362.621 221.181 363.71 221.181 365.052ZM222.988 362.41C223.885 362.41 224.681 361.615 224.681 360.545C224.681 359.475 223.885 358.68 222.988 358.68C222.091 358.68 221.295 359.475 221.295 360.545C221.295 361.615 222.091 362.41 222.988 362.41ZM222.988 362.975C224.235 362.975 225.246 361.887 225.246 360.545C225.246 359.203 224.235 358.115 222.988 358.115C221.741 358.115 220.729 359.203 220.729 360.545C220.729 361.887 221.741 362.975 222.988 362.975ZM216.551 360.545C216.551 361.615 215.755 362.41 214.858 362.41C213.961 362.41 213.165 361.615 213.165 360.545C213.165 359.475 213.961 358.68 214.858 358.68C215.755 358.68 216.551 359.475 216.551 360.545ZM217.116 360.545C217.116 361.887 216.105 362.975 214.858 362.975C213.61 362.975 212.599 361.887 212.599 360.545C212.599 359.203 213.61 358.115 214.858 358.115C216.105 358.115 217.116 359.203 217.116 360.545Z" fill="#648E7A"/>
<path d="M206.611 366.863V365.733H206.069L205.73 366.156L206.611 366.863ZM199.049 349.376L199 350.505L200.18 350.557V349.376H199.049ZM199.049 349.366V348.235H197.919V349.366H199.049ZM218.019 349.366H219.15V348.235H218.019V349.366ZM218.019 349.376H216.889V350.557L218.069 350.505L218.019 349.376ZM210.457 366.863L211.339 366.156L211 365.733H210.457V366.863ZM198.146 354.227L199.142 353.692L198.146 351.835L197.15 353.692L198.146 354.227ZM199.711 357.143V358.273H201.6L200.707 356.609L199.711 357.143ZM196.581 357.143L195.585 356.609L194.692 358.273H196.581V357.143ZM195.436 358.375H196.567V356.342L194.84 357.415L195.436 358.375ZM192.726 360.059L192.13 359.098L190.584 360.059L192.13 361.019L192.726 360.059ZM195.436 361.742L194.84 362.703L196.567 363.776V361.742H195.436ZM203.566 360.059L204.163 361.019L205.708 360.059L204.163 359.099L203.566 360.059ZM200.856 361.743H199.725V363.776L201.452 362.703L200.856 361.743ZM200.856 358.375L201.452 357.415L199.725 356.342V358.375H200.856ZM199.711 362.975L200.707 363.509L201.6 361.844H199.711V362.975ZM198.146 365.891L197.15 366.426L198.146 368.282L199.142 366.426L198.146 365.891ZM196.581 362.975V361.844H194.692L195.585 363.509L196.581 362.975ZM198.598 371.882C202.188 371.882 205.387 370.196 207.493 367.571L205.73 366.156C204.025 368.28 201.459 369.621 198.598 369.621V371.882ZM187.079 360.059C187.079 366.557 192.205 371.882 198.598 371.882V369.621C193.515 369.621 189.34 365.371 189.34 360.059H187.079ZM198.598 348.235C192.205 348.235 187.079 353.56 187.079 360.059H189.34C189.34 354.746 193.515 350.496 198.598 350.496V348.235ZM199.099 348.246C198.933 348.239 198.766 348.235 198.598 348.235V350.496C198.732 350.496 198.866 350.499 199 350.505L199.099 348.246ZM197.919 349.366V349.376H200.18V349.366H197.919ZM218.019 348.235H199.049V350.496H218.019V348.235ZM219.15 349.376V349.366H216.889V349.376H219.15ZM218.471 348.235C218.303 348.235 218.136 348.239 217.97 348.246L218.069 350.505C218.202 350.499 218.336 350.496 218.471 350.496V348.235ZM229.99 360.059C229.99 353.56 224.863 348.235 218.471 348.235V350.496C223.554 350.496 227.729 354.746 227.729 360.059H229.99ZM218.471 371.882C224.863 371.882 229.99 366.557 229.99 360.059H227.729C227.729 365.371 223.554 369.621 218.471 369.621V371.882ZM209.576 367.57C211.682 370.196 214.881 371.882 218.471 371.882V369.621C215.609 369.621 213.044 368.28 211.339 366.156L209.576 367.57ZM206.611 367.993H210.457V365.733H206.611V367.993ZM197.15 354.761L198.715 357.677L200.707 356.609L199.142 353.692L197.15 354.761ZM197.578 357.677L199.142 354.761L197.15 353.692L195.585 356.609L197.578 357.677ZM199.711 356.013H196.581V358.273H199.711V356.013ZM194.84 357.415L192.13 359.098L193.323 361.019L196.033 359.335L194.84 357.415ZM196.567 361.742V358.375H194.306V361.742H196.567ZM192.13 361.019L194.84 362.703L196.033 360.782L193.323 359.098L192.13 361.019ZM202.97 359.099L200.259 360.783L201.452 362.703L204.163 361.019L202.97 359.099ZM200.259 359.335L202.97 361.019L204.163 359.099L201.452 357.415L200.259 359.335ZM201.986 361.743V358.375H199.725V361.743H201.986ZM198.715 362.44L197.15 365.357L199.142 366.426L200.707 363.509L198.715 362.44ZM196.581 364.105H199.711V361.844H196.581V364.105ZM199.142 365.357L197.578 362.44L195.585 363.509L197.15 366.426L199.142 365.357ZM198.146 362.569C199.485 362.569 200.518 361.416 200.518 360.059H198.257C198.257 360.174 198.217 360.242 198.185 360.276C198.149 360.314 198.129 360.308 198.146 360.308V362.569ZM195.774 360.059C195.774 361.416 196.808 362.569 198.146 362.569V360.308C198.164 360.308 198.143 360.314 198.107 360.276C198.075 360.242 198.035 360.174 198.035 360.059H195.774ZM198.146 357.55C196.808 357.55 195.774 358.702 195.774 360.059H198.035C198.035 359.944 198.075 359.876 198.107 359.842C198.143 359.804 198.164 359.81 198.146 359.81V357.55ZM200.518 360.059C200.518 358.702 199.485 357.55 198.146 357.55V359.81C198.129 359.81 198.149 359.804 198.185 359.842C198.217 359.876 198.257 359.944 198.257 360.059H200.518ZM198.146 363.134C199.845 363.134 201.083 361.678 201.083 360.059H198.823C198.823 360.588 198.443 360.873 198.146 360.873V363.134ZM195.209 360.059C195.209 361.678 196.447 363.134 198.146 363.134V360.873C197.849 360.873 197.47 360.588 197.47 360.059H195.209ZM198.146 356.984C196.447 356.984 195.209 358.44 195.209 360.059H197.47C197.47 359.53 197.849 359.245 198.146 359.245V356.984ZM201.083 360.059C201.083 358.44 199.845 356.984 198.146 356.984V359.245C198.443 359.245 198.823 359.53 198.823 360.059H201.083ZM219.051 356.657C219.051 356.954 218.866 356.957 218.923 356.957V359.218C220.234 359.218 221.312 358.08 221.312 356.657H219.051ZM218.923 356.357C218.866 356.357 219.051 356.359 219.051 356.657H221.312C221.312 355.234 220.234 354.096 218.923 354.096V356.357ZM218.795 356.657C218.795 356.359 218.98 356.357 218.923 356.357V354.096C217.612 354.096 216.534 355.234 216.534 356.657H218.795ZM218.923 356.957C218.98 356.957 218.795 356.954 218.795 356.657H216.534C216.534 358.08 217.612 359.218 218.923 359.218V356.957ZM220.051 356.657C220.051 357.454 219.469 357.957 218.923 357.957V360.218C220.871 360.218 222.312 358.544 222.312 356.657H220.051ZM218.923 355.357C219.469 355.357 220.051 355.859 220.051 356.657H222.312C222.312 354.77 220.871 353.096 218.923 353.096V355.357ZM217.795 356.657C217.795 355.859 218.377 355.357 218.923 355.357V353.096C216.975 353.096 215.534 354.77 215.534 356.657H217.795ZM218.923 357.957C218.377 357.957 217.795 357.454 217.795 356.657H215.534C215.534 358.544 216.975 360.218 218.923 360.218V357.957ZM218.923 367.613C220.234 367.613 221.312 366.475 221.312 365.052H219.051C219.051 365.349 218.866 365.352 218.923 365.352V367.613ZM216.534 365.052C216.534 366.475 217.612 367.613 218.923 367.613V365.352C218.98 365.352 218.795 365.349 218.795 365.052H216.534ZM218.923 362.491C217.612 362.491 216.534 363.629 216.534 365.052H218.795C218.795 364.754 218.98 364.752 218.923 364.752V362.491ZM221.312 365.052C221.312 363.629 220.234 362.491 218.923 362.491V364.752C218.866 364.752 219.051 364.754 219.051 365.052H221.312ZM218.923 368.613C220.871 368.613 222.312 366.939 222.312 365.052H220.051C220.051 365.849 219.469 366.352 218.923 366.352V368.613ZM215.534 365.052C215.534 366.939 216.975 368.613 218.923 368.613V366.352C218.377 366.352 217.795 365.849 217.795 365.052H215.534ZM218.923 361.491C216.975 361.491 215.534 363.165 215.534 365.052H217.795C217.795 364.254 218.377 363.752 218.923 363.752V361.491ZM222.312 365.052C222.312 363.165 220.871 361.491 218.923 361.491V363.752C219.469 363.752 220.051 364.254 220.051 365.052H222.312ZM223.551 360.545C223.551 361.062 223.191 361.28 222.988 361.28V363.541C224.579 363.541 225.812 362.167 225.812 360.545H223.551ZM222.988 359.81C223.191 359.81 223.551 360.028 223.551 360.545H225.812C225.812 358.923 224.579 357.55 222.988 357.55V359.81ZM222.425 360.545C222.425 360.028 222.785 359.81 222.988 359.81V357.55C221.397 357.55 220.164 358.923 220.164 360.545H222.425ZM222.988 361.28C222.785 361.28 222.425 361.062 222.425 360.545H220.164C220.164 362.167 221.397 363.541 222.988 363.541V361.28ZM224.116 360.545C224.116 361.343 223.534 361.845 222.988 361.845V364.106C224.936 364.106 226.377 362.432 226.377 360.545H224.116ZM222.988 359.245C223.534 359.245 224.116 359.748 224.116 360.545H226.377C226.377 358.658 224.936 356.984 222.988 356.984V359.245ZM221.86 360.545C221.86 359.748 222.442 359.245 222.988 359.245V356.984C221.04 356.984 219.599 358.658 219.599 360.545H221.86ZM222.988 361.845C222.442 361.845 221.86 361.343 221.86 360.545H219.599C219.599 362.432 221.04 364.106 222.988 364.106V361.845ZM214.858 363.541C216.448 363.541 217.682 362.167 217.682 360.545H215.421C215.421 361.062 215.061 361.28 214.858 361.28V363.541ZM212.034 360.545C212.034 362.167 213.267 363.541 214.858 363.541V361.28C214.655 361.28 214.295 361.062 214.295 360.545H212.034ZM214.858 357.55C213.267 357.55 212.034 358.923 212.034 360.545H214.295C214.295 360.028 214.655 359.81 214.858 359.81V357.55ZM217.682 360.545C217.682 358.923 216.448 357.55 214.858 357.55V359.81C215.061 359.81 215.421 360.028 215.421 360.545H217.682ZM214.858 364.106C216.806 364.106 218.247 362.432 218.247 360.545H215.986C215.986 361.343 215.404 361.845 214.858 361.845V364.106ZM211.469 360.545C211.469 362.432 212.91 364.106 214.858 364.106V361.845C214.311 361.845 213.73 361.343 213.73 360.545H211.469ZM214.858 356.984C212.91 356.984 211.469 358.658 211.469 360.545H213.73C213.73 359.748 214.311 359.245 214.858 359.245V356.984ZM218.247 360.545C218.247 358.658 216.806 356.984 214.858 356.984V359.245C215.404 359.245 215.986 359.748 215.986 360.545H218.247Z" fill="#648E7A" mask="url(#path-43-inside-2_159_82)"/>
<rect x="197.242" y="348.394" width="21.68" height="3.88829" rx="0.56522" fill="#648E7A"/>
<path d="M380.047 211.059C374.352 204.978 382.88 186.986 388.812 180.651C393.558 186.986 400.691 201.177 397.844 207.258C394.285 214.861 387.166 218.662 380.047 211.059Z" fill="#4A5952"/>
<path d="M401.278 195.205C399 192.701 402.411 185.292 404.785 182.683C406.683 185.292 409.537 191.136 408.398 193.64C406.974 196.77 404.126 198.336 401.278 195.205Z" fill="#4A5952"/>
<path d="M442.128 197.643L459.36 177.318L455.914 194.256L468.55 197.643L451.647 217.968L455.914 201.031L442.128 197.643Z" fill="#648E7A"/>
<path d="M455.339 178.334L437.047 198.659L453.307 202.724L449.242 216.952" stroke="#648E7A" stroke-linecap="round"/>
<path d="M461.437 178.334L458.388 192.562L472.615 196.627L455.339 216.952" stroke="#648E7A" stroke-linecap="round"/>
<path d="M498.877 272.734L514.121 262.572L529.365 272.734V298.141H519.202C519.202 291.027 518.186 286.962 514.121 286.962C509.04 286.962 509.04 291.027 509.04 298.141H498.877V272.734Z" fill="#4A5952"/>
<path d="M494.812 272.734L514.121 259.523L533.43 272.734" stroke="#4A5952"/>
<rect x="316.882" y="199.99" width="14.2285" height="2.03264" fill="#648E7A"/>
<path d="M323.996 203.039L314.85 209.136L318.28 216.25H329.713L333.142 209.136L323.996 203.039Z" fill="#648E7A"/>
<path d="M329.713 207.104H318.28V199.99H329.713V207.104Z" stroke="#648E7A"/>
<path d="M318.28 194.909L323.996 189.827V194.909H318.28Z" fill="#648E7A"/>
<path d="M323.996 189.827L318.28 194.909H323.996V199.99V189.827Z" stroke="#648E7A"/>
<path d="M334.432 182.368C332.367 185.339 333.399 208.12 333.399 208.12H354.051C354.051 202.022 354.483 188.811 353.018 183.358C351.443 177.491 336.497 179.396 334.432 182.368Z" stroke="#648E7A"/>
<path fill-rule="evenodd" clip-rule="evenodd" d="M353.708 194.909H333.383V208.12L353.708 207.104V194.909ZM338.464 204.055C338.464 205.177 337.554 206.088 336.431 206.088C335.309 206.088 334.399 205.177 334.399 204.055C334.399 202.932 335.309 202.022 336.431 202.022C337.554 202.022 338.464 202.932 338.464 204.055ZM350.66 206.088C351.782 206.088 352.692 205.177 352.692 204.055C352.692 202.932 351.782 202.022 350.66 202.022C349.537 202.022 348.627 202.932 348.627 204.055C348.627 205.177 349.537 206.088 350.66 206.088Z" fill="#648E7A"/>
<ellipse cx="336.431" cy="209.136" rx="2.03264" ry="3.04897" fill="#648E7A"/>
<ellipse cx="350.659" cy="209.136" rx="2.03264" ry="3.04897" fill="#648E7A"/>
<path d="M353.708 183.73C352.691 177.632 338.464 179.665 334.399 181.697L333.383 185.762L348.626 185.763C353.708 185.762 354.042 185.735 353.708 183.73Z" fill="#648E7A"/>
<line y1="-0.5" x2="5.29326" y2="-0.5" transform="matrix(-0.999959 0.0090423 0.0090423 0.999959 164.266 350.41)" stroke="#4A5952"/>
<line y1="-0.5" x2="5.29326" y2="-0.5" transform="matrix(-0.999959 0.0090423 0.0090423 0.999959 164.218 345.118)" stroke="#4A5952"/>
<path d="M160.573 349.783L160.52 343.844C160.517 343.568 160.291 343.346 160.015 343.348L152.504 343.416C152.228 343.419 152.007 343.645 152.009 343.921L152.063 349.86C152.065 350.137 152.291 350.358 152.567 350.356L160.078 350.288C160.354 350.285 160.576 350.06 160.573 349.783Z" fill="#4A5952" stroke="#4A5952"/>
<path d="M151.501 346.905H132.176C131.623 346.905 131.176 347.353 131.176 347.905V358.084" stroke="#4A5952"/>
<rect x="127.611" y="357.568" width="9.16252" height="17.2925" rx="0.5" stroke="#4A5952"/>
<circle cx="132.192" cy="372.311" r="1.01632" fill="#4A5952"/>
<rect x="129.143" y="369.262" width="6.09793" height="2.03264" fill="#4A5952"/>
<rect x="139.306" y="355.035" width="24.39" height="16.26" rx="1" fill="#4A5952"/>
<rect x="139.306" y="373.328" width="24.39" height="2.0325" fill="#4A5952"/>
<circle cx="146.609" cy="192.941" r="3.04897" fill="#4A5952"/>
<path d="M146.609 191.924L151.69 214.282H141.528L146.609 191.924Z" fill="#4A5952"/>
<path d="M143.56 187.859C138.759 188.875 138.759 193.957 142.36 195.989M139.959 184.81C132.758 185.827 132.758 195.989 138.759 199.038M136.359 181.762C129.158 182.778 125.557 195.989 135.159 202.087" stroke="#4A5952" stroke-linecap="round"/>
<path d="M149.657 187.859C154.458 188.875 154.458 193.957 150.858 195.989M153.258 184.81C160.459 185.827 160.459 195.989 154.458 199.038M156.859 181.762C164.06 182.778 167.66 195.989 158.059 202.087" stroke="#4A5952" stroke-linecap="round"/>
<rect x="190.994" y="180.102" width="35.4601" height="35.4601" rx="5.0625" stroke="#648E7A" stroke-width="1.125"/>
<rect x="204.151" y="184.113" width="9.14626" height="27.4388" rx="1.125" fill="#648E7A"/>
<rect x="195.004" y="202.406" width="9.14626" height="27.4388" rx="1.125" transform="rotate(-90 195.004 202.406)" fill="#648E7A"/>
<circle cx="270.803" cy="209.281" r="4.58161" transform="rotate(-32.4626 270.803 209.281)" stroke="#4A5952"/>
<circle cx="281.092" cy="202.736" r="4.58161" transform="rotate(-32.4626 281.092 202.736)" stroke="#4A5952"/>
<path d="M285.301 203.671L290.147 204.851" stroke="#4A5952"/>
<path fill-rule="evenodd" clip-rule="evenodd" d="M270.354 178.514L266.82 179.174L267.435 181.789L269.092 181.437L269.332 182.408L267.664 182.762L268.258 185.292L269.955 184.932L270.195 185.903L268.487 186.265L269.081 188.795L270.817 188.427L271.057 189.398L269.31 189.768L269.905 192.298L271.68 191.922L271.92 192.892L270.133 193.271L270.728 195.801L272.543 195.416L272.782 196.387L270.957 196.774L272.191 202.029L275.961 201.229L270.354 178.514Z" fill="#4A5952"/>
<path d="M251.916 189.179L253.722 186.802L274.145 202.577L271.4 205.102L251.916 189.179Z" fill="#4A5952"/>
<circle cx="273.766" cy="202.579" r="3.04897" transform="rotate(-32.4626 273.766 202.579)" fill="#4A5952"/>
<path d="M287.777 278.832L281.68 290.668H257.5L255.257 297.125" stroke="#4A5952" stroke-width="2"/>
<path d="M281.68 291.027L284.729 297.125" stroke="#4A5952" stroke-width="2"/>
<path d="M265.42 277.816C258.306 275.783 257.29 278.832 255.257 280.864C252.818 275.174 262.363 265.621 265.073 263.588C276.251 261.556 288.989 266.066 286.761 265.621C281.68 264.604 280.663 273.46 275.582 272.734C268.468 271.718 268.51 278.699 265.42 277.816Z" stroke="#4A5952"/>
<path d="M265.073 263.588C264.734 267.315 264.81 277.004 266.436 277.817" stroke="#4A5952"/>
<path d="M266.089 263.588C270.154 265.282 278.082 270.093 277.269 271.719" stroke="#4A5952"/>
<path d="M266.368 276.801L265.42 263.588C270.162 263.588 282.444 274.667 277.616 272.735C272.534 270.703 269.485 274.768 266.368 276.801Z" fill="#4A5952"/>
<path d="M264.403 259.523L277.615 291.027" stroke="#4A5952" stroke-width="2"/>
<circle cx="281.68" cy="282.897" r="4.06529" fill="#4A5952"/>
<rect x="261.354" y="284.93" width="20.325" height="6.09751" fill="#4A5952"/>
<path d="M327.952 275.367H345.408C346.179 275.367 346.824 275.951 346.901 276.718L347.772 285.432C347.802 285.726 347.57 285.981 347.275 285.981L325.209 285.981C324.894 285.981 324.657 285.693 324.719 285.383L326.481 276.573C326.621 275.872 327.237 275.367 327.952 275.367Z" stroke="#648E7A"/>
<path d="M320.182 284.465H348.702C349.531 284.465 350.202 285.136 350.202 285.965V292.256C350.202 292.532 349.979 292.756 349.702 292.756H319.182C318.906 292.756 318.682 292.532 318.682 292.256V285.965C318.682 285.136 319.354 284.465 320.182 284.465Z" fill="#648E7A" stroke="#648E7A"/>
<circle cx="328.636" cy="294.418" r="2.98453" stroke="#648E7A"/>
<circle cx="342.572" cy="294.418" r="2.98453" stroke="#648E7A"/>
<circle r="5.96906" transform="matrix(1 0 0 -1 327.474 265.381)" stroke="#648E7A" stroke-width="2"/>
<rect x="332.619" y="263.559" width="12.9381" height="3.64604" fill="#648E7A" stroke="#648E7A"/>
<path d="M340.25 271.189V266.543" stroke="#648E7A"/>
<path d="M343.734 272.35V267.704" stroke="#648E7A"/>
<path d="M336.765 276.996V286.288" stroke="#648E7A"/>
<path d="M440.203 282.492L447.666 271.297H468.822L461.358 282.492H440.203Z" stroke="#648E7A"/>
<path d="M461.126 296.719H439.768V283.492H461.126V296.719Z" stroke="#648E7A"/>
<path d="M469.256 284.873L462.126 295.568V282.138L469.256 272.334V284.873Z" stroke="#648E7A"/>
<path d="M454.778 274.022C451.73 274.022 441.567 270.974 443.6 265.892C445.632 260.811 455.795 273.006 454.778 274.022ZM454.778 274.022C453.762 275.039 462.909 255.73 467.99 261.827C472.055 266.705 460.198 271.312 454.778 274.022Z" stroke="#648E7A" stroke-width="2"/>
<path d="M450.447 296.203V284.008L457.561 271.813" stroke="#648E7A" stroke-width="2"/>
<path d="M444.35 276.894H465.691V289.089" stroke="#648E7A"/>
<rect x="253.14" y="341.209" width="35.4182" height="35.4182" rx="2.5" stroke="#4A5952"/>
<path d="M266.51 349.981V355.213C266.51 355.325 266.582 355.397 266.726 355.429C267.27 355.493 267.702 355.525 268.022 355.525C269.174 355.525 270.062 355.261 270.686 354.733C271.326 354.189 271.646 353.437 271.646 352.477C271.646 350.573 270.438 349.621 268.022 349.621C267.622 349.621 267.182 349.661 266.702 349.741C266.574 349.773 266.51 349.853 266.51 349.981ZM263.87 364.285C263.502 364.285 263.182 364.149 262.91 363.877C262.638 363.605 262.502 363.285 262.502 362.917V348.253C262.502 347.869 262.63 347.525 262.886 347.221C263.142 346.917 263.462 346.749 263.846 346.717C265.206 346.589 266.518 346.525 267.782 346.525C272.902 346.525 275.462 348.429 275.462 352.237C275.462 354.301 274.862 355.869 273.662 356.941C272.478 357.997 270.734 358.525 268.43 358.525C267.822 358.525 267.254 358.501 266.726 358.453C266.582 358.453 266.51 358.517 266.51 358.645V362.917C266.51 363.285 266.374 363.605 266.102 363.877C265.83 364.149 265.51 364.285 265.142 364.285H263.87Z" fill="#4A5952"/>
<path d="M343.915 347.637C343.915 351.752 339.699 355.267 334.253 355.267C328.807 355.267 324.59 351.752 324.59 347.637C324.59 343.521 328.807 340.007 334.253 340.007C339.699 340.007 343.915 343.521 343.915 347.637Z" fill="#648E7A" stroke="#648E7A"/>
<path fill-rule="evenodd" clip-rule="evenodd" d="M346.448 358.37L334.254 359.832L322.058 358.37C324.648 355.58 329.143 353.734 334.253 353.734C339.364 353.734 343.858 355.58 346.448 358.37Z" fill="#648E7A"/>
<path fill-rule="evenodd" clip-rule="evenodd" d="M319.698 357.421C319.807 357.326 319.953 357.283 320.096 357.304L334.253 359.326L348.41 357.304C348.553 357.283 348.699 357.326 348.808 357.421C348.918 357.516 348.98 357.654 348.98 357.799V361.922C348.622 362.004 348.285 362.169 347.98 362.402V358.375L334.753 360.265V377.547L347.98 375.658V369.457C348.285 369.69 348.622 369.855 348.98 369.937V376.091C348.98 376.34 348.797 376.551 348.551 376.586L334.324 378.619C334.277 378.626 334.229 378.626 334.182 378.619L319.955 376.586C319.708 376.551 319.525 376.34 319.525 376.091V369.937C319.884 369.855 320.221 369.69 320.525 369.457V375.658L333.753 377.547V360.265L320.525 358.375V362.401C320.221 362.168 319.884 362.003 319.525 361.922V357.799C319.525 357.654 319.588 357.516 319.698 357.421Z" fill="#648E7A"/>
<path d="M321.558 365.93C321.558 366.955 321.246 367.863 320.765 368.504C320.285 369.145 319.659 369.495 319.009 369.495C318.36 369.495 317.734 369.145 317.253 368.504C316.773 367.863 316.46 366.955 316.46 365.93C316.46 364.905 316.773 363.996 317.253 363.355C317.734 362.714 318.36 362.364 319.009 362.364C319.659 362.364 320.285 362.714 320.765 363.355C321.246 363.996 321.558 364.905 321.558 365.93Z" fill="#648E7A" stroke="#648E7A"/>
<path d="M352.046 365.93C352.046 366.955 351.734 367.863 351.253 368.504C350.773 369.145 350.147 369.495 349.497 369.495C348.848 369.495 348.222 369.145 347.742 368.504C347.261 367.863 346.948 366.955 346.948 365.93C346.948 364.905 347.261 363.996 347.742 363.355C348.222 362.714 348.848 362.364 349.497 362.364C350.147 362.364 350.773 362.714 351.253 363.355C351.734 363.996 352.046 364.905 352.046 365.93Z" fill="#648E7A" stroke="#648E7A"/>
<rect x="373.726" y="294.076" width="28.455" height="4.06501" rx="1" fill="#4A5952"/>
<mask id="path-117-inside-3_159_82" fill="white">
<path fill-rule="evenodd" clip-rule="evenodd" d="M378.759 259.523C377.102 259.523 375.759 260.866 375.759 262.523V295.141C375.759 296.798 377.102 298.141 378.759 298.141H397.149C398.806 298.141 400.149 296.798 400.149 295.141V262.523C400.149 260.866 398.806 259.523 397.149 259.523H378.759ZM381.825 263.588C380.72 263.588 379.825 264.484 379.825 265.588V275.816C379.825 276.92 380.72 277.816 381.825 277.816H394.085C395.189 277.816 396.085 276.92 396.085 275.816V265.588C396.085 264.484 395.189 263.588 394.085 263.588H381.825Z"/>
</mask>
<path fill-rule="evenodd" clip-rule="evenodd" d="M378.759 259.523C377.102 259.523 375.759 260.866 375.759 262.523V295.141C375.759 296.798 377.102 298.141 378.759 298.141H397.149C398.806 298.141 400.149 296.798 400.149 295.141V262.523C400.149 260.866 398.806 259.523 397.149 259.523H378.759ZM381.825 263.588C380.72 263.588 379.825 264.484 379.825 265.588V275.816C379.825 276.92 380.72 277.816 381.825 277.816H394.085C395.189 277.816 396.085 276.92 396.085 275.816V265.588C396.085 264.484 395.189 263.588 394.085 263.588H381.825Z" fill="#4A5952"/>
<path d="M376.759 262.523C376.759 261.419 377.654 260.523 378.759 260.523V258.523C376.55 258.523 374.759 260.314 374.759 262.523H376.759ZM376.759 295.141V262.523H374.759V295.141H376.759ZM378.759 297.141C377.654 297.141 376.759 296.245 376.759 295.141H374.759C374.759 297.35 376.55 299.141 378.759 299.141V297.141ZM397.149 297.141H378.759V299.141H397.149V297.141ZM399.149 295.141C399.149 296.245 398.253 297.141 397.149 297.141V299.141C399.358 299.141 401.149 297.35 401.149 295.141H399.149ZM399.149 262.523V295.141H401.149V262.523H399.149ZM397.149 260.523C398.253 260.523 399.149 261.419 399.149 262.523H401.149C401.149 260.314 399.358 258.523 397.149 258.523V260.523ZM378.759 260.523H397.149V258.523H378.759V260.523ZM380.825 265.588C380.825 265.036 381.273 264.588 381.825 264.588V262.588C380.168 262.588 378.825 263.931 378.825 265.588H380.825ZM380.825 275.816V265.588H378.825V275.816H380.825ZM381.825 276.816C381.273 276.816 380.825 276.368 380.825 275.816H378.825C378.825 277.473 380.168 278.816 381.825 278.816V276.816ZM394.085 276.816H381.825V278.816H394.085V276.816ZM395.085 275.816C395.085 276.368 394.637 276.816 394.085 276.816V278.816C395.742 278.816 397.085 277.473 397.085 275.816H395.085ZM395.085 265.588V275.816H397.085V265.588H395.085ZM394.085 264.588C394.637 264.588 395.085 265.036 395.085 265.588H397.085C397.085 263.931 395.742 262.588 394.085 262.588V264.588ZM381.825 264.588H394.085V262.588H381.825V264.588Z" fill="#4A5952" mask="url(#path-117-inside-3_159_82)"/>
<path d="M399.133 274.767C399.686 273.477 403.468 273.577 403.468 277.525C403.468 282.365 402.638 292.043 406.786 292.043C410.934 292.043 410.934 273.654 409.275 271.718" stroke="#4A5952" stroke-linecap="round" stroke-linejoin="round"/>
<path d="M403.401 266.188C403.275 265.839 403.353 265.45 403.603 265.176L406.237 262.286C406.713 261.764 407.565 261.887 407.875 262.522L411.282 269.521C411.405 269.775 411.416 270.07 411.31 270.332L409.878 273.895C409.647 274.472 408.951 274.7 408.424 274.372L406.039 272.895C405.847 272.776 405.701 272.595 405.625 272.382L403.401 266.188Z" fill="#4A5952"/>
<path d="M403.458 260.413C403.762 260.265 406.151 261.303 406.676 262.38C407.603 264.285 408.53 266.189 408.53 266.189" stroke="#4A5952" stroke-linecap="round" stroke-linejoin="round"/>
<path d="M409.579 349.505H377.059V356.28C378.414 356.28 381.124 356.957 381.124 359.667C381.124 362.377 378.414 363.055 377.059 363.055V369.83H401.449H409.579V363.055C408.224 363.055 405.514 362.377 405.514 359.667C405.514 356.957 408.224 356.28 409.579 356.28V349.505Z" stroke="#4A5952" stroke-width="2" stroke-linecap="round" stroke-linejoin="round"/>
<path d="M385.188 349.505V369.83" stroke="#4A5952" stroke-linecap="round" stroke-linejoin="round" stroke-dasharray="2 2"/>
<path d="M389.254 355.602H401.45" stroke="#4A5952"/>
<path d="M389.254 359.667H401.45" stroke="#4A5952"/>
<path d="M389.254 363.733H401.45" stroke="#4A5952"/>
<path fill-rule="evenodd" clip-rule="evenodd" d="M447.081 340.358C447.154 339.869 447.575 339.507 448.07 339.507H452.306C452.858 339.507 453.306 339.954 453.306 340.507V352.057H445.326L447.081 340.358ZM445.026 354.057L441.283 379.008C441.193 379.613 441.661 380.157 442.272 380.157H452.306C452.858 380.157 453.306 379.709 453.306 379.157V354.057H445.026Z" fill="#648E7A"/>
<path fill-rule="evenodd" clip-rule="evenodd" d="M461.564 340.358C461.491 339.869 461.07 339.507 460.575 339.507H456.339C455.787 339.507 455.339 339.954 455.339 340.507V352.057H463.319L461.564 340.358ZM463.619 354.057L467.362 379.008C467.452 379.613 466.984 380.157 466.373 380.157H456.339C455.787 380.157 455.339 379.709 455.339 379.157V354.057H463.619Z" fill="#648E7A"/>
<path d="M437.047 352.702V358.832C437.047 359.384 437.494 359.832 438.047 359.832H440.654C441.206 359.832 441.654 359.384 441.654 358.832V356.767C441.654 356.214 442.101 355.767 442.654 355.767H465.992C466.544 355.767 466.992 356.214 466.992 356.767V358.832C466.992 359.384 467.44 359.832 467.992 359.832H470.599C471.151 359.832 471.599 359.384 471.599 358.832V352.702C471.599 352.149 471.151 351.702 470.599 351.702H438.047C437.494 351.702 437.047 352.149 437.047 352.702Z" stroke="#648E7A"/>
<path d="M495.923 375.359V343.839C495.923 343.287 496.371 342.839 496.923 342.839H527.443C527.996 342.839 528.443 343.287 528.443 343.839V355.615M496.972 349.808H527.394" stroke="#4A5952"/>
<path d="M522.846 355.534H532.008V376.892H522.846V355.534Z" stroke="#4A5952"/>
<path d="M524.378 365.197H530.476" stroke="#4A5952"/>
<path d="M528.443 361.132V365.197" stroke="#4A5952"/>
<path d="M504.344 377.392C505.796 377.392 505.796 375.742 505.796 373.706H502.892C502.892 375.742 502.892 377.392 504.344 377.392Z" fill="#4A5952"/>
<path d="M515.958 377.392C517.41 377.392 517.41 375.742 517.41 373.706H514.506C514.506 375.742 514.506 377.392 515.958 377.392Z" fill="#4A5952"/>
<path fill-rule="evenodd" clip-rule="evenodd" d="M505.429 358.964C503.989 358.964 502.784 360.057 502.643 361.49L502.033 367.684C501.87 369.331 503.164 370.758 504.819 370.758H515.695C517.377 370.758 518.68 369.286 518.474 367.616L517.712 361.422C517.539 360.019 516.347 358.964 514.933 358.964H505.429ZM515.668 361.176H504.924L504.343 367.073H516.249L515.668 361.176Z" fill="#4A5952"/>
<path d="M508.989 364.861L504.343 367.81" stroke="#4A5952" stroke-width="0.56"/>
<path d="M515.087 364.861L510.441 367.81" stroke="#4A5952" stroke-width="0.56"/>
<path fill-rule="evenodd" clip-rule="evenodd" d="M499.988 368.929C499.988 368.311 500.489 367.809 501.108 367.809H519.193C519.811 367.809 520.313 368.311 520.313 368.929V373.324C520.313 373.942 519.811 374.444 519.193 374.444H501.108C500.489 374.444 499.988 373.942 499.988 373.324V368.929ZM505.795 371.127C505.795 372.145 505.145 372.97 504.343 372.97C503.541 372.97 502.891 372.145 502.891 371.127C502.891 370.109 503.541 369.284 504.343 369.284C505.145 369.284 505.795 370.109 505.795 371.127ZM515.957 372.97C516.759 372.97 517.409 372.145 517.409 371.127C517.409 370.109 516.759 369.284 515.957 369.284C515.156 369.284 514.506 370.109 514.506 371.127C514.506 372.145 515.156 372.97 515.957 372.97Z" fill="#4A5952"/>
<rect x="500.569" y="365.598" width="1.74227" height="1.47435" rx="0.56" fill="#4A5952"/>
<rect x="517.99" y="365.598" width="1.74227" height="1.47435" rx="0.56" fill="#4A5952"/>
<path d="M514.026 111.158C519.329 108.504 529.049 106.686 534.351 111.157V140.257C529.344 137.832 519.329 137.604 514.026 140.257M514.026 111.158C514.026 111.158 514.026 128.893 514.026 140.257M514.026 111.158C508.724 108.504 499.004 106.686 493.701 111.157V140.257C498.709 137.832 508.724 137.604 514.026 140.257" stroke="#4A5952" stroke-linejoin="round"/>
<path d="M504.723 128.924H498.068L501.395 124.765L504.723 128.924Z" fill="#4A5952"/>
<path d="M509.713 128.924H501.395L505.554 123.934L509.713 128.924Z" fill="#4A5952"/>
<path d="M509.713 130.921H498.068C497.426 130.921 496.905 130.4 496.905 129.757V118.944C496.905 118.301 497.426 117.78 498.068 117.78H509.713C510.356 117.78 510.877 118.301 510.877 118.944V129.757C510.877 130.4 510.356 130.921 509.713 130.921Z" stroke="#4A5952"/>
<line x1="518.945" y1="116.78" x2="530.317" y2="116.78" stroke="#4A5952" stroke-linecap="round"/>
<line x1="518.945" y1="123.85" x2="530.317" y2="123.85" stroke="#4A5952" stroke-linecap="round"/>
<line x1="518.945" y1="130.92" x2="530.317" y2="130.92" stroke="#4A5952" stroke-linecap="round"/>
<defs>
<filter id="filter0_f_159_82" x="0" y="0" width="674" height="522" filterUnits="userSpaceOnUse" color-interpolation-filters="sRGB">
<feFlood flood-opacity="0" result="BackgroundImageFix"/>
<feBlend mode="normal" in="SourceGraphic" in2="BackgroundImageFix" result="shape"/>
<feGaussianBlur stdDeviation="50" result="effect1_foregroundBlur_159_82"/>
</filter>
</defs>
</svg>
