<svg width="378" height="423" viewBox="0 0 378 423" fill="none" xmlns="http://www.w3.org/2000/svg">
<path d="M74.1745 201.459C186.218 206.22 220.109 183.715 262.524 172.324C264.09 171.904 265.701 172.816 266.051 174.399C270.309 193.625 267.618 227.835 282.216 219.392C297.369 210.628 317.099 246.761 281.336 266.017C280.509 266.463 279.893 267.25 279.725 268.175C273.425 302.851 262.13 356.518 193.795 367.928C139.529 376.99 106.849 346.025 90.5494 310.011C90.0205 308.842 88.8142 308.145 87.5322 308.106C63.3598 307.371 56.7517 260.53 74.7232 259.09C92.2982 257.682 86.6928 266.794 71.0836 205.231C70.5899 203.284 72.1675 201.374 74.1745 201.459Z" stroke="white" stroke-width="15" stroke-linecap="round"/>
<path d="M111.214 22.9335C70.5041 9.03717 56.5839 59.9857 58.653 83.5338C58.8454 85.723 61.3549 86.641 63.1694 85.4011C108.292 54.5681 171.847 82.7702 163.139 83.4679C154.182 84.1855 165.791 41.5634 111.214 22.9335Z" stroke="white" stroke-width="15" stroke-linecap="round"/>
<path d="M69.0769 50.8756C85.5434 43.5371 124.889 38.7797 150.54 78.458" stroke="white" stroke-width="15" stroke-linecap="round"/>
<path d="M31.0408 415.077C57.1299 412.986 76.5687 375.323 44.8268 289.608C5.14942 182.463 87.0883 92.6542 158.937 83.8891C230.786 75.124 337.483 144.227 321.844 254.376C311.905 324.375 344.82 385.926 370.39 355.795" stroke="white" stroke-width="15" stroke-linecap="round"/>
<path d="M163.945 145.602C123.41 148.324 87.9496 162.004 73.2561 172.797C71.3598 174.19 68.8584 173.235 69.2783 170.92C71.1996 160.326 83.9472 136.197 156.748 118.732C213.8 105.045 256.188 132.43 268.218 152.291C269.682 154.708 266.967 156.635 264.527 155.211C241.62 141.841 204.595 142.872 163.945 145.602Z" fill="white"/>
<path d="M155.624 319.823C171.761 329.231 206.951 339.386 218.621 304.744" stroke="white" stroke-width="15" stroke-linecap="round"/>
</svg>
